<?xml version="1.0" encoding="UTF-8"?>
<svg width="18px" height="18px" viewBox="0 0 18 18" version="1.1" xmlns="http://www.w3.org/2000/svg" xmlns:xlink="http://www.w3.org/1999/xlink">
    <!-- Generator: Sketch 49.2 (51160) - http://www.bohemiancoding.com/sketch -->
    <title>Icon / Search</title>
    <desc>Created with Sketch.</desc>
    <defs></defs>
    <g id="Support---Setup" stroke="none" stroke-width="1" fill="none" fill-rule="evenodd">
        <g id="D-Support-setup-faq" transform="translate(-966.000000, -416.000000)" fill="#000000">
            <g id="FAQs" transform="translate(49.000000, 148.000000)">
                <g id="Search-bar" transform="translate(377.000000, 252.000000)">
                    <g id="Icon-/-Search-black" transform="translate(539.000000, 15.000000)">
                        <path d="M14.1929383,12.7024475 C14.0180824,12.5265637 14.0005968,12.2555381 14.135853,12.047769 C16.0453832,9.11894414 15.6000148,5.09110285 12.7827762,2.68530081 C10.0719941,0.371040618 5.94590711,0.450239745 3.31946732,2.86118458 C0.304744383,5.62852549 0.2286306,10.3388164 3.09215454,13.2043848 C5.53396698,15.6482436 9.31342772,15.9449831 12.0890094,14.1090034 C12.2972937,13.9711763 12.5703776,13.9891761 12.7462622,14.1660885 L17.3933172,18.848094 C17.5944016,19.050206 17.9204566,19.0507203 18.1220552,18.8491225 L18.8492504,18.1214163 C19.0498205,17.9208471 19.0503348,17.5958221 18.850279,17.3942243 L14.1929383,12.7024475 Z M4.54654493,11.748458 C2.55935806,9.75973707 2.55935806,6.52388704 4.54654493,4.53516612 C6.5337318,2.5464452 9.76702473,2.54593092 11.7542116,4.53516612 C13.7413985,6.52388704 13.7413985,9.75973707 11.7542116,11.748458 C9.76702473,13.7371789 6.5337318,13.7371789 4.54654493,11.748458 L4.54654493,11.748458 Z" id="Icon"></path>
                    </g>
                </g>
            </g>
        </g>
    </g>
</svg>