<?xml version="1.0" encoding="UTF-8"?>
<svg width="178px" height="43px" viewBox="0 0 178 43" version="1.1" xmlns="http://www.w3.org/2000/svg" xmlns:xlink="http://www.w3.org/1999/xlink">
    <!-- Generator: Sketch 49.3 (51167) - http://www.bohemiancoding.com/sketch -->
    <title>Gothia-cup-logo@2x</title>
    <desc>Created with Sketch.</desc>
    <defs>
        <polygon id="path-1" points="0 73.6154902 209.324948 73.6154902 209.324948 0 0 0"></polygon>
    </defs>
    <g id="Homepage---Overview" stroke="none" stroke-width="1" fill="none" fill-rule="evenodd">
        <g id="D-Gothia-cup" transform="translate(-528.000000, -18.000000)">
            <g id="Header-logos" transform="translate(50.000000, 3.000000)">
                <g id="Gothia-cup-logo" transform="translate(462.000000, 0.000000)">
                    <g>
                        <path d="M28.4235363,43.0967294 C28.1110796,43.0967294 27.7949896,43.0125725 27.5094187,42.8362784 C22.6401799,39.8262196 21.1316678,33.4223176 24.1457855,28.5608078 C24.6522561,27.7453569 25.7240554,27.4936118 26.5408028,27.9985529 C27.3575502,28.5034941 27.6096955,29.5735922 27.1039516,30.3897686 C25.0998685,33.6225529 26.1026367,37.8811804 29.3412872,39.8828078 C30.1580346,40.387749 30.4094533,41.4585725 29.904436,42.2740235 C29.5752664,42.8043569 29.0063045,43.0967294 28.4235363,43.0967294" id="Fill-1" fill="#F9B51A"></path>
                        <path d="M48.2387439,57.8502255 L43.6042111,57.8502255 C42.6428616,57.8502255 41.8638997,57.0725 41.8638997,56.113402 C41.8638997,55.1543039 42.6428616,54.3765784 43.6042111,54.3765784 L45.3052837,54.3765784 L41.7977751,47.9661471 C41.3676021,47.1804412 41.6059412,46.1981275 42.3478443,45.6953627 C43.102827,45.1838922 43.8047647,44.6078529 44.4369446,43.9832059 C47.480128,40.9709706 49.0104394,36.8160882 48.6972561,32.6046176 L39.7421003,34.3341863 C38.7981903,34.5155588 37.8862526,33.9003431 37.7038651,32.9579314 C37.5207509,32.0162451 38.1383979,31.1050294 39.0808547,30.9229314 L49.8424464,28.8451275 C50.7849031,28.6637549 51.6961142,29.2775196 51.879955,30.2177549 C53.0382249,36.1399314 51.1722042,42.2079314 46.8864602,46.4498725 C46.4722734,46.8597745 46.0341073,47.2522647 45.5755952,47.6244412 L49.7654221,55.2805392 C50.0597128,55.8188529 50.0480865,56.4717941 49.7349031,56.9992255 C49.4217197,57.5266569 48.8527578,57.8502255 48.2387439,57.8502255" id="Fill-3" fill="#FFFFFF"></path>
                        <path d="M46.9962561,21.0170882 C40.0037647,13.9747549 28.5751142,13.9261471 21.5223114,20.9075392 C14.468782,27.8896569 14.4208235,39.2987157 21.4133149,46.341049 C21.8609273,46.7915784 22.3354256,47.2210686 22.8324498,47.6244412 L18.6418962,55.2805392 C18.3476055,55.8188529 18.3599585,56.4717941 18.6724152,56.999951 C18.9863253,57.5266569 19.5545606,57.8502255 20.169301,57.8502255 L35.3481592,57.8502255 C36.308782,57.8502255 37.0870173,57.0725 37.0870173,56.113402 C37.0870173,55.1543039 36.308782,54.3765784 35.3481592,54.3765784 L23.1020346,54.3765784 L25.7412042,49.5535196 C28.3091626,50.9181667 31.1692318,51.6400294 34.1143183,51.6530882 L34.1230381,51.6530882 C35.0800277,51.6530882 35.858263,50.8804412 35.8626228,49.9235196 C35.8662561,48.9644216 35.0902007,48.1830686 34.1303045,48.1794412 C31.2368097,48.1663824 28.4457716,47.3081275 26.0602007,45.6968137 C26.0602007,45.6968137 26.0602007,45.6960882 26.059474,45.6960882 C25.2754256,45.1657549 24.5444221,44.5592451 23.8839031,43.8946961 C18.2422422,38.2133824 18.281481,29.0076373 23.971827,23.3749314 C29.6628997,17.7415 38.8832803,17.781402 44.5256678,23.4627157 C45.2007197,24.143951 46.3037647,24.1490294 46.9846298,23.473598 C47.6676747,22.7981667 47.6727612,21.6983235 46.9962561,21.0170882" id="Fill-5" fill="#FFFFFF"></path>
                        <path d="M61.9144671,53.4558588 L63.566128,53.4558588 C63.7158166,53.4558588 63.8502457,53.4261137 63.9701419,53.3644471 C64.0885848,53.3027804 64.1917682,53.2186235 64.2775121,53.1090745 C64.3618028,53.000251 64.428654,52.8740157 64.4758858,52.7310941 C64.5245709,52.5874471 64.5485502,52.4358196 64.5485502,52.2769373 C64.5485502,52.112251 64.5209377,51.9577216 64.4642595,51.8140745 C64.4090346,51.6704275 64.3341903,51.5463686 64.2404533,51.4397216 C64.1474429,51.3338 64.039173,51.2510941 63.9141903,51.1930549 C63.7892076,51.1342902 63.6562318,51.1052706 63.5188962,51.1052706 L61.9144671,51.1052706 L61.9144671,53.4558588 Z M61.1965433,56.1256627 L61.1965433,50.4675647 L63.5588616,50.4675647 C63.8081003,50.4675647 64.039173,50.5190745 64.249173,50.6228196 C64.4598997,50.7265647 64.6401073,50.8644078 64.7919758,51.0378 C64.9438443,51.2097412 65.0622872,51.4034471 65.1465779,51.6189176 C65.2315952,51.8343882 65.2751938,52.0534863 65.2751938,52.2769373 C65.2751938,52.5098196 65.2345017,52.7361725 65.1552976,52.9538196 C65.0753668,53.1714667 64.9612837,53.3651725 64.8152284,53.5356627 C64.669173,53.7054275 64.4940519,53.8410941 64.2891384,53.9419373 C64.0834983,54.0435059 63.8567855,54.0935647 63.6068201,54.0935647 L61.9144671,54.0935647 L61.9144671,56.1256627 L61.1965433,56.1256627 Z" id="Fill-7" fill="#FFFFFF"></path>
                        <path d="M67.3287612,53.4558588 L69.0443668,53.4558588 C69.1926021,53.4558588 69.3277578,53.4246627 69.4483806,53.3608196 C69.5675502,53.296251 69.6700069,53.2106431 69.7550242,53.1010941 C69.8407682,52.9922706 69.9068927,52.8660353 69.9541246,52.7231137 C70.0028097,52.5794667 70.0267889,52.4307412 70.0267889,52.2769373 C70.0267889,52.1166039 69.9991765,51.9671529 69.9432249,51.8264078 C69.8872734,51.6856627 69.8124291,51.5608784 69.7194187,51.4513294 C69.6264083,51.3425059 69.5166851,51.2576235 69.3917024,51.1966824 C69.2667197,51.1357412 69.1344706,51.1052706 68.9971349,51.1052706 L67.3287612,51.1052706 L67.3287612,53.4558588 Z M66.6108374,56.1256627 L66.6108374,50.4675647 L69.0371003,50.4675647 C69.2863391,50.4675647 69.5166851,50.5190745 69.7274118,50.6228196 C69.9374118,50.7265647 70.118346,50.8644078 70.2702145,51.0378 C70.422083,51.2097412 70.5397993,51.4034471 70.6255433,51.6189176 C70.7098339,51.8343882 70.7534325,52.0534863 70.7534325,52.2769373 C70.7534325,52.4735451 70.7250934,52.662898 70.6691419,52.8464471 C70.6131903,53.0299961 70.5332595,53.1961333 70.4300761,53.3441333 C70.3261661,53.4928588 70.2004567,53.6205451 70.0544014,53.7271922 C69.908346,53.8331137 69.7433979,53.9100157 69.5631903,53.957898 L70.9365467,56.1256627 L70.1227059,56.1256627 L68.8285536,54.0935647 L67.3287612,54.0935647 L67.3287612,56.1256627 L66.6108374,56.1256627 Z" id="Fill-9" fill="#FFFFFF"></path>
                        <polygon id="Fill-11" fill="#FFFFFF" points="76.1996263 55.4885373 76.1996263 56.1262431 72.3513218 56.1262431 72.3513218 50.4674196 76.1269619 50.4674196 76.1269619 51.1051255 73.0699723 51.1051255 73.0699723 52.9377137 75.7287612 52.9377137 75.7287612 53.5362431 73.0699723 53.5362431 73.0699723 55.4885373"></polygon>
                        <path d="M81.0959689,51.654902 C81.0320242,51.580902 80.9470069,51.5090784 80.8401903,51.4394314 C80.7341003,51.3705098 80.6142042,51.3081176 80.4812284,51.2522549 C80.3489792,51.1971176 80.2036505,51.1514118 80.0474221,51.1165882 C79.8890138,51.0824902 79.725519,51.0650784 79.5554844,51.0650784 C79.1136851,51.0650784 78.7903287,51.1477843 78.5854152,51.3124706 C78.381955,51.4771569 78.2787716,51.7027843 78.2787716,51.9893529 C78.2787716,52.1438824 78.3078374,52.2715686 78.3659689,52.3716863 C78.4241003,52.4732549 78.5163841,52.5595882 78.6413668,52.6314118 C78.7663495,52.7025098 78.9218512,52.764902 79.1093253,52.8185882 C79.2946194,52.871549 79.515519,52.9274118 79.7705709,52.9861765 C80.0634083,53.0492941 80.3286332,53.1225686 80.5662457,53.204549 C80.8024048,53.2872549 81.0044118,53.389549 81.1715398,53.5121569 C81.3393945,53.6340392 81.4680104,53.7827647 81.554481,53.9583333 C81.6424048,54.1331765 81.6867301,54.3486471 81.6867301,54.6032941 C81.6867301,54.8746275 81.6329585,55.1096863 81.5283218,55.3084706 C81.4200519,55.5079804 81.2754498,55.6733922 81.0923356,55.8025294 C80.9084948,55.9338431 80.6912284,56.0288824 80.4427163,56.0898235 C80.1912976,56.1507647 79.9195329,56.1812353 79.6274221,56.1812353 C79.1907093,56.1812353 78.7779758,56.1137647 78.3863149,55.978098 C77.994654,55.8424314 77.6393253,55.645098 77.3210554,55.3846471 L77.6633045,54.7788627 C77.7497751,54.869549 77.8587716,54.9595098 77.994654,55.0501961 C78.1305363,55.1401569 78.2845848,55.2214118 78.457526,55.2925098 C78.6304671,55.3650588 78.8172145,55.423098 79.0170415,55.4680784 C79.2161419,55.5137843 79.4254152,55.5362745 79.6434083,55.5362745 C80.0488754,55.5362745 80.3613322,55.464451 80.5851384,55.3208039 C80.808218,55.1771569 80.9201211,54.9624118 80.9201211,54.6751176 C80.9201211,54.5162353 80.8845156,54.3820196 80.8125779,54.2724706 C80.7413668,54.1636471 80.6360035,54.0700588 80.4972145,53.9895294 C80.3591522,53.9097255 80.1869377,53.8393529 79.9820242,53.7784118 C79.778564,53.7174706 79.5445848,53.6550784 79.2837197,53.5912353 C78.9959689,53.5223137 78.7445502,53.4475882 78.5258304,53.3685098 C78.3078374,53.2887059 78.1247232,53.1929412 77.9793945,53.0812157 C77.8326125,52.9694902 77.7221626,52.834549 77.6473183,52.6749412 C77.5732007,52.5153333 77.5368685,52.3245294 77.5368685,52.1010784 C77.5368685,51.8304706 77.5862803,51.5910588 77.688737,51.3842941 C77.7890138,51.1768039 77.9307093,51.0012353 78.1116436,50.8575882 C78.2918512,50.7139412 78.5069377,50.6072941 78.7569031,50.5354706 C79.0068685,50.4636471 79.2786332,50.4273725 79.5714706,50.4273725 C79.9551384,50.4273725 80.3002941,50.4861373 80.6091176,50.6029412 C80.9179412,50.7197451 81.1911592,50.876451 81.4309516,51.0730588 L81.0959689,51.654902 Z" id="Fill-13" fill="#FFFFFF"></path>
                        <polygon id="Fill-15" fill="#FFFFFF" points="86.9992215 55.4885373 86.9992215 56.1262431 83.150917 56.1262431 83.150917 50.4674196 86.9265571 50.4674196 86.9265571 51.1051255 83.8695675 51.1051255 83.8695675 52.9377137 86.5283564 52.9377137 86.5283564 53.5362431 83.8695675 53.5362431 83.8695675 55.4885373"></polygon>
                        <polygon id="Fill-17" fill="#FFFFFF" points="89.0990035 51.8065294 89.0990035 56.126098 88.3810796 56.126098 88.3810796 50.4672745 88.9398685 50.4672745 92.451737 54.8746275 92.451737 50.4752549 93.1703875 50.4752549 93.1703875 56.126098 92.5636401 56.126098"></polygon>
                        <polygon id="Fill-19" fill="#FFFFFF" points="99.0555467 51.1051255 97.0994221 51.1051255 97.0994221 56.1262431 96.3807716 56.1262431 96.3807716 51.1051255 94.4253737 51.1051255 94.4253737 50.4674196 99.0555467 50.4674196"></polygon>
                        <polygon id="Fill-21" fill="#FFFFFF" points="104.154114 55.4885373 104.154114 56.1262431 100.306536 56.1262431 100.306536 50.4674196 104.082176 50.4674196 104.082176 51.1051255 101.025187 51.1051255 101.025187 52.9377137 103.683249 52.9377137 103.683249 53.5362431 101.025187 53.5362431 101.025187 55.4885373"></polygon>
                        <path d="M109.511003,53.2889961 C109.511003,52.9697804 109.466678,52.6766824 109.378028,52.408251 C109.291557,52.1398196 109.160761,51.9105647 108.98782,51.7183098 C108.815606,51.5282314 108.603426,51.3773294 108.35346,51.2685059 C108.103495,51.1596824 107.818651,51.1052706 107.498927,51.1052706 L106.254187,51.1052706 L106.254187,55.4886824 L107.498927,55.4886824 C107.824464,55.4886824 108.112941,55.4328196 108.365813,55.3210941 C108.617958,55.2093686 108.828685,55.0555647 108.99654,54.8589569 C109.162941,54.662349 109.291557,54.4294667 109.378028,54.1617608 C109.466678,53.8933294 109.511003,53.6024078 109.511003,53.2889961 Z M105.535536,56.1263882 L105.535536,50.4675647 L107.498927,50.4675647 C107.951626,50.4675647 108.3491,50.5422902 108.692803,50.6910157 C109.036505,50.8397412 109.322076,51.0414275 109.550969,51.2960745 C109.779862,51.5514471 109.950623,51.850349 110.066159,52.1927804 C110.180242,52.5352118 110.237647,52.9008588 110.237647,53.2889961 C110.237647,53.7192118 110.173702,54.1080745 110.045087,54.4563098 C109.917924,54.8045451 109.73481,55.1019961 109.495017,55.3486627 C109.254498,55.5960549 108.966747,55.7875843 108.628858,55.923251 C108.290242,56.0581922 107.914567,56.1263882 107.498927,56.1263882 L105.535536,56.1263882 Z" id="Fill-23" fill="#FFFFFF"></path>
                        <path d="M117.612644,54.5401765 C117.612644,54.4124902 117.590118,54.2891569 117.544339,54.169451 C117.499287,54.0497451 117.437522,53.9452745 117.361225,53.8545882 C117.283474,53.763902 117.191917,53.6920784 117.085827,53.6391176 C116.97901,53.5861569 116.862021,53.5593137 116.734131,53.5593137 L114.706796,53.5593137 L114.706796,55.5043529 L116.678907,55.5043529 C116.811156,55.5043529 116.933958,55.4775098 117.045862,55.424549 C117.157765,55.3715882 117.255862,55.3004902 117.340879,55.2134314 C117.425896,55.1256471 117.492747,55.0233529 117.540706,54.906549 C117.588664,54.7890196 117.612644,54.6671373 117.612644,54.5401765 Z M114.706796,51.0890196 L114.706796,52.9774706 L116.511052,52.9774706 C116.638215,52.9774706 116.755931,52.9528039 116.862021,52.9027451 C116.968837,52.8519608 117.060394,52.7837647 117.137419,52.6988824 C117.21517,52.614 117.276208,52.5146078 117.32126,52.3999804 C117.366311,52.2860784 117.388837,52.1649216 117.388837,52.0372353 C117.388837,51.9044706 117.367765,51.7796863 117.324893,51.6628824 C117.282747,51.5460784 117.225343,51.4452353 117.154131,51.3603529 C117.081467,51.2747451 116.992817,51.2087255 116.889633,51.1608431 C116.78645,51.1129608 116.676,51.0890196 116.55901,51.0890196 L114.706796,51.0890196 Z M118.338561,54.6671373 C118.338561,54.8855098 118.294235,55.0850196 118.207038,55.2649412 C118.119114,55.4455882 117.999218,55.6001176 117.848076,55.7270784 C117.696208,55.8547647 117.52036,55.9534314 117.32126,56.0223529 C117.121433,56.0912745 116.907073,56.126098 116.678907,56.126098 L113.988872,56.126098 L113.988872,50.4672745 L116.806069,50.4672745 C117.00299,50.4672745 117.181017,50.5100784 117.340879,50.5949608 C117.50074,50.6805686 117.635896,50.7901176 117.747799,50.9257843 C117.859702,51.061451 117.946173,51.2152549 118.007938,51.3879216 C118.068976,51.5605882 118.099495,51.7347059 118.099495,51.9102745 C118.099495,52.1917647 118.028284,52.4514902 117.888042,52.690902 C117.746346,52.9303137 117.546519,53.1080588 117.284927,53.2248627 C117.610464,53.3206275 117.866969,53.4969216 118.055896,53.7544706 C118.244097,54.0120196 118.338561,54.3167255 118.338561,54.6671373 Z" id="Fill-25" fill="#FFFFFF"></path>
                        <polygon id="Fill-27" fill="#FFFFFF" points="119.809651 50.4674922 121.525983 53.4158843 123.258301 50.4674922 124.04017 50.4674922 121.884945 54.0615706 121.884945 56.1255902 121.167021 56.1255902 121.167021 54.0456098 119.019789 50.4674922"></polygon>
                        <path d="M130.569498,51.654902 C130.50628,51.580902 130.420536,51.5090784 130.314446,51.4394314 C130.20763,51.3705098 130.087734,51.3081176 129.955484,51.2522549 C129.822509,51.1971176 129.67718,51.1514118 129.520225,51.1165882 C129.36327,51.0824902 129.199775,51.0650784 129.029014,51.0650784 C128.587215,51.0650784 128.263858,51.1477843 128.058945,51.3124706 C127.854758,51.4771569 127.752301,51.7027843 127.752301,51.9893529 C127.752301,52.1438824 127.781367,52.2715686 127.839498,52.3716863 C127.898356,52.4732549 127.99064,52.5595882 128.115623,52.6314118 C128.239879,52.7025098 128.395381,52.764902 128.582128,52.8185882 C128.768875,52.871549 128.989048,52.9274118 129.244827,52.9861765 C129.536938,53.0492941 129.802163,53.1225686 130.039048,53.204549 C130.275934,53.2872549 130.477941,53.389549 130.645796,53.5121569 C130.812924,53.6340392 130.940813,53.7827647 131.02801,53.9583333 C131.116661,54.1331765 131.16026,54.3486471 131.16026,54.6032941 C131.16026,54.8746275 131.107215,55.1096863 131.001125,55.3084706 C130.893581,55.5079804 130.749706,55.6733922 130.565865,55.8025294 C130.382024,55.9338431 130.165484,56.0288824 129.915519,56.0898235 C129.664827,56.1507647 129.393789,56.1812353 129.100952,56.1812353 C128.664965,56.1812353 128.250779,56.1137647 127.859844,55.978098 C127.468183,55.8424314 127.113581,55.645098 126.793858,55.3846471 L127.136834,54.7788627 C127.222578,54.869549 127.333028,54.9595098 127.468183,55.0501961 C127.604066,55.1401569 127.758114,55.2214118 127.931055,55.2925098 C128.104723,55.3650588 128.290744,55.423098 128.490571,55.4680784 C128.689671,55.5137843 128.898945,55.5362745 129.116938,55.5362745 C129.521678,55.5362745 129.835588,55.464451 130.058668,55.3208039 C130.282474,55.1771569 130.393651,54.9624118 130.393651,54.6751176 C130.393651,54.5162353 130.358045,54.3820196 130.286107,54.2724706 C130.214896,54.1636471 130.109533,54.0700588 129.970744,53.9895294 C129.832682,53.9097255 129.661194,53.8393529 129.45628,53.7784118 C129.251367,53.7174706 129.018114,53.6550784 128.757976,53.5912353 C128.470225,53.5223137 128.217353,53.4475882 127.99936,53.3685098 C127.781367,53.2887059 127.598979,53.1929412 127.452924,53.0812157 C127.306142,52.9694902 127.195692,52.834549 127.121574,52.6749412 C127.04673,52.5153333 127.009671,52.3245294 127.009671,52.1010784 C127.009671,51.8304706 127.060536,51.5910588 127.16154,51.3842941 C127.262543,51.1768039 127.403512,51.0012353 127.584446,50.8575882 C127.765381,50.7139412 127.980467,50.6072941 128.231159,50.5354706 C128.481125,50.4636471 128.752163,50.4273725 129.045,50.4273725 C129.428668,50.4273725 129.773824,50.4861373 130.082647,50.6029412 C130.391471,50.7197451 130.665415,50.876451 130.904481,51.0730588 L130.569498,51.654902 Z" id="Fill-29" fill="#FFFFFF"></path>
                        <polygon id="Fill-31" fill="#FFFFFF" points="132.620958 56.1258078 132.620958 50.4749647 133.339609 50.4749647 133.339609 53.599651 136.260716 50.4677098 137.035318 50.4677098 134.760197 52.9619451 137.163208 56.1258078 136.380612 56.1258078 134.321304 53.3762 133.339609 54.3969647 133.339609 56.1258078"></polygon>
                        <polygon id="Fill-33" fill="#FFFFFF" points="138.34473 56.1258078 138.34473 50.4677098 142.087671 50.4677098 142.087671 51.1046902 139.061927 51.1046902 139.061927 52.9938667 141.608087 52.9938667 141.608087 53.5916706 139.061927 53.5916706 139.061927 56.1258078"></polygon>
                        <path d="M76.1613322,29.8019765 L73.2293253,32.2113294 C71.8850346,30.3511725 70.0829585,29.2527804 67.608737,29.2527804 C63.6993945,29.2527804 61.1336159,32.0285059 61.1336159,35.870702 C61.1336159,39.7738392 63.7909516,42.6097804 67.8536159,42.6097804 C70.2057612,42.6097804 72.0681488,41.6339961 73.1682872,40.1097412 L73.1682872,38.4628784 L67.608737,38.4628784 L67.608737,34.8949176 L77.2919896,34.8949176 L77.2919896,40.8410353 C75.5197059,44.0128784 71.9765917,46.2996235 67.6705017,46.2996235 C61.6219204,46.2996235 56.8892907,41.786349 56.8892907,35.870702 C56.8892907,29.9543294 61.5914014,25.4410549 67.6705017,25.4410549 C71.2739273,25.4410549 74.2379066,27.0574471 76.1613322,29.8019765" id="Fill-35" fill="#FFFFFF"></path>
                        <path d="M82.4109031,38.4015745 C82.4109031,40.7804569 84.0298651,42.4882608 86.3202457,42.4882608 C88.5488616,42.4882608 90.2295882,40.7499863 90.2295882,38.4015745 C90.2295882,36.0226922 88.5488616,34.2539471 86.3202457,34.2539471 C84.0298651,34.2539471 82.4109031,36.0226922 82.4109031,38.4015745 M94.4448478,38.3711039 C94.4448478,42.8539078 90.7796574,46.2695157 86.289,46.2695157 C81.7997958,46.2695157 78.225436,42.8539078 78.225436,38.3711039 C78.225436,33.9187706 81.7997958,30.5031627 86.3202457,30.5031627 C90.7796574,30.5031627 94.4448478,33.9187706 94.4448478,38.3711039" id="Fill-37" fill="#FFFFFF"></path>
                        <polygon id="Fill-39" fill="#FFFFFF" points="96.5996367 45.9341941 96.5996367 34.3154686 94.217699 34.3154686 94.217699 30.8389196 96.5996367 30.8389196 96.5996367 26.5607039 100.723339 26.5607039 100.723339 30.8389196 103.490398 30.8389196 103.490398 34.3154686 100.723339 34.3154686 100.723339 45.9341941"></polygon>
                        <path d="M118.307388,36.5718882 L118.307388,45.9343392 L114.214204,45.9343392 L114.214204,37.1515549 C114.214204,35.3820843 113.084273,34.2234765 111.403547,34.2234765 C109.723547,34.2234765 108.533304,35.4125549 108.533304,37.1515549 L108.533304,45.9343392 L104.408875,45.9343392 L104.408875,23.0625353 L108.533304,23.0625353 L108.533304,32.1195549 C109.540433,31.1133 110.97628,30.5031627 112.686799,30.5031627 C116.138356,30.5031627 118.307388,32.9429863 118.307388,36.5718882" id="Fill-41" fill="#FFFFFF"></path>
                        <path d="M135.687176,40.292202 L135.687176,40.1093784 L132.449979,40.1093784 C131.105689,40.1093784 130.342713,40.6273784 130.342713,41.6343588 C130.342713,42.6710843 131.227765,43.2812216 132.511017,43.2812216 C134.251329,43.2812216 135.687176,42.0609471 135.687176,40.292202 M139.811606,36.9687314 L139.811606,45.9343392 L136.022886,45.9343392 L136.022886,44.4703 C134.953993,45.5984373 133.367003,46.2999863 131.411606,46.2999863 C128.112644,46.2999863 126.189218,44.3484176 126.189218,41.7867118 C126.189218,39.0421824 128.417834,37.3953196 131.89991,37.3953196 L135.687176,37.3953196 L135.687176,36.7242412 C135.687176,35.0773784 134.74036,34.0711235 132.877972,34.0711235 C131.25901,34.0711235 130.12908,34.8336137 128.876346,36.1453 L126.738561,33.6140647 C128.510118,31.5094176 130.677696,30.5031627 133.335758,30.5031627 C137.184789,30.5031627 139.811606,32.668751 139.811606,36.9687314" id="Fill-43" fill="#FFFFFF"></path>
                        <path d="M159.265526,40.2677529 C158.010612,41.6839098 156.393104,42.4884784 154.362135,42.4884784 C150.605388,42.4884784 147.856495,39.7744196 147.856495,35.9010275 C147.856495,31.9978902 150.605388,29.2533608 154.362135,29.2533608 C156.393104,29.2533608 158.010612,30.0572039 159.265526,31.4733608 L160.92518,27.7051647 C159.166702,26.2701451 156.903208,25.4409098 154.362135,25.4409098 C148.345526,25.4409098 143.610716,29.9541843 143.610716,35.8705569 C143.610716,41.7869294 148.345526,46.3002039 154.331616,46.3002039 C156.888675,46.3002039 159.168156,45.4738706 160.928813,44.0439294 L159.265526,40.2677529 Z" id="Fill-45" fill="#FFFFFF"></path>
                        <path d="M175.644073,39.285802 C175.644073,43.5553118 172.651028,46.2998412 168.710439,46.2998412 C164.70954,46.2998412 161.715768,43.5553118 161.715768,39.285802 L161.715768,30.8389196 L165.839471,30.8389196 L165.839471,39.6217039 C165.839471,41.390449 167.090751,42.5185863 168.710439,42.5185863 C170.268363,42.5185863 171.521097,41.390449 171.521097,39.6217039 L171.521097,30.8389196 L175.644073,30.8389196 L175.644073,39.285802 Z" id="Fill-47" fill="#FFFFFF"></path>
                        <path d="M188.921668,38.6555686 C188.921668,36.0938627 187.18063,34.4781961 185.012325,34.4781961 C183.119419,34.4781961 181.19454,35.7282157 181.19454,38.625098 C181.19454,41.4915098 183.0889,42.8031961 185.012325,42.8031961 C187.150111,42.8031961 188.921668,41.2172745 188.921668,38.6555686 M193.107135,38.625098 C193.107135,43.1688431 190.053052,46.5539804 185.776028,46.5539804 C183.912913,46.5539804 182.324471,45.882902 181.255578,44.7242941 L181.255578,51.6773922 L177.131875,51.6773922 L177.131875,31.0930588 L180.919869,31.0930588 L180.919869,32.9836863 C181.958242,31.5501176 183.668761,30.7571569 185.776028,30.7571569 C190.053052,30.7571569 193.107135,34.0813529 193.107135,38.625098" id="Fill-49" fill="#FFFFFF"></path>
                        <path d="M125.016779,26.5755039 C125.016779,27.9923863 123.838889,29.0769941 122.421208,29.0769941 C120.97228,29.0769941 119.794391,27.9923863 119.794391,26.5755039 C119.794391,25.1288765 120.97228,24.0435431 122.421208,24.0435431 C123.838889,24.0435431 125.016779,25.1288765 125.016779,26.5755039" id="Fill-51" fill="#FFFFFF"></path>
                        <mask id="mask-2" fill="white">
                            <use xlink:href="#path-1"></use>
                        </mask>
                        <g id="Clip-54"></g>
                        <polygon id="Fill-53" fill="#FFFFFF" mask="url(#mask-2)" points="120.343806 45.9344118 124.467509 45.9344118 124.467509 30.8391373 120.343806 30.8391373"></polygon>
                    </g>
                </g>
            </g>
        </g>
    </g>
</svg>