<svg xmlns="http://www.w3.org/2000/svg" xmlns:xlink="http://www.w3.org/1999/xlink" width="150" height="21" viewBox="0 0 150 21">
  <defs>
    <polygon id="logo_black-a" points="0 .38 12.983 .38 12.983 20.28 0 20.28"/>
    <polygon id="logo_black-c" points="0 .38 13.448 .38 13.448 20.28 0 20.28"/>
    <polygon id="logo_black-e" points=".382 .381 18.074 .381 18.074 20.281 .382 20.281"/>
  </defs>
  <g fill="none" fill-rule="evenodd">
    <g transform="translate(0 .003)">
      <mask id="logo_black-b" fill="#fff">
        <use xlink:href="#logo_black-a"/>
      </mask>
      <path fill="#020303" d="M6.64576531,9.22767857 L3.8267602,9.22767857 L3.8267602,4.2065051 L6.64576531,4.2065051 C8.02982143,4.2065051 9.15635204,5.33265306 9.15635204,6.71670918 C9.15635204,8.10153061 8.02982143,9.22767857 6.64576531,9.22767857 M6.64576531,0.37997449 L0.000229591837,0.381887755 L0.000229591837,20.2798469 L3.8267602,20.2798469 L3.8267602,13.0542092 L6.64576531,13.0542092 C10.1401531,13.0542092 12.9828827,10.2110969 12.9828827,6.71670918 C12.9828827,3.22270408 10.1401531,0.37997449 6.64576531,0.37997449" mask="url(#logo_black-b)"/>
    </g>
    <polygon fill="#020303" points="47.066 20.282 34.056 20.282 34.056 .385 37.883 .385 37.883 16.456 47.066 16.456"/>
    <g transform="translate(136.224 .003)">
      <mask id="logo_black-d" fill="#fff">
        <use xlink:href="#logo_black-c"/>
      </mask>
      <path fill="#020303" d="M3.82668367,4.20646684 L6.64568878,4.20646684 C8.0297449,4.20646684 9.15627551,5.3326148 9.15627551,6.71705357 C9.15627551,8.10149235 8.0297449,9.22764031 6.64568878,9.22764031 L3.82668367,9.22764031 L3.82668367,4.20646684 Z M3.82668367,13.0541709 L6.08892857,13.0541709 L9.2672449,20.2798087 L13.4477296,20.2798087 L9.87604592,12.1591454 C11.7322959,11.0528954 12.9828061,9.03057398 12.9828061,6.71705357 C12.9828061,3.22266582 10.1400765,0.379936224 6.64568878,0.379936224 L0.000153061224,0.38184949 L0.000153061224,20.2798087 L3.82668367,20.2798087 L3.82668367,13.0541709 Z" mask="url(#logo_black-d)"/>
    </g>
    <polygon fill="#020303" points="108.674 8.236 104.411 .384 100.057 .384 106.76 12.733 106.76 20.282 110.587 20.282 110.587 12.733 117.29 .384 112.936 .384"/>
    <g transform="translate(65.434 .003)">
      <mask id="logo_black-f" fill="#fff">
        <use xlink:href="#logo_black-e"/>
      </mask>
      <path fill="#020303" d="M0.414566327,19.7483801 L8.88153061,0.606543367 C8.94811224,0.456160714 9.08778061,0.381160714 9.22783163,0.381160714 C9.3675,0.381160714 9.50793367,0.456160714 9.57413265,0.606543367 L18.0407143,19.7483801 C18.1516837,19.9990179 17.9683929,20.2806505 17.6944133,20.2806505 L5.74186224,20.2806505 L7.13318878,17.1375383 C7.31686224,16.721977 7.72821429,16.4541199 8.18280612,16.4541199 L12.3996429,16.4541199 L9.22783163,9.28281888 L4.36354592,20.2806505 L0.76125,20.2806505 C0.487270408,20.2806505 0.303979592,19.9990179 0.414566327,19.7483801" mask="url(#logo_black-f)"/>
    </g>
  </g>
</svg>
