<?xml version="1.0" encoding="UTF-8"?>
<svg width="32px" height="32px" viewBox="0 0 32 32" version="1.1" xmlns="http://www.w3.org/2000/svg" xmlns:xlink="http://www.w3.org/1999/xlink">
    <!-- Generator: Sketch 49.3 (51167) - http://www.bohemiancoding.com/sketch -->
    <title>question _01@2x</title>
    <desc>Created with Sketch.</desc>
    <defs></defs>
    <g id="Page-2" stroke="none" stroke-width="1" fill="none" fill-rule="evenodd">
        <g id="question-_01">
            <circle id="Oval" fill="#0117A0" cx="16" cy="16" r="16"></circle>
            <g id="information" transform="translate(8.000000, 8.000000)" fill="#FFFFFF" fill-rule="nonzero">
                <circle id="Oval" cx="8" cy="11.828125" r="1"></circle>
                <path d="M8,0 C3.578625,0 0,3.57803125 0,8 C0,12.421375 3.57803125,16 8,16 C12.421375,16 16,12.4219687 16,8 C16,3.578625 12.4219687,0 8,0 Z M8,14.75 C4.26946875,14.75 1.25,11.7310313 1.25,8 C1.25,4.26946875 4.26896875,1.25 8,1.25 C11.7305313,1.25 14.75,4.26896875 14.75,8 C14.75,11.7305313 11.7310312,14.75 8,14.75 Z" id="Shape"></path>
                <path d="M8,4.015625 C6.6215,4.015625 5.5,5.137125 5.5,6.515625 C5.5,6.8608125 5.7798125,7.140625 6.125,7.140625 C6.4701875,7.140625 6.75,6.8608125 6.75,6.515625 C6.75,5.826375 7.31075,5.265625 8,5.265625 C8.68925,5.265625 9.25,5.826375 9.25,6.515625 C9.25,7.204875 8.68925,7.765625 8,7.765625 C7.6548125,7.765625 7.375,8.0454375 7.375,8.390625 L7.375,9.953125 C7.375,10.2983125 7.6548125,10.578125 8,10.578125 C8.3451875,10.578125 8.625,10.2983125 8.625,9.953125 L8.625,8.93653125 C9.7020625,8.6583125 10.5,7.67840625 10.5,6.515625 C10.5,5.137125 9.3785,4.015625 8,4.015625 Z" id="Shape"></path>
            </g>
        </g>
    </g>
</svg>