<?xml version="1.0" encoding="UTF-8"?>
<svg width="32px" height="32px" viewBox="0 0 32 32" version="1.1" xmlns="http://www.w3.org/2000/svg" xmlns:xlink="http://www.w3.org/1999/xlink">
    <!-- Generator: Sketch 49.3 (51167) - http://www.bohemiancoding.com/sketch -->
    <title>Chat _02@2x</title>
    <desc>Created with Sketch.</desc>
    <defs></defs>
    <g id="Page-2" stroke="none" stroke-width="1" fill="none" fill-rule="evenodd">
        <g id="Chat-_02">
            <circle id="Oval" fill="#0117A0" cx="16" cy="16" r="16"></circle>
            <g id="information" transform="translate(8.000000, 8.000000)" fill-rule="nonzero" stroke="#FFFFFF" stroke-width="1.3">
                <g id="chat-(2)">
                    <path d="M13.1921692,2.80380545 C11.8015039,1.41314016 9.96070254,0.65 7.99597463,0.65 C6.03124672,0.65 4.19044538,1.41314016 2.79978008,2.80380545 C0.120596476,5.48298906 -0.0762876906,9.7814697 2.33614587,12.6857284 L2.60653336,13.0112401 L2.41828041,13.390223 C2.03673253,14.1583391 1.52562903,14.7683988 0.842120784,15.104487 C0.800806583,15.1249066 0.780409156,15.1639017 0.787019661,15.2062089 C0.794423008,15.2535904 0.827276609,15.2866977 0.870514205,15.2934537 C1.02962518,15.3182043 1.20750532,15.3330867 1.40316279,15.3330867 C2.2108705,15.3330867 3.0403262,15.096619 3.83752057,14.5221329 L4.16754136,14.2843084 L4.525704,14.4771652 C5.5973048,15.0541811 6.7869252,15.35 7.99259197,15.35 C9.93386733,15.35 11.804952,14.5867944 13.1955518,13.1961945 C14.5862171,11.8055292 15.3493573,9.96472791 15.3493573,8 C15.3493573,6.03738677 14.5843377,4.19597393 13.1921692,2.80380545 Z" id="Shape"></path>
                </g>
            </g>
        </g>
    </g>
</svg>