<?xml version="1.0" encoding="UTF-8"?>
<svg width="16px" height="16px" viewBox="0 0 16 16" version="1.1" xmlns="http://www.w3.org/2000/svg" xmlns:xlink="http://www.w3.org/1999/xlink">
    <!-- Generator: Sketch 49.1 (51147) - http://www.bohemiancoding.com/sketch -->
    <title>Facebook</title>
    <desc>Created with Sketch.</desc>
    <defs></defs>
    <g id="Blog" stroke="none" stroke-width="1" fill="none" fill-rule="evenodd">
        <g id="T-Blog-Post" transform="translate(-67.000000, -515.000000)" fill="#001CA8">
            <g id="Blog-post" transform="translate(64.000000, 180.000000)">
                <g id="Share">
                    <path d="M19,350.116583 C19,350.604271 18.6046961,351 18.1169949,351 L14.0397429,351 L14.0397429,344.803879 L16.1195554,344.803879 L16.4311787,342.389409 L14.0397429,342.389409 L14.0397429,340.847461 C14.0397429,340.148398 14.234126,339.672042 15.2365504,339.672042 L16.5152951,339.671606 L16.5152951,337.511658 C16.2938901,337.482458 15.5350985,337.416649 14.6520934,337.416649 C12.8085043,337.416649 11.5463213,338.541948 11.5463213,340.608629 L11.5463213,342.389409 L9.46127864,342.389409 L9.46127864,344.803879 L11.5463213,344.803879 L11.5463213,351 L3.88300509,351 C3.39530386,351 3,350.604271 3,350.116583 L3,335.883417 C3,335.395293 3.39530386,335 3.88300509,335 L18.1169949,335 C18.6046961,335 19,335.395293 19,335.883417 L19,350.116583" id="Facebook"></path>
                </g>
            </g>
        </g>
    </g>
</svg>