<svg xmlns="http://www.w3.org/2000/svg" width="17" height="17" viewBox="0 0 17 17">
  <path fill="#FFF" fill-rule="evenodd" d="M10.9249612,13.2337558 C9.79025934,13.2647747 9.57002971,12.4193753 9.56088677,11.8065265 L9.56088677,7.29836454 L12.4071839,7.29836454 L12.4071839,5.10564101 L9.57073984,5.10564101 L9.57073984,1.41666667 L7.4951133,1.41666667 C7.46093821,1.41666667 7.40128714,1.44723201 7.39285432,1.52477911 C7.27142178,2.65379228 6.75444582,4.63537002 4.60416667,5.42771089 L4.60416667,7.29827384 L6.03863294,7.29827384 L6.03863294,12.0297351 C6.03863294,13.6498799 7.20822005,15.9515322 10.2957844,15.8972038 C11.3375478,15.8789735 12.4945301,15.4334631 12.75,15.0488114 L12.0683622,12.9839726 C11.8048145,13.1124014 11.3007985,13.2241418 10.9249612,13.2337558 Z"/>
</svg>
