<svg xmlns="http://www.w3.org/2000/svg" width="17" height="17" viewBox="0 0 17 17">
  <path fill="#FFF" fill-rule="evenodd" d="M6.89102083,10.3879762 L6.89053385,5.97848555 L11.1009557,8.19083261 L6.89102083,10.3879762 Z M16.1358333,5.21438963 C16.1358333,5.21438963 15.9834089,4.13298301 15.5163958,3.65677175 C14.9237422,3.0314686 14.2595026,3.028526 13.9551406,2.9922339 C11.7744479,2.83333333 8.50340885,2.83333333 8.50340885,2.83333333 L8.49659115,2.83333333 C8.49659115,2.83333333 5.22555208,2.83333333 3.04485937,2.9922339 C2.74001042,3.028526 2.07625781,3.0314686 1.48311719,3.65677175 C1.01610417,4.13298301 0.864166667,5.21438963 0.864166667,5.21438963 C0.864166667,5.21438963 0.708333333,6.48461327 0.708333333,7.75434649 L0.708333333,8.94511985 C0.708333333,10.2153435 0.864166667,11.4850767 0.864166667,11.4850767 C0.864166667,11.4850767 1.01610417,12.5664833 1.48311719,13.0426946 C2.07625781,13.6679977 2.8549375,13.6483804 3.20166667,13.7136081 C4.44833333,13.8342548 8.5,13.8715278 8.5,13.8715278 C8.5,13.8715278 11.7744479,13.8666234 13.9551406,13.7077229 C14.2595026,13.6709403 14.9237422,13.6679977 15.5163958,13.0426946 C15.9834089,12.5664833 16.1358333,11.4850767 16.1358333,11.4850767 C16.1358333,11.4850767 16.2916667,10.2153435 16.2916667,8.94511985 L16.2916667,7.75434649 C16.2916667,6.48461327 16.1358333,5.21438963 16.1358333,5.21438963 L16.1358333,5.21438963 Z" transform="translate(0 .5)"/>
</svg>
