<svg xmlns="http://www.w3.org/2000/svg" width="17" height="17" viewBox="0 0 17 17">
  <path fill="#FFF" fill-rule="evenodd" d="M9.03189658,16.2916667 L1.56841371,16.2916667 C1.09326525,16.2916667 0.708333333,15.9064959 0.708333333,15.4315325 L0.708333333,1.56840703 C0.708333333,1.09332273 1.09332572,0.708333333 1.56841371,0.708333333 L15.4316468,0.708333333 C15.9066138,0.708333333 16.2916667,1.09332273 16.2916667,1.56840703 L16.2916667,15.4315325 C16.2916667,15.9065563 15.9065533,16.2916667 15.4316468,16.2916667 L11.4606078,16.2916667 L11.4606078,10.2569412 L13.4861866,10.2569412 L13.7894882,7.90510158 L11.4606078,7.90510158 L11.4606078,6.40360059 C11.4606078,5.72268876 11.6496876,5.25866981 12.6261062,5.25866981 L13.8714813,5.25812561 L13.8714813,3.15462141 C13.6560984,3.12596035 12.9168308,3.06192646 12.0567504,3.06192646 C10.2611875,3.06192646 9.03189658,4.15793995 9.03189658,6.17068412 L9.03189658,7.90510158 L7.00111767,7.90510158 L7.00111767,10.2569412 L9.03189658,10.2569412 L9.03189658,16.2916667 L9.03189658,16.2916667 Z"/>
</svg>
