<svg xmlns="http://www.w3.org/2000/svg" width="17" height="17" viewBox="0 0 17 17">
  <path fill="#FFF" fill-rule="evenodd" d="M8.50001546,0.708333333 C10.6160896,0.708333333 10.8814301,0.717302764 11.7124942,0.755221803 C12.5418263,0.793048055 13.1082303,0.924774962 13.6038377,1.11740121 C14.1162087,1.31649163 14.5507312,1.58291463 14.9839237,2.01607625 C15.4170854,2.4492688 15.6835084,2.8837913 15.8826297,3.39616226 C16.075225,3.89176968 16.2069519,4.45817373 16.2447782,5.2875058 C16.2826972,6.1185699 16.2916667,6.38391038 16.2916667,8.50001546 C16.2916667,10.6160896 16.2826972,10.8814301 16.2447782,11.7124942 C16.2069519,12.5418263 16.075225,13.1082303 15.8826297,13.6038377 C15.6835084,14.1162087 15.4170854,14.5507312 14.9839237,14.9839237 C14.5507312,15.4170854 14.1162087,15.6835084 13.6038377,15.8826297 C13.1082303,16.075225 12.5418263,16.2069519 11.7124942,16.2447782 C10.8814301,16.2826972 10.6160896,16.2916667 8.50001546,16.2916667 C6.38391038,16.2916667 6.1185699,16.2826972 5.2875058,16.2447782 C4.45817373,16.2069519 3.89176968,16.075225 3.39616226,15.8826297 C2.8837913,15.6835084 2.4492688,15.4170854 2.01607625,14.9839237 C1.58291463,14.5507312 1.31649163,14.1162087 1.11740121,13.6038377 C0.924774962,13.1082303 0.793048055,12.5418263 0.755221803,11.7124942 C0.717302764,10.8814301 0.708333333,10.6160896 0.708333333,8.50001546 C0.708333333,6.38391038 0.717302764,6.1185699 0.755221803,5.2875058 C0.793048055,4.45817373 0.924774962,3.89176968 1.11740121,3.39616226 C1.31649163,2.8837913 1.58291463,2.4492688 2.01607625,2.01607625 C2.4492688,1.58291463 2.8837913,1.31649163 3.39616226,1.11740121 C3.89176968,0.924774962 4.45817373,0.793048055 5.2875058,0.755221803 C6.1185699,0.717302764 6.38391038,0.708333333 8.50001546,0.708333333 Z M8.50001546,2.11223473 C6.41954067,2.11223473 6.17309785,2.1201835 5.35149804,2.15766953 C4.59181824,2.19231009 4.17925538,2.31924299 3.90469803,2.42594828 C3.5410031,2.56729413 3.28144635,2.73613592 3.0088066,3.0088066 C2.73613592,3.28144635 2.56729413,3.5410031 2.42594828,3.90469803 C2.31924299,4.17925538 2.19231009,4.59181824 2.15766953,5.35149804 C2.1201835,6.17309785 2.11223473,6.41954067 2.11223473,8.50001546 C2.11223473,10.5804593 2.1201835,10.8269022 2.15766953,11.648502 C2.19231009,12.4081818 2.31924299,12.8207446 2.42594828,13.095302 C2.56729413,13.4589969 2.73616685,13.7185537 3.0088066,13.9911934 C3.28144635,14.2638641 3.5410031,14.4327059 3.90469803,14.5740517 C4.17925538,14.680757 4.59181824,14.8076899 5.35149804,14.8423305 C6.17300506,14.8798165 6.41938603,14.8877653 8.50001546,14.8877653 C10.580614,14.8877653 10.8270259,14.8798165 11.648502,14.8423305 C12.4081818,14.8076899 12.8207446,14.680757 13.095302,14.5740517 C13.4589969,14.4327059 13.7185537,14.2638641 13.9911934,13.9911934 C14.2638641,13.7185537 14.4327059,13.4589969 14.5740517,13.095302 C14.680757,12.8207446 14.8076899,12.4081818 14.8423305,11.648502 C14.8798165,10.8269022 14.8877653,10.5804593 14.8877653,8.50001546 C14.8877653,6.41954067 14.8798165,6.17309785 14.8423305,5.35149804 C14.8076899,4.59181824 14.680757,4.17925538 14.5740517,3.90469803 C14.4327059,3.5410031 14.2638641,3.28144635 13.9911934,3.0088066 C13.7185537,2.73613592 13.4589969,2.56729413 13.095302,2.42594828 C12.8207446,2.31924299 12.4081818,2.19231009 11.648502,2.15766953 C10.8269022,2.1201835 10.5804593,2.11223473 8.50001546,2.11223473 Z M8.50001546,4.49887638 C10.7097738,4.49887638 12.5011236,6.29022623 12.5011236,8.50001546 C12.5011236,10.7097738 10.7097738,12.5011236 8.50001546,12.5011236 C6.29022623,12.5011236 4.49887638,10.7097738 4.49887638,8.50001546 C4.49887638,6.29022623 6.29022623,4.49887638 8.50001546,4.49887638 Z M8.50001546,11.0972222 C9.93441292,11.0972222 11.0972222,9.93441292 11.0972222,8.50001546 C11.0972222,7.06558708 9.93441292,5.90277778 8.50001546,5.90277778 C7.06558708,5.90277778 5.90277778,7.06558708 5.90277778,8.50001546 C5.90277778,9.93441292 7.06558708,11.0972222 8.50001546,11.0972222 Z M13.5942188,4.34079791 C13.5942188,4.85718965 13.1755938,5.27578368 12.6592021,5.27578368 C12.1428413,5.27578368 11.7242163,4.85718965 11.7242163,4.34079791 C11.7242163,3.82440616 12.1428413,3.40578121 12.6592021,3.40578121 C13.1755938,3.40578121 13.5942188,3.82440616 13.5942188,4.34079791 Z"/>
</svg>
