<?xml version="1.0" encoding="UTF-8"?>
<svg width="17px" height="14px" viewBox="0 0 17 14" version="1.1" xmlns="http://www.w3.org/2000/svg" xmlns:xlink="http://www.w3.org/1999/xlink">
    <!-- Generator: Sketch 49.1 (51147) - http://www.bohemiancoding.com/sketch -->
    <title>Twitter</title>
    <desc>Created with Sketch.</desc>
    <defs></defs>
    <g id="Blog" stroke="none" stroke-width="1" fill="none" fill-rule="evenodd">
        <g id="T-Blog-Post" transform="translate(-66.000000, -471.000000)" fill="#001CA8">
            <g id="Blog-post" transform="translate(64.000000, 180.000000)">
                <g id="Share">
                    <path d="M16.3147144,292.11512 C15.6801591,291.428823 14.7732625,291 13.7692308,291 C11.8446853,291 10.2828078,292.582519 10.2828078,294.534203 C10.2828078,294.811413 10.3127653,295.0801 10.3726804,295.338919 C7.47406082,295.191343 4.90452033,293.786005 3.1833231,291.645029 C2.88283983,292.168947 2.71126479,292.776745 2.71126479,293.424017 C2.71126479,294.649483 3.3267562,295.731409 4.26315649,296.365224 C3.69214749,296.348179 3.15336555,296.187594 2.68221504,295.924738 L2.68221504,295.9678 C2.68221504,297.68085 3.88460203,299.109961 5.48143006,299.433373 C5.18911703,299.516356 4.88046351,299.558072 4.56227806,299.558072 C4.33759645,299.558072 4.11836168,299.536542 3.90593544,299.495274 C4.34985181,300.898818 5.63711852,301.921086 7.1635917,301.948448 C5.97028275,302.896703 4.46559688,303.461888 2.83200278,303.461888 C2.5505834,303.461888 2.27234133,303.44574 2,303.413444 C3.54326756,304.414629 5.37748645,305 7.3465143,305 C13.7624222,305 17.2697247,299.615488 17.2697247,294.944635 C17.2697247,294.790779 17.2670013,294.637371 17.2611006,294.486655 C17.9424078,293.988305 18.5342963,293.366153 19,292.657428 C18.3754305,292.938227 17.7027474,293.128416 16.9973834,293.213643 C17.7177262,292.776745 18.2705791,292.084169 18.531119,291.258819 C17.8566203,291.66342 17.1113128,291.957675 16.3147144,292.11512 Z" id="Twitter"></path>
                </g>
            </g>
        </g>
    </g>
</svg>