<?xml version="1.0" encoding="UTF-8"?>
<svg width="32px" height="32px" viewBox="0 0 32 32" version="1.1" xmlns="http://www.w3.org/2000/svg" xmlns:xlink="http://www.w3.org/1999/xlink">
    <!-- Generator: Sketch 49.1 (51147) - http://www.bohemiancoding.com/sketch -->
    <title>Logo / fav icon 32</title>
    <desc>Created with Sketch.</desc>
    <defs></defs>
    <g id="Logo-/-fav-icon-32" stroke="none" stroke-width="1" fill="none" fill-rule="evenodd">
        <g id="Fav-icon">
            <rect id="Rectangle-5" x="0" y="0" width="32" height="32"></rect>
            <g id="Logo" transform="translate(8.975610, 0.780488)" fill="#020303">
                <path d="M1.97814634,9.33190244 C1.97814634,9.33190244 8.84214634,4.95882927 12.6563902,2.52760976 L14.2290732,1.52546341 L14.2290732,0 L8.87570732,3.43960976 C6.76839024,4.78790244 3.47941463,6.89287805 3.02087805,7.184 C1.05170732,8.43395122 0.247804878,9.90712195 0,11.0989268 C0.515902439,10.4679024 1.19804878,9.82712195 1.97814634,9.33190244" id="Fill-36"></path>
                <path d="M14.2130732,7.37131707 L14.2130732,5.85365854 L2.54868293,13.4349268 C1.01502439,14.5389268 0,16.0897561 0,18.0331707 C0,19.7939512 0.834731707,21.36 2.13034146,22.3559024 L14.2130732,30.2126829 L14.2130732,23.6148293 L4.62673171,17.6023415 C4.02107317,17.1949268 3.62302439,16.5030244 3.62302439,15.7186341 C3.62302439,14.9350244 4.02263415,14.2314146 4.62360976,13.8520976 L14.2130732,7.37131707 Z" id="Fill-38"></path>
                <path d="M2.61814634,10.1486829 C0.810146341,11.296 0.121365854,12.5459512 0,13.9964878 C0.21502439,13.6792195 1.2444878,12.6337561 2.40936585,11.8805854 L14.2165854,4.26146341 L14.2165854,2.73170732 C14.2165854,2.73170732 3.0942439,9.84663415 2.61814634,10.1486829" id="Fill-40"></path>
            </g>
        </g>
    </g>
</svg>