<svg xmlns="http://www.w3.org/2000/svg" width="25" height="22" viewBox="0 0 25 22">
  <path fill="none" stroke="#000" stroke-linecap="round" stroke-width="2" d="M11.5,15.8554263 C10.3738672,15.8554263 9.45248587,14.9333624 9.45248587,13.8079122 C9.45248587,12.6817794 10.3738672,11.760398 11.5,11.760398 C12.6261328,11.760398 13.5475141,12.6817794 13.5475141,13.8079122 C13.5475141,14.9333624 12.6261328,15.8554263 11.5,15.8554263 Z M10.1112335,7.66536977 L18.1112335,7.66536977 L10.1112335,7.66536977 Z M16.8337743,7.66536977 L12.3497184,0.949523422 C12.1552045,0.662871444 11.8276023,0.519545455 11.5,0.519545455 C11.1723977,0.519545455 10.8447955,0.662871444 10.6502816,0.959760992 L6.16622569,7.66536977 L1.26242935,7.66536977 C0.699362966,7.66536977 0.238672287,8.12606045 0.238672287,8.68912683 C0.238672287,8.78126497 0.248909857,8.8734031 0.279622569,8.96554124 L2.87996551,18.4557692 C3.11542964,19.3150427 3.90372258,19.9504545 4.84557908,19.9504545 L18.1544209,19.9504545 C19.0962774,19.9504545 19.8845704,19.3150427 20.1302721,18.4557692 L22.730615,8.96554124 L22.7613277,8.68912683 C22.7613277,8.12606045 22.300637,7.66536977 21.7375706,7.66536977 L16.8337743,7.66536977 Z" opacity=".4" transform="translate(1 1)"/>
</svg>
