<?xml version="1.0" encoding="UTF-8"?>
<svg width="1342px" height="683px" viewBox="0 0 1342 683" version="1.1" xmlns="http://www.w3.org/2000/svg" xmlns:xlink="http://www.w3.org/1999/xlink">
    <!-- Generator: Sketch 49.3 (51167) - http://www.bohemiancoding.com/sketch -->
    <title>Pitch</title>
    <desc>Created with Sketch.</desc>
    <defs>
        <polygon id="path-1" points="0 1443.53045 999.149312 1443.53045 999.149312 -1.13686838e-13 0 -1.13686838e-13"></polygon>
    </defs>
    <g id="System---Product-details-" stroke="none" stroke-width="1" fill="none" fill-rule="evenodd" opacity="0.0199999996">
        <g id="D-System" transform="translate(-49.000000, -978.000000)">
            <g id="Pod-intro" transform="translate(49.000000, 861.000000)">
                <g id="Bk-ground-pitch">
                    <g id="Pitch" transform="translate(671.308962, 890.284403) rotate(63.000000) translate(-671.308962, -890.284403) translate(171.308962, 168.284403)">
                        <path d="M499.574067,572.233399 C417.1222,572.233399 350.043615,639.313949 350.043615,721.763851 C350.043615,804.217682 417.1222,871.298232 499.574067,871.298232 C582.027898,871.298232 649.106483,804.217682 649.106483,721.763851 C649.106483,639.313949 582.027898,572.233399 499.574067,572.233399 M499.574067,879.156778 C412.788212,879.156778 342.185069,808.549705 342.185069,721.763851 C342.185069,634.977996 412.788212,564.374853 499.574067,564.374853 C586.359921,564.374853 656.965029,634.977996 656.965029,721.763851 C656.965029,808.549705 586.359921,879.156778 499.574067,879.156778" id="Fill-1" fill="#FFFFFF"></path>
                        <mask id="mask-2" fill="white">
                            <use xlink:href="#path-1"></use>
                        </mask>
                        <g id="Clip-4"></g>
                        <path d="M7.85854617,1435.67191 L991.290766,1435.67191 L991.290766,7.85854617 L7.85854617,7.85854617 L7.85854617,1435.67191 Z M0,1443.53045 L999.149312,1443.53045 L999.149312,-1.13686838e-13 L0,-1.13686838e-13 L0,1443.53045 Z" id="Fill-3" fill="#FFFFFF" mask="url(#mask-2)"></path>
                        <path d="M169.361493,1435.67191 L829.787819,1435.67191 L829.787819,1187.35167 L169.361493,1187.35167 L169.361493,1435.67191 Z M161.502947,1443.53045 L837.646365,1443.53045 L837.646365,1179.49312 L161.502947,1179.49312 L161.502947,1443.53045 Z" id="Fill-6" fill="#FFFFFF" mask="url(#mask-2)"></path>
                        <path d="M499.574067,324.723576 C449.9611,324.723576 404.263654,302.041847 374.20275,262.493713 L380.456189,257.739293 C409.020039,295.314931 452.438507,316.865029 499.574067,316.865029 C546.713556,316.865029 590.132024,295.311002 618.697839,257.733399 L624.951277,262.487819 C594.890373,302.039882 549.190963,324.723576 499.574067,324.723576" id="Fill-8" fill="#FFFFFF" mask="url(#mask-2)"></path>
                        <path d="M169.361493,256.176817 L829.787819,256.176817 L829.787819,7.85854617 L169.361493,7.85854617 L169.361493,256.176817 Z M161.502947,264.035363 L837.646365,264.035363 L837.646365,-1.13686838e-13 L161.502947,-1.13686838e-13 L161.502947,264.035363 Z" id="Fill-9" fill="#FFFFFF" mask="url(#mask-2)"></path>
                        <path d="M347.569745,89.1060904 L651.577603,89.1060904 L651.577603,7.86051081 L347.569745,7.86051081 L347.569745,89.1060904 Z M339.711198,96.9646365 L659.436149,96.9646365 L659.436149,0.00196463654 L339.711198,0.00196463654 L339.711198,96.9646365 Z" id="Fill-10" fill="#FFFFFF" mask="url(#mask-2)"></path>
                        <polygon id="Fill-11" fill="#FFFFFF" mask="url(#mask-2)" points="3.92927308 725.693517 995.220039 725.693517 995.220039 717.834971 3.92927308 717.834971"></polygon>
                        <path d="M3.92927308,35.7033399 L3.92927308,27.8447937 C17.1159136,27.8447937 27.8447937,17.1159136 27.8447937,3.92927308 L35.7033399,3.92927308 C35.7033399,21.4499018 21.4499018,35.7033399 3.92927308,35.7033399" id="Fill-12" fill="#FFFFFF" mask="url(#mask-2)"></path>
                    </g>
                </g>
            </g>
        </g>
    </g>
</svg>