<?xml version="1.0" encoding="UTF-8"?>
<svg width="1024px" height="679px" viewBox="0 0 1024 679" version="1.1" xmlns="http://www.w3.org/2000/svg" xmlns:xlink="http://www.w3.org/1999/xlink">
    <!-- Generator: Sketch 49.3 (51167) - http://www.bohemiancoding.com/sketch -->
    <title>Pitch</title>
    <desc>Created with Sketch.</desc>
    <defs>
        <polygon id="path-1" points="0 1010.67125 699.404519 1010.67125 699.404519 -1.13686838e-13 0 -1.13686838e-13"></polygon>
    </defs>
    <g id="Playr-menus" stroke="none" stroke-width="1" fill="none" fill-rule="evenodd" opacity="0.0299999993">
        <g id="T-menu-overlay" transform="translate(0.000000, -89.000000)">
            <g id="Menu-back-ground">
                <g id="Pitch" transform="translate(551.000000, 630.500000) rotate(63.000000) translate(-551.000000, -630.500000) translate(201.000000, 125.000000)">
                    <path d="M349.701847,400.642636 C291.98554,400.642636 245.03053,447.608312 245.03053,505.334663 C245.03053,563.063765 291.98554,610.029441 349.701847,610.029441 C407.419528,610.029441 454.374538,563.063765 454.374538,505.334663 C454.374538,447.608312 407.419528,400.642636 349.701847,400.642636 M349.701847,615.531511 C288.951749,615.531511 239.529548,566.096781 239.529548,505.334663 C239.529548,444.572544 288.951749,395.140565 349.701847,395.140565 C410.451945,395.140565 459.875521,444.572544 459.875521,505.334663 C459.875521,566.096781 410.451945,615.531511 349.701847,615.531511" id="Fill-1" fill="#FFFFFF"></path>
                    <mask id="mask-2" fill="white">
                        <use xlink:href="#path-1"></use>
                    </mask>
                    <g id="Clip-4"></g>
                    <path d="M5.50098232,1005.16918 L693.903536,1005.16918 L693.903536,5.50207076 L5.50098232,5.50207076 L5.50098232,1005.16918 Z M0,1010.67125 L699.404519,1010.67125 L699.404519,-1.13686838e-13 L0,-1.13686838e-13 L0,1010.67125 Z" id="Fill-3" fill="#FFFFFF" mask="url(#mask-2)"></path>
                    <path d="M266.316857,830.2219 L261.938075,826.893147 C282.982083,799.201225 314.970295,783.319498 349.702122,783.319498 C384.432574,783.319498 416.419411,799.199849 437.462043,826.88902 L433.084637,830.217773 C413.091316,803.909622 382.698389,788.821568 349.702122,788.821568 C316.704479,788.821568 286.311552,803.912373 266.316857,830.2219" id="Fill-5" fill="#FFFFFF" mask="url(#mask-2)"></path>
                    <path d="M118.553045,1005.16918 L580.851473,1005.16918 L580.851473,831.310622 L118.553045,831.310622 L118.553045,1005.16918 Z M113.052063,1010.67125 L586.352456,1010.67125 L586.352456,825.808551 L113.052063,825.808551 L113.052063,1010.67125 Z" id="Fill-6" fill="#FFFFFF" mask="url(#mask-2)"></path>
                    <path d="M243.298821,1005.16918 L456.104322,1005.16918 L456.104322,948.286022 L243.298821,948.286022 L243.298821,1005.16918 Z M237.797839,1010.67125 L461.605305,1010.67125 L461.605305,942.783951 L237.797839,942.783951 L237.797839,1010.67125 Z" id="Fill-7" fill="#FFFFFF" mask="url(#mask-2)"></path>
                    <path d="M349.701847,227.351479 C314.97277,227.351479 282.984558,211.471127 261.941925,183.781956 L266.319332,180.453203 C286.314028,206.761354 316.706955,221.849408 349.701847,221.849408 C382.699489,221.849408 413.092417,206.758603 433.088487,180.449076 L437.465894,183.777829 C416.423261,211.469751 384.433674,227.351479 349.701847,227.351479" id="Fill-8" fill="#FFFFFF" mask="url(#mask-2)"></path>
                    <path d="M118.553045,179.359254 L580.851473,179.359254 L580.851473,5.50207076 L118.553045,5.50207076 L118.553045,179.359254 Z M113.052063,184.861324 L586.352456,184.861324 L586.352456,-1.13686838e-13 L113.052063,-1.13686838e-13 L113.052063,184.861324 Z" id="Fill-9" fill="#FFFFFF" mask="url(#mask-2)"></path>
                    <path d="M243.298821,62.3866048 L456.104322,62.3866048 L456.104322,5.50344628 L243.298821,5.50344628 L243.298821,62.3866048 Z M237.797839,67.8886756 L461.605305,67.8886756 L461.605305,0.00137551769 L237.797839,0.00137551769 L237.797839,67.8886756 Z" id="Fill-10" fill="#FFFFFF" mask="url(#mask-2)"></path>
                    <polygon id="Fill-11" fill="#FFFFFF" mask="url(#mask-2)" points="2.75049116 508.085973 696.654028 508.085973 696.654028 502.583902 2.75049116 502.583902"></polygon>
                    <path d="M2.75049116,24.997283 L2.75049116,19.4952122 C11.9811395,19.4952122 19.4913556,11.9835101 19.4913556,2.75103538 L24.9923379,2.75103538 C24.9923379,15.0179021 15.0149312,24.997283 2.75049116,24.997283" id="Fill-12" fill="#FFFFFF" mask="url(#mask-2)"></path>
                </g>
            </g>
        </g>
    </g>
</svg>