<?xml version="1.0" encoding="UTF-8"?>
<svg width="400px" height="400px" viewBox="0 0 400 400" version="1.1" xmlns="http://www.w3.org/2000/svg" xmlns:xlink="http://www.w3.org/1999/xlink">
    <!-- Generator: Sketch 52.2 (67145) - http://www.bohemiancoding.com/sketch -->
    <title>Ajax</title>
    <desc>Created with Sketch.</desc>
    <defs>
        <polygon id="path-1" points="0 0.524621011 404.475379 0.524621011 404.475379 404.729282 0 404.729282"></polygon>
    </defs>
    <g id="Ajax" stroke="none" stroke-width="1" fill="none" fill-rule="evenodd">
        <g id="ajax-beeldmerk-cmyk" transform="translate(-1.000000, 1.000000)">
            <g id="Group-3">
                <mask id="mask-2" fill="white">
                    <use xlink:href="#path-1"></use>
                </mask>
                <g id="Clip-2"></g>
                <path d="M404.475379,202.760055 C404.475379,314.462848 313.933715,405 202.235434,405 C90.5461755,405 0,314.462848 0,202.760055 C0,91.0617726 90.5461755,0.524621011 202.235434,0.524621011 C313.933715,0.524621011 404.475379,91.0617726 404.475379,202.760055" id="Fill-1" fill="#FFFFFE" mask="url(#mask-2)"></path>
            </g>
            <path d="M96.2014098,262.221043 C94.847233,262.363009 93.8760557,263.567433 94.0128412,264.927562 C94.1450672,266.283112 95.3533395,267.272297 96.7075163,267.139489 C96.7987066,267.13033 105.311326,266.292271 113.668923,268.179049 C122.591899,270.194055 134.902597,274.530898 140.788934,276.967224 L141.769231,277.370225 C164.452832,286.781219 169.48198,287.220857 171.665989,284.656304 C175.600853,280.053846 169.76467,274.640807 167.845113,272.873098 C166.846579,271.943447 165.296343,272.002981 164.361641,273.005905 C163.937606,273.477599 163.723309,274.086681 163.723309,274.677444 C163.723309,275.350639 163.987761,276.010096 164.507546,276.500108 C167.471233,279.229526 168.022934,280.511802 168.041172,281.079668 C166.231044,281.107145 160.677551,279.870664 143.647752,272.799825 L142.667456,272.401403 C136.612416,269.896384 123.950635,265.435893 114.73585,263.361353 C105.580338,261.295972 96.5844093,262.184406 96.2014098,262.221043" id="Fill-4" fill="#1A1919"></path>
            <path d="M196.94901,247.232387 C196.944455,247.282954 196.402347,252.385603 194.08814,257.38712 C191.632711,262.710424 183.414542,277.135753 183.327987,277.282857 C182.804102,278.197656 182.91799,279.346902 183.596763,280.142179 C184.289203,280.946651 185.400752,281.213276 186.366523,280.822533 C186.462189,280.78116 196.220126,276.855337 199.459105,275.986508 L212.451465,272.70886 C213.758901,272.354892 214.237231,271.06314 213.891012,269.734613 C213.572125,268.406085 212.629131,267.65218 211.294362,267.900417 L198.224557,271.187259 C196.60279,271.623972 193.714587,272.672084 190.999493,273.697211 C193.614365,268.985305 197.040121,262.738006 198.538889,259.48794 C201.212983,253.695743 201.809756,247.977098 201.83709,247.733458 C201.83709,247.636921 201.841645,247.563369 201.841645,247.480624 C201.841645,246.225648 200.903207,245.145357 199.632215,245.012044 C198.288335,244.878732 197.085676,245.867083 196.94901,247.232387" id="Fill-5" fill="#1A1919"></path>
            <path d="M151.09,297.79864 C150.722691,299.086199 151.513102,300.418778 152.852151,300.774433 C152.903295,300.787939 158.505915,302.305098 162.378929,306.338851 C164.50374,308.567319 166.507664,312.866688 167.116746,315.585869 C167.646786,317.872863 167.981548,322.67645 167.990847,322.730474 C168.083837,324.067555 169.278752,325.080495 170.664297,324.994958 C172.045191,324.900417 173.091323,323.743414 172.993684,322.401831 C172.979736,322.194741 172.626376,317.179562 172.012645,314.532411 C171.245481,311.16945 168.897495,305.996702 166.056665,303.034415 C161.170065,297.951706 154.432973,296.150924 154.154005,296.083395 C152.814955,295.736744 151.44336,296.502076 151.09,297.79864" id="Fill-6" fill="#1A1919"></path>
            <path d="M280.180429,262.715723 C277.604053,265.483151 278.41622,271.644511 283.068136,284.697399 C284.751128,289.398422 283.785551,292.859961 283.149353,293.202509 C282.287553,293.662245 279.47655,292.585021 277.342354,290.164648 C277.315282,290.12859 277.28821,290.106054 277.261137,290.069996 C270.371248,282.975644 266.693933,280.780631 263.6844,281.988564 C260.255248,283.35425 257.696919,292.508399 256.474156,297.840431 C254.466297,306.602453 252.97281,308.914653 252.192227,309.514112 C251.398107,307.850951 250.816054,302.902031 250.816054,297.74578 C250.816054,296.740671 250.843126,295.731056 250.897271,294.734962 C250.897271,294.716933 250.901783,294.541151 250.901783,294.234661 C250.901783,291.485261 250.649108,278.657734 246.425836,277.129789 C242.031106,275.529728 235.087072,282.709718 235.01488,282.786341 C233.571026,284.345836 226.112619,292.706716 220.323668,303.510505 C214.931777,313.575111 210.347541,326.204321 210.144499,326.731664 C209.688783,328.002698 210.347541,329.39092 211.606401,329.855163 C212.869773,330.310391 214.268507,329.656846 214.728735,328.394826 C214.764831,328.264117 219.398699,315.544763 224.614621,305.800169 C230.24565,295.293856 237.771738,286.978049 238.59293,286.067592 C240.239825,284.282735 243.050828,282.385199 244.445049,281.880391 C245.248193,283.90413 246.046825,289.668855 246.046825,293.504493 C246.046825,293.86507 246.046825,294.198603 246.019752,294.514108 C246.006216,295.140611 245.961096,296.398123 245.961096,297.984662 C245.961096,302.834423 246.36718,310.785146 249.024773,313.412851 C249.854989,314.224149 250.901783,314.652334 251.989185,314.598248 C257.259251,314.332322 259.44308,306.706119 261.225337,298.926669 C262.687239,292.517413 264.591321,287.861462 265.552386,286.612964 C266.283337,286.833818 268.422045,287.947099 273.773328,293.450406 C273.746256,293.423363 273.701135,293.396319 273.683087,293.364769 C276.7603,296.889409 281.818301,299.440492 285.459519,297.479854 C287.873462,296.186284 288.870624,293.175466 288.870624,289.817593 C288.870624,287.595537 288.437467,285.211221 287.679444,283.070295 C284.241268,273.492468 283.582509,269.206109 283.582509,267.322094 C283.582509,266.483753 283.713359,266.141204 283.785551,266.001481 C285.30611,264.423956 288.613437,264.469028 294.763352,266.181769 C301.057651,267.930568 308.705564,270.580809 308.768733,270.603345 C310.027593,271.045052 311.421814,270.377984 311.868506,269.111458 C312.301662,267.844931 311.629368,266.456709 310.370508,266.01951 C310.054665,265.902322 302.510529,263.288139 296.058308,261.494268 C289.980586,259.808571 283.862256,258.78994 280.180429,262.715723" id="Fill-7" fill="#1A1919"></path>
            <path d="M249.291007,261.401767 C248.62327,264.666557 249.107267,267.517435 250.716109,269.875339 C252.844798,272.991307 256.658514,274.530688 259.522162,274.925997 C262.699512,275.363163 269.107989,273.842385 271.075346,270.921746 C272.500448,268.805679 273.764218,264.592146 273.903143,264.117775 C274.270622,262.792326 273.562553,261.392466 272.285339,260.987855 C271.012606,260.587895 269.677133,261.332007 269.273803,262.657456 C268.825657,264.145679 267.862145,266.926797 267.127187,268.033663 C266.446006,268.870788 262.305144,270.252046 260.16301,269.94975 C258.724464,269.754421 255.977334,268.903343 254.655305,266.973304 C253.848644,265.787376 253.638016,264.303803 254.02342,262.42027 C255.143783,256.830131 261.14893,256.988255 261.834592,257.02546 C263.161102,257.099872 264.308353,256.044163 264.38902,254.662906 C264.460723,253.281649 263.452396,252.100371 262.121405,252.021309 C258.392836,251.784124 250.890885,253.439772 249.291007,261.401767" id="Fill-8" fill="#1A1919"></path>
            <path d="M135.636757,177.218023 C135.589189,177.29349 131.714595,184.382966 130.252973,186.553757 C129.033514,188.36053 124,198.535281 124,200.785979 C124,202.712612 124.864865,204.208638 136.112432,205.971018 C137.383784,206.175224 138.581622,205.278496 138.771892,203.968918 C138.789189,203.844619 138.797838,203.72476 138.797838,203.6049 C138.797838,202.441818 137.971892,201.42523 136.812973,201.238782 C134.092973,200.812615 130.901622,200.160045 129.137297,199.636214 C130.235676,196.803976 132.947027,190.966367 134.084324,189.279454 C135.675676,186.922214 139.537297,179.868253 139.701622,179.566384 C139.900541,179.193487 140,178.793955 140,178.398862 C140,177.555406 139.567568,176.747463 138.802162,176.307977 C137.682162,175.659848 136.263784,176.068258 135.636757,177.218023" id="Fill-9" fill="#1A1919"></path>
            <path d="M149.2261,162.688025 C143.219406,168.452368 143.219406,170.184846 143.219406,170.928632 C143.219406,173.867494 146.411743,175.772313 149.412813,176.067106 L150.738019,176.139671 C154.809273,176.330152 156.394057,176.738328 156.981519,177.087544 C156.995181,177.609102 157.036167,178.842699 157.036167,178.842699 C157.058937,179.418679 157.086261,180.185142 157.086261,180.892646 C157.086261,181.278145 157.077153,181.631897 157.049829,181.935761 C156.312085,181.772491 155.282887,181.450486 154.581574,181.232792 C152.031348,180.439118 150.018491,179.813249 148.37906,180.634135 C146.379865,181.622826 146.129396,183.967567 145.760524,187.514157 C145.532826,189.677487 145.250479,192.366909 144.553721,195.21053 C144.244051,196.48948 144.111985,197.904488 144.111985,199.337637 C144.111985,203.038427 145.031888,206.811781 146.2478,208.426341 C146.2478,208.426341 146.666765,208.97511 146.753291,209.088492 C145.610243,209.133845 143.123773,208.993252 136.843841,207.968278 C135.509526,207.750584 134.248075,208.657641 134.034038,209.986478 C133.810893,211.315316 134.708027,212.571589 136.046895,212.793818 C145.883482,214.394772 147.764274,214.122655 149.367273,213.564816 L149.526662,213.510392 L149.508446,213.510392 C151.352806,213.211064 152.054118,212.081778 152.313695,211.437768 C152.482192,211.020522 152.545947,210.612347 152.545947,210.217778 C152.545947,208.598682 151.384684,207.083898 150.423795,205.814019 L150.17788,205.487479 C149.768023,204.920569 148.993847,202.226611 148.993847,199.355778 C148.993847,198.353481 149.094034,197.328507 149.321733,196.371562 C150.105017,193.2014 150.405579,190.330567 150.642386,188.026644 C150.747127,187.096911 150.860977,186.040191 150.988488,185.291869 C151.662476,185.455139 152.509516,185.709115 153.115194,185.904132 C155.137159,186.530001 157.049829,187.128658 158.593627,186.842935 C161.521833,186.316843 162,183.446009 162,180.693093 C162,179.981054 161.968122,179.27355 161.936244,178.615934 L161.881597,176.69751 C161.881597,171.763124 154.777395,171.441119 150.961164,171.255172 L149.900088,171.200749 C149.330841,171.14179 148.834458,170.955844 148.474694,170.778968 C149.239761,169.722247 150.901962,167.867317 152.623365,166.207404 C153.119748,165.726664 153.379325,165.091724 153.379325,164.447714 C153.379325,163.839987 153.147072,163.223188 152.687121,162.751519 C151.749002,161.771898 150.196096,161.749222 149.2261,162.688025" id="Fill-10" fill="#1A1919"></path>
            <path d="M129.786603,151.33252 C128.340693,153.592853 129.155988,156.507375 130.097406,158.551149 C131.354132,161.267158 135.840508,164.515542 137.187322,165.440428 C138.286394,166.202896 139.79987,165.927686 140.561112,164.822333 C140.853898,164.40275 140.993534,163.915493 140.993534,163.446282 C140.993534,162.670279 140.628678,161.907812 139.948515,161.434089 C137.696318,159.882084 134.975664,157.536029 134.502703,156.511886 C133.993707,155.39751 133.85407,154.603461 133.85407,154.18839 C133.85407,154.102669 133.872088,154.053041 133.881097,153.994389 C133.984698,153.949273 134.250457,153.863552 134.813506,153.863552 C138.673771,153.863552 145.358291,155.059137 155.254444,160.716738 C165.137083,166.365315 189.938273,182.98621 203.951441,194.360062 C218.415049,206.099358 231.306623,217.301769 237.558721,223.572953 C241.792851,227.813898 248.153054,234.175315 248.153054,236.169462 C248.153054,236.196531 248.153054,236.237136 248.135037,236.264206 C248.053958,237.085325 248.03594,237.256768 245.207181,238.16812 L243.491007,238.732075 C238.617253,240.441988 236.135332,242.83767 236.135332,245.869495 C236.135332,246.830475 236.441631,247.980944 236.774956,249.31639 C237.031707,250.33151 237.522686,252.248959 237.522686,253.29566 C237.522686,253.525754 237.491155,253.706219 237.446111,253.823522 C236.662347,254.933386 234.910137,254.978503 232.500287,254.910828 C231.153473,254.874735 229.87873,254.838642 228.743623,255.19055 C227.83824,255.46576 226.914839,255.993623 225.928377,256.539531 C224.477962,257.351627 222.279818,258.587817 221.496054,257.956187 C220.622201,257.243348 220.194284,256.047762 220.194284,254.28371 C220.194284,253.146776 220.378964,251.775236 220.730307,250.142021 L221.662716,246.388334 C222.261801,244.132512 222.689718,242.476739 222.689718,241.163851 C222.689718,240.496128 222.586117,239.918637 222.311349,239.399798 C221.671725,238.095933 220.26185,237.541001 216.852024,236.291276 C215.311522,235.72732 212.46024,234.676108 211.83413,234.094106 C211.343151,233.439917 211.041357,232.072889 211.041357,230.39907 C211.041357,229.911812 211.068383,229.406508 211.104418,228.887669 C211.244054,227.412362 212.027819,223.979001 212.302587,222.783416 C212.338622,222.589415 212.379161,222.404438 212.379161,222.205925 C212.379161,221.109596 211.631432,220.112523 210.514343,219.846336 C209.203564,219.530521 207.910803,220.338105 207.595496,221.646482 C207.464868,222.120204 206.478406,226.352126 206.284717,228.445528 C206.221656,229.063623 206.176612,229.735858 206.176612,230.439674 C206.176612,232.749636 206.600025,235.339319 208.050439,237.171046 C209.167529,238.578679 211.482787,239.508078 215.17639,240.857059 C215.969163,241.145804 217.036704,241.542829 217.757407,241.849621 C217.599753,242.720368 217.252915,244.069349 216.964634,245.14312 L215.987181,249.108855 C215.739439,250.214207 215.329539,252.109098 215.329539,254.193477 C215.329539,256.819253 215.987181,259.733775 218.433066,261.732433 C221.784335,264.452954 225.86982,262.152016 228.315705,260.784988 C229.0274,260.383452 229.757111,259.96838 230.171516,259.842054 C230.531867,259.729263 231.54986,259.756333 232.378668,259.778891 C235.085809,259.851078 239.171294,259.963869 241.46403,256.566601 C243.040568,254.261151 242.211759,250.999233 241.473039,248.116293 C241.27935,247.322244 241.000077,246.221403 241.000077,245.869495 C241.000077,245.576238 241.756816,244.502467 245.108084,243.324928 L246.657596,242.801577 C249.391762,241.935342 252.490785,240.94278 252.963746,236.828161 C253.441212,232.799264 249.189065,228.332737 241.000077,220.139593 C234.630865,213.746594 221.599655,202.422369 207.00542,190.574794 C192.825589,179.070103 167.682065,162.223627 157.65979,156.484816 C146.840237,150.303865 139.263847,149 134.813506,149 C131.890155,149 130.466766,150.267772 129.786603,151.33252" id="Fill-11" fill="#1A1919"></path>
            <path d="M198.43157,222.696151 C198.136166,220.899553 197.800479,218.868223 197.733342,217.50949 L197.755721,214.327074 C197.7781,213.52357 197.800479,212.787778 197.800479,212.106154 C197.800479,209.822037 197.527454,208.147319 196.126521,207.203879 C196.126521,207.203879 194.944903,206.459058 193.664817,205.596872 C192.295215,204.671489 191.579083,203.421092 192.4832,201.281426 C192.715943,200.482436 193.964698,197.403844 194.689781,195.652386 C194.828532,195.34543 194.891193,195.024931 194.891193,194.704433 C194.891193,193.950584 194.537603,193.205763 193.893085,192.7363 L181.566665,183.681086 L175.349745,179 C175.349745,179 176.723823,199.146273 176.849146,200.780364 C175.703335,202.315147 173.174494,205.754864 172.409128,207.14971 C171.357309,209.063674 169.853433,210.19219 167.825884,210.607484 L160.082708,212.024901 C158.986131,212.191921 157.773183,213.505514 158.010402,214.837163 C158.243144,216.15527 159.57694,216.882035 160.870453,216.83238 L168.770283,215.374337 C172.180861,214.688199 174.888735,212.661384 176.62983,209.51508 C177.216163,208.445247 179.767383,204.946846 181.235454,202.987742 C181.557713,202.558906 181.73227,202.044303 181.73227,201.520671 C181.73227,201.461988 181.73227,201.398791 181.727794,201.344622 C181.727794,201.344622 181.21755,194.293653 180.855009,189.179217 C184.440144,191.806403 187.864149,194.320737 189.515728,195.539535 C188.884637,197.069803 188.08794,199.083076 187.84177,199.949776 C187.586648,200.843561 187.121162,202.215837 187.058501,203.615197 C186.995839,205.199634 187.908908,207.379928 189.743995,208.765746 C189.743995,208.765746 191.386623,209.849121 192.228078,210.413379 C192.818887,210.675195 192.975541,211.596064 192.975541,212.092612 C192.975541,212.769721 192.948686,213.541627 192.921831,214.151025 L192.908403,217.793876 C192.99792,219.405397 193.360461,221.576663 193.673769,223.486112 C193.857278,224.632685 194.085545,226.095242 194.148207,226.785894 C193.816996,227.305011 193.05163,228.352274 192.389208,229.255087 C190.384038,231.977069 187.635882,235.723743 186.02011,239.217629 L184.158167,243.43828 C183.177961,245.740453 181.94711,248.615913 181.27126,249.08989 C180.362668,249.613521 175.962933,250.430567 173.3401,250.9226 L168.649436,251.857012 C166.080313,252.439326 162.790582,253.802574 160.14537,254.899491 C158.968228,255.396039 157.535964,255.987381 157.030196,256.127317 C156.358822,256.100233 154.259661,255.414095 152.854252,254.95366 C150.938599,254.330719 148.758873,253.622011 146.861123,253.269914 C145.209544,252.967472 144.878333,252.904275 144.878333,251.929237 C144.878333,251.680963 144.896237,251.378521 144.932043,250.994825 C144.940995,250.877459 144.940995,250.75558 144.940995,250.642728 C144.940995,248.006514 142.832882,245.361272 138.348106,242.336848 C136.342936,240.987143 133.066633,237.854381 132.838366,235.186569 C132.83389,235.100802 132.83389,235.006006 132.83389,234.915725 C132.83389,232.708347 134.991237,230.239154 136.736809,228.239423 L138.200403,226.506022 C139.100044,225.345907 139.440207,224.158708 139.440207,223.030191 C139.440207,222.840601 139.386497,222.669066 139.373069,222.48399 C141.651264,222.623926 143.978693,222.768376 143.978693,222.768376 C145.303537,222.854143 146.449348,221.833964 146.529912,220.493287 C146.610477,219.15261 145.598941,217.992495 144.269621,217.915756 L135.734224,217.374068 C134.740591,217.306357 133.827523,217.879643 133.411272,218.78697 C133.259093,219.116497 133.183004,219.459566 133.183004,219.807149 C133.183004,220.43009 133.424699,221.039489 133.86333,221.504437 C133.952846,221.599233 134.588413,222.289885 134.588413,222.948938 C134.588413,223.138529 134.539179,223.32812 134.395953,223.499654 L133.111391,225.01638 C130.936141,227.508144 128,230.871123 128,234.902183 C128,235.1324 128.013427,235.37616 128.026855,235.610891 C128.532623,241.438549 134.942003,245.90296 135.662611,246.394993 C139.963878,249.27948 140.107105,250.642728 140.116056,250.665298 C140.084725,251.021909 140.071298,251.383035 140.071298,251.735132 C140.071298,254.574479 141.069407,257.15201 145.997289,258.059337 C147.577255,258.348237 149.591376,259.002777 151.363803,259.585091 C154.707243,260.677495 156.515476,261.232725 157.974595,260.907712 C158.771292,260.731664 159.952909,260.244145 161.975982,259.404528 C164.460064,258.375322 167.548383,257.102355 169.723634,256.601294 L174.217361,255.712023 C179.172099,254.782126 182.287272,254.159185 183.755343,253.269914 C185.720229,252.082715 186.857089,249.410388 188.598184,245.3703 L190.397466,241.271529 C191.802875,238.233563 194.389901,234.72162 196.265271,232.144089 C198.216731,229.498847 198.776209,228.695343 198.94629,227.738361 C198.991048,227.535229 199,227.314039 199,227.056738 C199,226.22615 198.80754,225.007352 198.43157,222.696151" id="Fill-12" fill="#1A1919"></path>
            <path d="M214.497136,114.30637 C207.189382,116.946484 198.148349,121.917181 191.851674,125.622444 C184.07449,130.197124 174.898045,135.058574 169.535716,137.439229 C163.464728,140.143069 154.179953,143.115473 152.460216,143.092714 C151.119633,143.079058 150.009252,144.162415 150.000224,145.514335 C149.982169,146.875359 151.056441,147.99058 152.406051,147.999684 C155.696571,148.040651 166.642405,144.094136 171.503709,141.931974 C177.010478,139.483041 186.381014,134.521448 194.302638,129.855729 C203.086387,124.702956 210.628856,120.915758 216.14014,118.926569 C222.355568,116.668817 229.126186,114.506654 237.250928,114.97095 C245.786421,115.458006 248.54432,116.591434 251.708456,117.902387 C255.071196,119.281619 260.243949,122.445203 260.298114,122.472515 C261.46266,123.178063 262.952196,122.804805 263.647313,121.639513 C264.34243,120.487878 263.98133,118.981192 262.816784,118.275644 C262.600124,118.139087 257.264877,114.889016 253.572633,113.355019 C249.663729,111.739087 246.210713,110.56014 237.517239,110.068532 C228.489748,109.558717 220.906655,111.984891 214.497136,114.30637" id="Fill-13" fill="#1A1919"></path>
            <path d="M65.2565244,158.633883 L62.7538318,167.820921 L50.0088028,159.102331 L50.035522,158.993178 L65.2565244,158.633883 Z M73.0763256,187 L75.7883181,177.07618 L68.9170464,172.005117 L72.6755385,158.256396 L81.0787075,157.706083 L84,147 L44.2686413,150.897669 L41,162.872655 L73.0763256,187 Z" id="Fill-14" fill="#1A1919"></path>
            <path d="M90.5197638,146 C91.6625339,144.334934 92.8143023,140.825279 93.1202408,139.003131 C93.606143,136.081411 93.8850869,133.011585 88.8595977,129.492955 L62,111.19069 L67.7543426,103 L97.0884426,123.034652 C103.706612,127.657343 106.437562,133.949588 101.394077,141.3055 C100.341288,142.835925 98.9600662,144.851059 98.9600662,144.851059 L90.5197638,146" id="Fill-15" fill="#1A1919"></path>
            <path d="M120.898221,83.1700361 L113.21281,88.6869812 L108.485761,73.9376892 L108.571708,73.8747925 L120.898221,83.1700361 Z M109.535211,110 L117.840341,104.033792 L115.515267,95.8077937 L127.027552,87.5368688 L134.043487,92.3933978 L143,85.9554644 L109.010486,64 L99,71.1926946 L109.535211,110 Z" id="Fill-16" fill="#1A1919"></path>
            <polyline id="Fill-17" fill="#1A1919" points="159.672604 60.0274136 145 45.3805125 156.248254 42.6182956 165.229936 53.090584 168.538508 39.5923719 179.105455 37 172.737678 56.818236 189 73.0518474 177.493472 75.8811085 167.238235 64.2333135 163.560065 79.3092968 152.619067 82 159.672604 60.0274136"></polyline>
            <polyline id="Fill-18" fill="#1A1919" points="264.591273 331.196866 264.54675 331.218438 265.851291 343.583106 263.936776 344.415758 255.450579 335.161671 255.41496 335.178928 260.388246 345.947321 257.957257 347 252 334.091735 255.998219 332.348774 263.487088 340.670981 263.522707 340.658038 262.146928 329.686876 266.060552 328 272 340.908265 269.564559 341.969573 264.591273 331.196866"></polyline>
            <path d="M280.175556,333.866061 C280.787477,333.875142 282.051226,333.729852 283.257331,332.953462 C284.228422,332.31328 284.782698,331.187287 283.993409,329.925085 C283.439133,329.026107 282.685318,328.958002 281.204293,329.057889 L279.65232,329.144154 C278.016097,329.248581 276.623756,328.76731 275.626059,327.141884 C274.233718,324.889898 275.315664,322.547106 277.377571,321.212259 C278.685662,320.367764 279.811951,320.118048 280.224333,320 L281.306279,321.99773 C280.63228,322.133939 279.714399,322.270148 278.676794,322.951192 C277.532768,323.677639 277.342097,324.667423 277.869768,325.53462 C278.459518,326.479001 279.297583,326.433598 280.224333,326.383655 L282.020187,326.288309 C283.975673,326.174801 285.155172,326.528944 286.237119,328.295119 C287.820131,330.860386 286.800263,333.23496 284.459001,334.751419 C283.230726,335.550511 282.166516,335.981839 281.306279,336 L280.175556,333.866061" id="Fill-19" fill="#1A1919"></path>
            <polyline id="Fill-20" fill="#1A1919" points="288.966969 314.316735 286.364637 316.336476 285 314.67914 292.330959 309 293.677461 310.657336 291.093264 312.659399 299 322.347083 296.873705 324 288.966969 314.316735"></polyline>
            <polyline id="Fill-21" fill="#1A1919" points="298 305.48236 303.497758 300 305.004484 301.530906 301.44843 305.112052 304.188341 307.907423 307.569507 304.534011 309.076233 306.073949 305.704036 309.442845 308.762332 312.549817 312.475336 308.82416 314 310.368614 308.367713 316 298 305.48236"></polyline>
            <path d="M240.685757,347.364705 L240.803713,340.116711 L240.844543,340.107634 L244.505702,346.293617 L240.685757,347.364705 Z M247.590693,351.331359 L250.317281,350.577967 L241.697453,337.520686 L238.825689,338.324002 L238,354 L240.64039,353.264762 L240.712978,349.529572 L245.63989,348.154405 L247.590693,351.331359 Z M316.508491,295.485047 L313.078706,292.748328 L313.781903,291.876935 C314.734621,290.674231 315.632898,290.247611 316.962166,291.309622 C318.123574,292.258169 318.114501,293.488104 317.198077,294.627269 L316.508491,295.485047 Z M321.353742,302.878273 L323.064097,300.740636 L318.069133,296.737674 L318.459294,296.26567 C319.085366,295.47597 319.815783,295.167351 320.972655,295.621202 L325.663656,297.495605 L327.469283,295.235429 L321.834637,293.202178 C320.450928,292.702943 319.865687,293.025177 319.466453,293.401873 L319.407475,293.365565 C320.246774,291.904166 319.992716,290.147764 318.486515,288.931445 C316.358778,287.224967 314.312703,287.873973 312.652252,289.934454 L309.748731,293.56072 L321.353742,302.878273 Z M323.091318,278.996656 L323.581287,278.216033 C325.191834,275.592777 327.691584,275.515622 330.472613,277.226639 C333.249105,278.933117 334.292558,281.211447 332.682011,283.825626 L332.210189,284.610787 L323.091318,278.996656 Z M332.545909,288.019205 L334.58291,284.728788 C336.756014,281.206908 336.252435,277.390025 331.987888,274.76223 C327.805003,272.175282 324.361608,272.960443 321.920836,276.913482 L319.883834,280.226591 L332.545909,288.019205 Z M338.352951,266.1073 L332.881628,261.355484 L332.899775,261.314638 L339.999792,262.499188 L338.352951,266.1073 Z M345.829518,263.393273 L347,260.833556 L331.475235,259 L330.223092,261.714026 L341.682927,272.447592 L342.817115,269.960491 L340.017939,267.500621 L342.141139,262.848653 L345.829518,263.393273 Z" id="Fill-22" fill="#1A1919"></path>
            <polyline id="Fill-23" fill="#1A1919" points="340.767714 237.268431 340.750183 237.313327 351.168006 244.613422 350.60263 246.642722 338.028488 246.965974 338.019722 247.01087 349.542001 250.413989 348.805698 253 335 248.918951 336.187728 244.662807 347.403214 244.487713 347.429511 244.451796 338.028488 238.125945 339.194302 234 353 238.085539 352.272462 240.67604 340.767714 237.268431"></polyline>
            <path d="M61,203 C61,280.744383 124.586739,344 202.742613,344 C211.223558,344 219.722597,343.248564 228,341.76819 L227.782888,340.548794 C219.573332,342.015669 211.155711,342.758106 202.742613,342.758106 C125.274261,342.758106 62.2438721,280.060442 62.2438721,203 L61,203" id="Fill-24" fill="#D91E47"></path>
            <path d="M204,61.2438846 C281.064941,61.2438846 343.762605,124.042028 343.762605,201.23498 C343.762605,209.477968 343.042667,217.734477 341.625287,225.783672 L342.840184,226 C344.280061,217.883203 345,209.545571 345,201.23498 C345,123.35699 281.753383,60 204,60 L204,61.2438846" id="Fill-25" fill="#D91E47"></path>
            <path d="M53,202 C53,285.258134 120.775288,353 204.068943,353 C213.107758,353 222.16466,352.195486 231,350.604538 L229.982625,344.927744 C221.48641,346.455416 212.768633,347.232812 204.068943,347.232812 C123.954021,347.232812 58.7741706,282.076237 58.7741706,202 L53,202" id="Fill-26" fill="#D91E47"></path>
            <path d="M203,55.7828699 C283.085276,55.7828699 348.232812,121.112079 348.232812,201.419646 C348.232812,210.012374 347.482535,218.609634 346.009099,226.989357 L351.676854,228 C353.222605,219.293971 354,210.347744 354,201.419646 C354,117.926062 286.262654,50 203,50 L203,55.7828699" id="Fill-27" fill="#D91E47"></path>
            <path d="M47,203 C47,288.465397 116.685714,358 202.341353,358 C211.639098,358 220.941353,357.176226 230,355.542183 L229.78797,354.331281 C220.792481,355.938315 211.557895,356.757587 202.341353,356.757587 C117.366917,356.757587 48.2451128,287.781169 48.2451128,203 L47,203" id="Fill-28" fill="#D91E47"></path>
            <path d="M204,47.2478506 C288.778707,47.2478506 357.762125,116.526164 357.762125,201.687444 C357.762125,210.793137 356.960882,219.912393 355.394407,228.782983 L356.618778,229 C358.198757,220.057071 359,210.865476 359,201.687444 C359,115.838942 289.467416,46 204,46 L204,47.2478506" id="Fill-29" fill="#D91E47"></path>
            <path d="M273.710578,102 L273.13592,128.839198 C273.126871,129.668436 273.534109,130.45236 274.212838,130.919089 C274.267137,130.95534 280.393805,135.133246 283.660758,139.886635 C286.841738,144.526739 287.629065,150.018738 287.638114,150.077645 C287.823634,151.418926 289.054397,152.347853 290.398282,152.166599 C291.615471,151.998939 292.49782,150.952196 292.49782,149.746857 C292.49782,149.633573 292.49782,149.529352 292.479721,149.420599 C292.438997,149.15325 291.552123,142.750449 287.665264,137.117978 C284.742201,132.844913 280.126838,129.192644 278.040875,127.647453 C278.077074,125.916476 278.316891,114.588096 278.430013,108.810622 C295.954817,116.178601 305.12672,131.317848 305.12672,153.68007 C305.12672,185.734855 285.534052,208.124265 257.466311,208.124265 C231.986793,208.124265 223.280952,186.894881 217.529848,172.843158 L215.593205,168.234773 C213.683712,163.943583 210.855671,161.061643 207.18148,159.675049 C200.244861,157.060459 192.380645,160.699135 189.416858,162.067603 C188.199669,162.629491 187.66121,164.079523 188.222293,165.302988 C188.787902,166.521922 190.240383,167.056621 191.457572,166.490202 C193.910049,165.357364 200.434906,162.339484 205.466556,164.238121 C207.914508,165.162516 209.769703,167.115529 211.149787,170.214974 L213.023082,174.69195 C218.900882,189.020085 228.72889,213 257.466311,213 C288.398292,213 310,188.607732 310,153.68007 C310,126.677743 297.262503,108.901249 273.710578,102" id="Fill-30" fill="#1A1919"></path>
        </g>
    </g>
</svg>