<?xml version="1.0" encoding="UTF-8"?>
<svg width="400px" height="400px" viewBox="0 0 400 400" version="1.1" xmlns="http://www.w3.org/2000/svg" xmlns:xlink="http://www.w3.org/1999/xlink">
    <!-- Generator: Sketch 52.2 (67145) - http://www.bohemiancoding.com/sketch -->
    <title>Bournemouth</title>
    <desc>Created with Sketch.</desc>
    <defs>
        <rect id="path-1" x="0" y="0.0148490423" width="246.879062" height="322.811394"></rect>
        <path d="M0.943036364,0.176816176 L0.943036364,81.2945588 C18.2823727,222.50936 114.076582,277.511456 114.076582,277.511456 C114.076582,277.511456 218.555355,206.614301 225.868509,81.2945588 L225.868509,0.176816176 L0.943036364,0.176816176 Z" id="path-3"></path>
        <linearGradient x1="38.740427%" y1="78.2181109%" x2="64.9321712%" y2="13.0154939%" id="linearGradient-5">
            <stop stop-color="#8B0304" offset="0%"></stop>
            <stop stop-color="#ED1C24" offset="100%"></stop>
        </linearGradient>
        <rect id="path-6" x="0" y="0.0148490423" width="246.879062" height="322.811394"></rect>
        <rect id="path-8" x="0" y="0.0148490423" width="246.879062" height="322.811394"></rect>
        <rect id="path-10" x="0" y="0.0148490423" width="246.879062" height="322.811394"></rect>
        <rect id="path-12" x="0" y="0" width="246.879062" height="322.826234"></rect>
        <rect id="path-14" x="0" y="0" width="246.879062" height="322.826234"></rect>
        <rect id="path-16" x="0" y="0.0148490423" width="246.879062" height="322.811394"></rect>
        <rect id="path-18" x="0" y="0.0148490423" width="246.879062" height="322.811394"></rect>
        <rect id="path-20" x="0" y="0.0148490423" width="246.879062" height="322.811394"></rect>
        <rect id="path-22" x="0" y="0.0148490423" width="246.879062" height="322.811394"></rect>
        <rect id="path-24" x="0" y="0.0148490423" width="246.879062" height="322.811394"></rect>
        <rect id="path-26" x="0" y="0.0148490423" width="246.879062" height="322.811394"></rect>
        <path d="M6.744,4.683 C6.793,4.449 6.857,4.321 7.053,4.275 C7.259,4.233 7.3,4.333 7.345,4.552 C7.795,6.515 8.245,8.473 8.699,10.438 C7.598,10.679 6.497,10.932 5.397,11.174 C5.848,9.014 6.295,6.853 6.744,4.683 M7.053,1.095 C5.523,1.434 3.889,2.149 3.378,4.418 C2.281,9.309 1.182,14.204 0.084,19.099 C0.09,19.148 0.053,19.203 0.061,19.222 C0.053,19.442 0.222,19.543 0.439,19.492 C1.472,19.246 2.502,18.997 3.536,18.763 C3.758,18.708 3.93,18.485 3.98,18.251 C4.246,16.967 4.507,15.675 4.776,14.39 C6.291,14.039 7.804,13.699 9.321,13.373 C9.585,14.541 9.852,15.711 10.117,16.874 C10.163,17.09 10.337,17.231 10.566,17.181 C11.597,16.959 12.634,16.745 13.673,16.527 C13.895,16.48 14.046,16.313 14.046,16.09 C14.05,16.072 14.026,16.03 14.026,15.981 C12.921,11.572 11.818,7.174 10.723,2.779 C10.362,1.339 9.443,0.921 8.396,0.921 C7.961,0.921 7.502,0.994 7.053,1.095" id="path-28"></path>
        <linearGradient x1="67.1928309%" y1="62.931649%" x2="443.533154%" y2="342.648315%" id="linearGradient-30">
            <stop stop-color="#A8996E" offset="0%"></stop>
            <stop stop-color="#FFE5C7" offset="44.17%"></stop>
            <stop stop-color="#A8996E" offset="100%"></stop>
        </linearGradient>
        <path d="M10.682,0.645 C9.898,0.675 8.783,0.694 6.374,1.15 C3.501,1.697 0.945,2.94 0.945,7.018 L0.945,18.608 C0.945,18.859 1.147,19.018 1.394,18.969 C2.355,18.777 3.32,18.583 4.284,18.391 C4.528,18.343 4.732,18.107 4.732,17.86 L4.732,11.312 C6.65,10.941 8.575,10.578 10.5,10.23 C10.738,10.187 10.949,9.947 10.943,9.704 L10.943,7.571 C10.943,7.321 10.748,7.155 10.5,7.203 C8.575,7.546 6.65,7.914 4.732,8.285 L4.732,6.267 C4.732,5.096 5.109,4.663 6.155,4.465 C7.665,4.179 9.169,3.9 10.681,3.624 C10.926,3.584 11.127,3.341 11.127,3.101 L11.127,1.013 C11.13,0.74 11.004,0.644 10.731,0.644 C10.715,0.644 10.699,0.644 10.682,0.645" id="path-31"></path>
        <linearGradient x1="43.6995688%" y1="44.9450704%" x2="474.77476%" y2="363.408331%" id="linearGradient-33">
            <stop stop-color="#A8996E" offset="0%"></stop>
            <stop stop-color="#FFE5C7" offset="44.17%"></stop>
            <stop stop-color="#A8996E" offset="100%"></stop>
        </linearGradient>
        <path d="M7.187,0.716 C3.786,1.252 0.57,3.587 0.572,8.929 L0.572,11.753 C0.57,17.091 3.791,18.317 7.187,17.779 C8.751,17.527 10.05,17.107 10.519,16.878 C10.837,16.748 11.015,16.609 11.015,16.29 L11.015,14.116 C11.015,13.853 10.874,13.683 10.586,13.724 C10.566,13.731 10.537,13.738 10.519,13.738 C9.665,13.937 8.44,14.245 7.206,14.436 C5.664,14.687 4.431,14.074 4.431,11.096 L4.431,8.274 C4.431,5.286 5.664,4.279 7.206,4.031 C8.439,3.839 9.665,3.755 10.519,3.697 C10.537,3.691 10.571,3.684 10.586,3.679 C10.878,3.642 11.015,3.444 11.015,3.174 L11.015,0.998 C11.005,0.679 10.837,0.622 10.519,0.582 C10.325,0.544 9.986,0.518 9.543,0.518 C8.924,0.518 8.102,0.571 7.187,0.716" id="path-34"></path>
        <linearGradient x1="18.0067055%" y1="25.9337355%" x2="455.132226%" y2="349.231229%" id="linearGradient-36">
            <stop stop-color="#A8996E" offset="0%"></stop>
            <stop stop-color="#FFE5C7" offset="44.17%"></stop>
            <stop stop-color="#A8996E" offset="100%"></stop>
        </linearGradient>
        <path d="M4.102,10.176 C4.939,10.073 5.781,9.973 6.619,9.869 C8.417,9.663 9,10.519 9,11.596 L9,11.841 C9,13.101 8.255,13.898 5.94,14.17 C5.627,14.205 4.458,14.321 4.102,14.369 C4.102,12.969 4.102,11.578 4.102,10.176 M4.102,3.636 C4.414,3.57 5.446,3.439 5.804,3.397 C8.119,3.119 8.911,3.6 8.911,4.83 L8.911,5.168 C8.911,6.135 8.388,6.998 6.618,7.204 C5.78,7.304 4.938,7.407 4.101,7.511 C4.101,6.213 4.101,4.922 4.102,3.636 M5.515,0.297 C4.079,0.464 2.261,0.832 1.496,1.044 C0.619,1.293 0.308,1.649 0.308,2.652 L0.308,16.287 C0.308,17.299 0.648,17.546 1.542,17.587 C2.415,17.63 4.171,17.523 5.648,17.341 C9.534,16.88 12.734,15.473 12.73,11.528 L12.73,11.192 C12.73,9.651 11.921,8.535 10.73,8.088 C11.917,7.37 12.612,6.05 12.617,4.584 L12.617,4.18 C12.617,1.24 10.664,0.161 7.594,0.161 C6.948,0.161 6.252,0.209 5.515,0.297" id="path-37"></path>
        <linearGradient x1="-19.2805163%" y1="-1.64576333%" x2="390.106712%" y2="302.281158%" id="linearGradient-39">
            <stop stop-color="#A8996E" offset="0%"></stop>
            <stop stop-color="#FFE5C7" offset="44.17%"></stop>
            <stop stop-color="#A8996E" offset="100%"></stop>
        </linearGradient>
        <path d="M4.833,10.76 L4.833,8.086 C4.833,5.397 5.711,4.172 7.604,4.007 C9.501,3.853 10.391,4.925 10.395,7.617 L10.395,10.283 C10.395,12.978 9.495,14.191 7.604,14.346 C7.481,14.357 7.362,14.363 7.247,14.363 C5.6,14.361 4.833,13.274 4.833,10.76 M7.603,0.644 C3.89,0.957 0.941,3.257 0.941,8.454 L0.941,11.128 C0.941,16.333 3.884,18.025 7.603,17.706 C11.32,17.394 14.269,15.197 14.274,9.998 L14.274,7.325 C14.274,2.497 11.731,0.61 8.396,0.61 C8.137,0.61 7.872,0.621 7.603,0.644" id="path-40"></path>
        <linearGradient x1="-47.3929867%" y1="-22.3686221%" x2="351.638541%" y2="274.333692%" id="linearGradient-42">
            <stop stop-color="#A8996E" offset="0%"></stop>
            <stop stop-color="#FFE5C7" offset="44.17%"></stop>
            <stop stop-color="#A8996E" offset="100%"></stop>
        </linearGradient>
        <path d="M13.508,0.516 C12.529,0.553 11.551,0.589 10.57,0.635 C10.323,0.641 10.118,0.835 10.12,1.075 L10.12,11.058 C10.12,13.347 9.493,14.333 7.458,14.431 C5.432,14.534 4.822,13.616 4.822,11.32 L4.822,1.346 C4.822,1.1 4.62,0.932 4.367,0.942 C3.383,0.998 2.398,1.057 1.411,1.124 C1.163,1.136 0.961,1.334 0.961,1.571 L0.961,11.554 C0.96,16.673 3.873,17.82 7.458,17.64 C11.043,17.464 13.985,16.017 13.982,10.907 L13.982,0.926 C13.982,0.681 13.758,0.516 13.519,0.516 C13.519,0.516 13.509,0.516 13.508,0.516" id="path-43"></path>
        <linearGradient x1="-80.4867315%" y1="-47.3111438%" x2="322.577368%" y2="252.284327%" id="linearGradient-45">
            <stop stop-color="#A8996E" offset="0%"></stop>
            <stop stop-color="#FFE5C7" offset="44.17%"></stop>
            <stop stop-color="#A8996E" offset="100%"></stop>
        </linearGradient>
        <path d="M3.894,7.73 L3.894,3.425 C4.163,3.389 5.337,3.328 5.655,3.315 C7.551,3.284 8.609,3.911 8.609,5.274 L8.609,5.571 C8.609,7.086 7.867,7.7 5.491,7.743 C5.405,7.745 5.215,7.746 4.994,7.746 C4.579,7.746 4.054,7.742 3.894,7.73 M5.655,0.063 C4.029,0.089 2.109,0.276 1.071,0.462 C0.38,0.589 0.052,0.799 0.054,1.566 L0.054,16.614 C0.054,16.859 0.263,17.051 0.505,17.044 C1.483,17.019 2.463,16.996 3.438,16.972 C3.688,16.964 3.889,16.765 3.894,16.515 L3.894,10.825 C4.123,10.818 4.43,10.824 4.74,10.829 C5.005,10.835 5.272,10.839 5.491,10.835 C5.575,10.825 5.661,10.818 5.742,10.811 C6.752,12.678 7.761,14.559 8.774,16.44 C8.885,16.668 8.966,16.883 9.216,16.883 C10.37,16.871 11.524,16.871 12.681,16.865 C12.928,16.865 13.019,16.753 13.019,16.596 C13.019,16.528 12.992,16.44 12.951,16.349 C11.808,14.239 10.673,12.141 9.538,10.04 C11.187,9.375 12.456,7.916 12.451,5.539 L12.451,5.251 C12.451,1.368 9.622,0.062 5.896,0.062 C5.816,0.062 5.736,0.063 5.655,0.063" id="path-46"></path>
        <linearGradient x1="-116.984146%" y1="-74.3493151%" x2="292.524074%" y2="230.117295%" id="linearGradient-48">
            <stop stop-color="#A8996E" offset="0%"></stop>
            <stop stop-color="#FFE5C7" offset="44.17%"></stop>
            <stop stop-color="#A8996E" offset="100%"></stop>
        </linearGradient>
        <path d="M1.242,0.209 C0.779,0.209 0.399,0.593 0.399,1.057 L0.399,16.415 C0.399,16.668 0.601,16.871 0.851,16.871 C1.738,16.877 2.626,16.883 3.515,16.89 C3.761,16.892 3.972,16.698 3.968,16.451 L3.968,7.37 C3.968,7.229 4.011,7.186 4.077,7.186 C4.142,7.186 4.194,7.229 4.278,7.37 C5.999,10.333 7.714,13.315 9.427,16.3 C9.789,16.911 10.131,17.014 10.601,17.027 C11.334,17.044 12.077,17.063 12.811,17.087 C13.286,17.106 13.69,16.741 13.695,16.263 C13.695,11.137 13.695,6.004 13.695,0.884 C13.695,0.635 13.489,0.443 13.245,0.438 C12.356,0.413 11.468,0.383 10.579,0.365 C10.335,0.352 10.128,0.529 10.128,0.775 L10.128,10.259 C10.139,10.42 10.06,10.457 10.014,10.457 C9.951,10.457 9.919,10.414 9.839,10.274 C8.051,7.153 6.267,4.044 4.485,0.939 C4.214,0.462 3.992,0.234 3.537,0.234 C2.775,0.222 2.014,0.215 1.254,0.209 C1.253,0.209 1.244,0.209 1.242,0.209" id="path-49"></path>
        <linearGradient x1="-150.172871%" y1="-99.0129922%" x2="257.615824%" y2="204.362856%" id="linearGradient-51">
            <stop stop-color="#A8996E" offset="0%"></stop>
            <stop stop-color="#FFE5C7" offset="44.17%"></stop>
            <stop stop-color="#A8996E" offset="100%"></stop>
        </linearGradient>
        <path d="M0.769,5.166 L0.769,12.608 C0.769,16.692 3.337,17.531 6.255,17.683 C8.691,17.801 9.841,17.701 10.632,17.633 C10.947,17.61 11.073,17.487 11.073,17.187 L11.073,15.105 C11.073,14.86 10.878,14.641 10.632,14.628 C9.103,14.541 7.579,14.449 6.052,14.37 C4.985,14.321 4.603,13.948 4.612,12.771 L4.612,10.402 C6.556,10.493 8.506,10.6 10.451,10.715 C10.697,10.733 10.9,10.547 10.9,10.298 L10.9,8.168 C10.9,7.922 10.697,7.706 10.451,7.688 C8.506,7.566 6.556,7.466 4.612,7.375 L4.612,5.333 C4.612,4.17 4.992,3.825 6.052,3.88 C7.579,3.959 9.103,4.044 10.632,4.139 C10.874,4.151 11.081,3.966 11.073,3.72 L11.073,1.626 C11.073,1.34 10.947,1.221 10.632,1.154 C9.847,0.99 8.71,0.744 6.278,0.62 C6.019,0.606 5.765,0.599 5.513,0.599 C2.927,0.599 0.769,1.443 0.769,5.166" id="path-52"></path>
        <linearGradient x1="-206.00304%" y1="-139.321361%" x2="240.973054%" y2="191.400201%" id="linearGradient-54">
            <stop stop-color="#A8996E" offset="0%"></stop>
            <stop stop-color="#FFE5C7" offset="44.17%"></stop>
            <stop stop-color="#A8996E" offset="100%"></stop>
        </linearGradient>
        <path d="M0.91,1.042 L0.91,16.628 C0.9,16.868 1.119,16.953 1.295,16.964 C2.287,17.033 3.274,17.107 4.269,17.181 C4.47,17.2 4.629,17.008 4.629,16.753 L4.629,7.408 C4.629,7.253 4.697,7.235 4.739,7.235 C4.804,7.242 4.859,7.296 4.922,7.408 C5.598,8.693 6.273,9.986 6.947,11.27 C7.108,11.546 7.33,11.678 7.625,11.708 C8.224,11.756 8.825,11.802 9.426,11.857 C9.722,11.887 9.947,11.789 10.108,11.541 C10.778,10.361 11.452,9.192 12.128,8.022 C12.197,7.918 12.245,7.876 12.308,7.876 C12.359,7.883 12.425,7.918 12.425,8.067 L12.425,17.418 C12.425,17.674 12.581,17.883 12.782,17.908 C13.775,17.996 14.761,18.092 15.749,18.196 C15.932,18.214 16.141,18.172 16.134,17.919 L16.134,2.357 C16.144,1.887 15.796,1.54 15.329,1.494 C14.622,1.421 13.913,1.348 13.21,1.282 C12.731,1.24 12.426,1.434 12.218,1.802 C11.072,3.823 9.921,5.849 8.771,7.876 C8.685,8.05 8.619,8.159 8.531,8.147 C8.443,8.147 8.373,8.022 8.285,7.839 C7.131,5.612 5.988,3.388 4.838,1.17 C4.633,0.765 4.317,0.525 3.842,0.489 C3.139,0.437 2.432,0.382 1.726,0.334 C1.7,0.332 1.671,0.331 1.643,0.331 C1.209,0.331 0.906,0.6 0.91,1.042" id="path-55"></path>
        <linearGradient x1="-195.364776%" y1="-132.981122%" x2="176.03358%" y2="143.767475%" id="linearGradient-57">
            <stop stop-color="#A8996E" offset="0%"></stop>
            <stop stop-color="#FFE5C7" offset="44.17%"></stop>
            <stop stop-color="#A8996E" offset="100%"></stop>
        </linearGradient>
        <path d="M7.533,14.127 C5.644,13.892 4.765,12.65 4.765,9.966 L4.765,7.293 C4.775,4.603 5.646,3.557 7.533,3.795 C9.418,4.022 10.315,5.284 10.315,7.973 L10.315,10.647 C10.315,13.092 9.569,14.158 8.019,14.158 C7.867,14.158 7.703,14.147 7.533,14.127 M0.88,6.857 L0.88,9.528 C0.88,14.731 3.829,17.034 7.531,17.493 C11.232,17.95 14.175,16.363 14.175,11.16 L14.175,8.49 C14.175,3.288 11.237,0.88 7.531,0.428 C7.148,0.381 6.774,0.356 6.411,0.356 C3.248,0.356 0.88,2.193 0.88,6.857" id="path-58"></path>
        <linearGradient x1="-251.607037%" y1="-174.148218%" x2="145.653187%" y2="121.145686%" id="linearGradient-60">
            <stop stop-color="#A8996E" offset="0%"></stop>
            <stop stop-color="#FFE5C7" offset="44.17%"></stop>
            <stop stop-color="#A8996E" offset="100%"></stop>
        </linearGradient>
        <path d="M0.846,1.293 L0.846,11.273 C0.856,16.391 3.745,18.138 7.296,18.702 C10.85,19.268 13.758,18.427 13.758,13.315 L13.758,3.333 C13.758,3.086 13.53,2.87 13.286,2.831 C12.321,2.661 11.352,2.5 10.387,2.342 C10.138,2.293 9.938,2.445 9.938,2.692 L9.938,12.673 C9.938,14.962 9.315,15.818 7.297,15.496 C5.286,15.178 4.682,14.127 4.682,11.838 L4.682,1.862 C4.682,1.615 4.481,1.407 4.234,1.364 C3.258,1.221 2.275,1.075 1.296,0.932 C1.273,0.928 1.247,0.926 1.225,0.926 C1.011,0.926 0.846,1.074 0.846,1.293" id="path-61"></path>
        <linearGradient x1="-285.466505%" y1="-199.248088%" x2="108.776115%" y2="93.391305%" id="linearGradient-63">
            <stop stop-color="#A8996E" offset="0%"></stop>
            <stop stop-color="#FFE5C7" offset="44.17%"></stop>
            <stop stop-color="#A8996E" offset="100%"></stop>
        </linearGradient>
        <path d="M0.791,0.688 L0.791,2.998 C0.801,3.247 0.989,3.463 1.246,3.505 C2.453,3.727 3.664,3.943 4.877,4.174 L4.877,17.216 C4.877,17.468 5.078,17.702 5.324,17.75 C6.299,17.937 7.269,18.125 8.238,18.309 C8.486,18.355 8.688,18.198 8.683,17.942 L8.683,4.897 C9.882,5.133 11.089,5.374 12.29,5.614 C12.532,5.669 12.761,5.536 12.755,5.284 L12.755,2.967 C12.755,2.729 12.535,2.502 12.29,2.454 C8.617,1.702 4.933,1.007 1.243,0.345 C1.21,0.339 1.179,0.336 1.149,0.336 C0.948,0.336 0.798,0.474 0.791,0.688" id="path-64"></path>
        <linearGradient x1="-333.254321%" y1="-234.040752%" x2="75.0687233%" y2="68.6917841%" id="linearGradient-66">
            <stop stop-color="#A8996E" offset="0%"></stop>
            <stop stop-color="#FFE5C7" offset="44.17%"></stop>
            <stop stop-color="#A8996E" offset="100%"></stop>
        </linearGradient>
        <path d="M0.858,0.407 L0.858,16.198 C0.858,16.446 1.052,16.686 1.298,16.739 C2.272,16.941 3.241,17.152 4.206,17.363 C4.446,17.409 4.651,17.254 4.651,17.008 L4.651,10.529 C6.48,10.925 8.299,11.332 10.126,11.754 L10.126,18.233 C10.126,18.485 10.329,18.731 10.567,18.792 C11.534,19.014 12.501,19.245 13.467,19.473 C13.705,19.531 13.905,19.376 13.905,19.13 L13.905,3.34 C13.905,3.097 13.705,2.869 13.467,2.808 C12.5,2.583 11.532,2.356 10.567,2.133 C10.321,2.074 10.122,2.21 10.126,2.451 L10.126,8.412 C8.3,7.996 6.48,7.585 4.651,7.187 L4.651,1.219 C4.651,0.973 4.456,0.751 4.206,0.697 C3.241,0.487 2.27,0.274 1.298,0.076 C1.261,0.068 1.228,0.064 1.194,0.064 C1,0.064 0.858,0.197 0.858,0.407" id="path-67"></path>
        <linearGradient x1="-337.651254%" y1="-237.712025%" x2="38.8726316%" y2="41.5116804%" id="linearGradient-69">
            <stop stop-color="#A8996E" offset="0%"></stop>
            <stop stop-color="#FFE5C7" offset="44.17%"></stop>
            <stop stop-color="#A8996E" offset="100%"></stop>
        </linearGradient>
    </defs>
    <g id="Bournemouth" stroke="none" stroke-width="1" fill="none" fill-rule="evenodd">
        <g id="AFC_Bournemouth_(2013)" transform="translate(75.000000, 38.000000)">
            <g id="path14-Clipped">
                <mask id="mask-2" fill="white">
                    <use xlink:href="#path-1"></use>
                </mask>
                <g id="SVGID_1_"></g>
                <path d="M123.439531,160.939647 L123.439531,160.947824 C123.439531,160.897741 123.439531,160.860945 123.439531,160.811884 C123.439531,160.860945 123.439531,160.889564 123.439531,160.939647" id="path14" fill="#FFFFFF" mask="url(#mask-2)"></path>
            </g>
            <g id="polygon29-Clipped" transform="translate(10.000000, 37.000000)">
                <mask id="mask-4" fill="white">
                    <use xlink:href="#path-3"></use>
                </mask>
                <g id="SVGID_3_"></g>
                <polygon id="polygon29" fill="url(#linearGradient-5)" mask="url(#mask-4)" points="196.816209 352.566346 -92.5459727 241.690338 29.9953364 -74.8770515 319.358545 35.9989559"></polygon>
            </g>
            <g id="path39-Clipped">
                <mask id="mask-7" fill="white">
                    <use xlink:href="#path-6"></use>
                </mask>
                <g id="SVGID_5_"></g>
                <path d="M146.613461,152.269159 C148.190776,152.412253 149.787564,152.498109 151.397676,152.517529 C149.786539,152.498109 148.190776,152.412253 146.613461,152.269159" id="path39" fill="#FFFFFF" mask="url(#mask-7)"></path>
            </g>
            <g id="polygon41-Clipped">
                <mask id="mask-9" fill="white">
                    <use xlink:href="#path-8"></use>
                </mask>
                <g id="SVGID_7_"></g>
                <polygon id="polygon41" fill="#FFFFFF" mask="url(#mask-9)" points="143.058095 151.870539 143.058095 151.884848 143.066295 151.870539"></polygon>
            </g>
            <g id="path43-Clipped">
                <mask id="mask-11" fill="white">
                    <use xlink:href="#path-10"></use>
                </mask>
                <g id="SVGID_9_"></g>
                <path d="M98.1317676,142.747259 L72.924444,142.080849 L72.4714398,152.059628 C72.4714398,152.059628 68.7684896,151.846008 64.8636349,152.059628 C60.9536556,152.294711 60.7333029,157.703673 60.7333029,157.703673 C60.7333029,157.703673 57.6852614,157.48801 54.4312158,158.350664 C51.1740954,159.221494 51.6086515,164.213439 51.6086515,164.213439 C51.6086515,164.213439 43.1235353,164.433191 40.2989212,167.68143 C37.4712324,170.947045 37.0438506,177.651009 39.875639,181.557482 C42.6930788,185.463955 58.7767759,208.43569 62.9081328,217.543638 C67.0394896,226.661807 67.6984979,257.453642 67.6984979,257.453642 L67.9424232,258.188533 L67.9536971,258.195688 C82.3709129,275.942439 100.5331,293.030957 123.468228,308.368615 C131.236942,303.180426 138.458361,297.76431 145.164257,292.20101 L103.351564,244.070242 L105.91278,241.85637 L106.724498,241.81242 C106.996095,241.795044 107.261544,241.782779 107.54134,241.782779 C109.047938,241.797088 110.519689,241.970846 112.205643,241.964713 C114.889846,241.964713 118.051651,241.585513 122.139963,239.436033 C123.818743,238.53454 124.918456,237.280421 125.656382,235.752379 C126.398407,234.21616 126.736622,232.434637 126.716124,230.71444 C126.736622,228.868524 126.297967,227.097222 125.804992,226.136446 C125.016846,224.528681 123.229427,223.270473 121.260602,222.485499 C119.3051,221.68315 117.317826,221.365276 116.604498,221.285552 C116.396444,221.248756 116.326751,221.248756 116.326751,221.248756 L116.201714,221.248756 L113.823954,220.82765 L105.972224,212.102991 L109.693622,208.898702 L116.354423,216.285431 L116.869946,216.373331 C117.378295,216.429547 119.255905,216.652365 121.506577,217.379079 L112.24049,206.700161 L115.959838,203.477474 L171.290913,267.187116 C171.948896,266.453247 172.584332,265.725511 173.221817,264.993686 L118.151066,201.600896 L121.86734,198.38843 L176.467664,261.227241 C177.091826,260.482129 177.718037,259.717597 178.330925,258.977595 L124.053444,196.501631 L125.341739,195.389584 C125.341739,195.389584 127.220373,195.922099 130.17105,196.032486 L181.459934,255.0793 C182.064622,254.30148 182.67751,253.531838 183.275025,252.74993 L133.938568,195.959917 C135.661419,195.83011 137.559527,195.513258 139.561149,194.933727 L186.293344,248.724893 C186.871386,247.922544 187.444303,247.131437 188.023369,246.318866 L142.471855,193.892205 C144.122963,193.060214 145.300568,191.911372 146.12356,190.605126 L190.924851,242.170155 C191.481369,241.35043 192.054286,240.505152 192.592357,239.678272 L147.41288,187.672716 C148.245095,184.762793 147.99912,181.835494 147.843336,180.670298 L195.368801,235.377268 C195.907896,234.524835 196.443917,233.668314 196.970714,232.809748 L145.426631,173.480835 L145.426631,165.987807 L199.631344,228.382004 C200.21656,227.370123 200.803826,226.363353 201.372643,225.342273 L136.686315,150.595978 C136.030382,150.428353 135.392896,150.231088 134.747212,150.050176 C132.118353,149.279511 129.563286,148.339178 127.083037,147.248595 C126.61261,147.038042 126.148332,146.800915 125.685079,146.570942 C124.112888,145.824807 122.572469,145.02348 121.068946,144.149583 C120.546249,143.843974 120.028676,143.526101 119.513154,143.204139 C118.058826,142.296513 116.653693,141.339825 115.283407,140.314657 C114.855,139.99985 114.422494,139.689131 113.999212,139.351838 C112.376801,138.078299 110.825108,136.731169 109.341058,135.308403 C109.255992,135.229702 109.158627,135.160199 109.074585,135.077408 C103.088166,136.054538 98.1317676,142.747259 98.1317676,142.747259" id="path43" fill="#FFFFFF" mask="url(#mask-11)"></path>
            </g>
            <g id="path53-Clipped">
                <mask id="mask-13" fill="white">
                    <use xlink:href="#path-12"></use>
                </mask>
                <g id="SVGID_11_"></g>
                <path d="M17.7214813,148.651551 C20.3718631,162.597791 24.4581245,178.095658 30.7704606,194.243614 C31.2542116,195.466108 31.7892075,196.701889 32.2903817,197.933582 C31.7892075,196.701889 31.2531867,195.466108 30.7704606,194.236459 C24.4581245,178.094636 20.3718631,162.596769 17.7214813,148.651551" id="path53" fill="#FFFFFF" mask="url(#mask-13)"></path>
            </g>
            <g id="path55-Clipped">
                <mask id="mask-15" fill="white">
                    <use xlink:href="#path-14"></use>
                </mask>
                <g id="SVGID_13_"></g>
                <path d="M0.0409958506,17.5176392 L0.0409958506,51.5164557 L0,51.5164557 L0.0696929461,98.5119335 C0.0491950207,99.5749715 0.0409958506,100.699339 0.0409958506,101.891168 C0.0409958506,103.047222 0.0573941909,104.296291 0.0778921162,105.56887 L0.0778921162,105.767168 L0.0819917012,105.767168 C0.162958506,110.520174 0.402784232,116.025484 0.899858921,122.192127 C2.5509668,142.437889 7.09125726,169.658816 18.5567718,198.999687 C34.4846846,239.797858 63.962751,284.748009 117.37932,320.058247 L123.394436,323.885184 L129.517166,320.070513 C134.529934,316.75363 139.331573,313.360085 143.924133,309.908278 C185.240776,278.71118 210.244145,241.631598 225.157411,206.842658 L225.219929,206.693424 L225.339842,206.389845 C226.401635,203.918282 227.409108,201.449785 228.37661,198.990487 C229.382033,196.388089 230.344411,193.815332 231.249394,191.251775 C244.62429,153.574234 246.874963,120.233684 246.884187,101.888101 C246.884187,101.199171 246.872913,100.577703 246.866763,99.9327247 L246.884187,99.9245475 L246.884187,59.0906013 L246.884187,51.5174778 L246.884187,17.5186614 C166.267896,-5.8395538 80.6511369,-5.8395538 0.0409958506,17.5176392 Z M201.362394,218.444082 L183.459506,198.471234 L183.459506,139.429696 C192.553411,129.671212 196.945091,116.402658 196.728838,101.829839 C196.534108,88.2147753 192.501141,75.3683703 183.459506,65.2950633 L183.459506,45.7269873 C188.628058,46.4353386 196.230739,47.7794684 201.378793,48.6677184 L201.363419,218.444082 L201.362394,218.444082 Z M164.708004,176.72393 L163.067145,175.003649 L146.514046,155.868965 C147.212,155.858744 147.910979,155.858744 148.605859,155.826035 C153.669871,155.541877 160.15439,153.504728 164.708004,151.875418 L164.708004,176.72393 Z M148.934851,289.037981 L112.294809,246.870127 C113.393498,246.870127 114.618249,246.796532 115.934216,246.59619 L151.101481,287.130646 C150.382004,287.747003 149.654328,288.399136 148.934851,289.037981 Z M154.762411,283.839316 L121.236004,245.231617 C122.137913,244.885108 123.053145,244.47318 124.004249,243.99788 L156.880871,281.890073 C156.189066,282.542206 155.477788,283.188206 154.762411,283.839316 Z M160.436237,278.479152 L127.956249,241.052038 C128.626531,240.299734 129.188174,239.503478 129.676025,238.660203 L162.491154,276.443025 C161.803448,277.120712 161.133166,277.789199 160.436237,278.479152 Z M165.943004,272.918646 L131.460369,233.230532 C131.578232,232.378057 131.638701,231.54807 131.638701,230.707861 C131.638701,230.110924 131.606929,229.507854 131.547485,228.919095 L167.948726,270.810968 C167.291768,271.521364 166.610212,272.231759 165.943004,272.918646 Z M199.63032,228.377354 L145.424581,165.981114 L145.424581,173.474509 L196.968664,232.806339 C196.438793,233.664946 195.906871,234.521509 195.366751,235.373984 L147.839237,180.664326 C147.998095,181.829579 148.243046,184.757022 147.41083,187.667089 L192.590307,239.675199 C192.053261,240.50212 191.481369,241.34744 190.922801,242.167206 L146.12151,190.599642 C145.297494,191.903908 144.121938,193.052807 142.469805,193.886883 L188.02132,246.31612 C187.444303,247.128731 186.872411,247.918854 186.291295,248.722266 L139.558075,194.928456 C137.556452,195.508016 135.656295,195.824883 133.936519,195.954696 L183.272975,252.7475 C182.67751,253.531491 182.062573,254.301171 181.457884,255.076984 L130.169,196.027269 C127.218324,195.916877 125.338664,195.384335 125.338664,195.384335 L124.051394,196.496437 L178.33195,258.972405 C177.714963,259.714487 177.090801,260.478035 176.467664,261.222161 L121.86734,198.380263 L118.151066,201.592886 L173.222842,264.988791 C172.584332,265.720652 171.947871,266.448424 171.289888,267.182329 L115.959838,203.469557 L112.24049,206.692402 L121.506577,217.371845 C119.255905,216.645095 117.378295,216.419199 116.869946,216.366047 L116.354423,216.278142 L109.693622,208.891051 L105.972224,212.095497 L113.823954,220.820585 L116.201714,221.24069 L116.325726,221.24069 C116.325726,221.24069 116.395419,221.24069 116.603473,221.278509 C117.316801,221.358237 119.304075,221.676127 121.259577,222.478516 C123.228402,223.265573 125.015822,224.520775 125.802942,226.129642 C126.294892,227.090465 126.733548,228.862877 126.714075,230.707861 C126.735598,232.428142 126.394307,234.209753 125.655357,235.746047 C124.916407,237.273142 123.817718,238.529367 122.137913,239.429883 C118.050627,241.579468 114.889846,241.958687 112.204618,241.958687 C110.518664,241.96482 109.046913,241.791054 107.540315,241.776744 C107.262568,241.776744 106.995071,241.791054 106.722448,241.806386 L105.91073,241.850339 L103.349515,244.06432 L145.162207,292.197453 C138.456311,297.761025 131.233867,303.177408 123.466178,308.365851 C100.527975,293.029484 82.3688631,275.940127 67.9506224,258.196592 L67.9403734,258.185348 C51.7972324,238.347424 40.4085851,217.724487 32.288332,197.933582 C31.7892075,196.703934 31.2521618,195.466108 30.7704606,194.245658 C24.4570996,178.095658 20.3708382,162.599835 17.7204564,148.653595 C14.7615809,133.048402 13.6321452,119.455826 13.2959793,109.106538 L13.2959793,55.5059146 C62.3321411,42.9293576 114.622349,39.1525063 164.705954,43.6407753 L164.705954,51.6636456 C158.577075,49.2074146 150.392253,46.8441994 143.658685,46.7982025 C114.163195,46.5426646 91.2454896,71.3042943 91.6902946,101.134775 C92.1248506,129.667123 113.600527,153.257367 141.058523,155.649203 L201.370593,225.340541 C200.798701,226.360649 200.21451,227.365424 199.63032,228.377354 Z M219.318577,185.650383 C219.318577,185.656516 219.58505,185.660604 219.583,185.665715 L219.583,52.0949937 C224.353892,53.1498544 228.839863,54.2783101 233.583083,55.4926266 L233.583083,109.108582 L233.634328,109.072807 C233.056286,127.006462 230.083062,154.831481 219.318577,185.650383 Z" id="path55" fill="#000000" fill-rule="nonzero" mask="url(#mask-15)"></path>
            </g>
            <g id="path65-Clipped">
                <mask id="mask-17" fill="white">
                    <use xlink:href="#path-16"></use>
                </mask>
                <g id="SVGID_15_"></g>
                <path d="M104.095639,125.764018 L123.00805,131.189334 L134.343402,148.215503 C137.751183,149.029096 141.284,149.49313 144.900859,149.524816 C148.471598,149.543213 151.930622,149.139483 155.255386,148.401526 L165.78927,131.840412 L184.933307,126.454959 C188.401556,120.465443 190.58356,113.60203 191.12778,106.228589 L178.764456,90.549549 L179.276905,70.2056373 C178.537954,69.3419614 177.773382,68.4915728 176.979087,67.6902451 C172.743191,63.4107053 167.757071,59.9232944 162.235954,57.4774051 L144.022523,64.3162874 L125.172631,57.0685645 C119.579772,59.4592603 114.576228,62.944627 110.375178,67.2609624 C109.658776,68.0060745 108.976195,68.7777612 108.290539,69.5719342 L109.477369,89.4875853 L97.3600207,105.433394 C98.1112697,112.789459 100.464432,119.701933 104.095639,125.764018 Z M144.281822,81.1942524 L164.635237,96.2702521 L157.310303,120.348923 L132.409423,120.186409 L124.392685,95.998373 L144.281822,81.1942524 Z" id="path65" fill="#FFFFFF" fill-rule="nonzero" mask="url(#mask-17)"></path>
            </g>
            <g id="polygon67-Clipped">
                <mask id="mask-19" fill="white">
                    <use xlink:href="#path-18"></use>
                </mask>
                <g id="SVGID_17_"></g>
                <polygon id="polygon67" fill="#000000" mask="url(#mask-19)" points="164.635237 95.9993951 144.281822 80.9233954 124.394734 95.726494 132.409423 119.91453 157.310303 120.077044"></polygon>
            </g>
            <g id="path69-Clipped">
                <mask id="mask-21" fill="white">
                    <use xlink:href="#path-20"></use>
                </mask>
                <g id="SVGID_19_"></g>
                <path d="M112.294809,246.874889 L148.934851,289.040672 C149.654328,288.401858 150.382004,287.748735 151.100456,287.134452 L115.934216,246.601988 C114.618249,246.800276 113.393498,246.874889 112.294809,246.874889" id="path69" fill="#FFFFFF" mask="url(#mask-21)"></path>
            </g>
            <g id="path71-Clipped">
                <mask id="mask-23" fill="white">
                    <use xlink:href="#path-22"></use>
                </mask>
                <g id="SVGID_21_"></g>
                <path d="M121.236004,245.235438 L154.762411,283.841241 C155.476763,283.190162 156.191116,282.543172 156.879846,281.892093 L124.003224,244.00074 C123.053145,244.476017 122.137913,244.887924 121.236004,245.235438" id="path71" fill="#FFFFFF" mask="url(#mask-23)"></path>
            </g>
            <g id="path73-Clipped">
                <mask id="mask-25" fill="white">
                    <use xlink:href="#path-24"></use>
                </mask>
                <g id="SVGID_23_"></g>
                <path d="M127.955224,241.056065 L160.435212,278.48134 C161.134191,277.792443 161.802423,277.121944 162.489104,276.444291 L129.67295,238.663325 C129.187149,239.507581 128.625506,240.302776 127.955224,241.056065" id="path73" fill="#FFFFFF" mask="url(#mask-25)"></path>
            </g>
            <g id="path75-Clipped">
                <mask id="mask-27" fill="white">
                    <use xlink:href="#path-26"></use>
                </mask>
                <g id="SVGID_25_"></g>
                <path d="M131.547485,228.92474 C131.608979,229.51347 131.639726,230.11651 131.639726,230.713418 C131.639726,231.550519 131.578232,232.383532 131.461394,233.234943 L165.945054,272.922129 C166.610212,272.234254 167.292793,271.524916 167.950776,270.815577 L131.547485,228.92474 Z" id="path75" fill="#FFFFFF" mask="url(#mask-27)"></path>
            </g>
            <g id="polygon92-Clipped" transform="translate(13.000000, 23.000000)">
                <mask id="mask-29" fill="white">
                    <use xlink:href="#path-28"></use>
                </mask>
                <g id="SVGID_27_"></g>
                <polygon id="polygon92" fill="url(#linearGradient-30)" mask="url(#mask-29)" points="-8.878 12.866 5.072 -5.791 22.98 7.598 9.031 26.256"></polygon>
            </g>
            <g id="polygon109-Clipped" transform="translate(29.000000, 19.000000)">
                <mask id="mask-32" fill="white">
                    <use xlink:href="#path-31"></use>
                </mask>
                <g id="SVGID_29_"></g>
                <polygon id="polygon109" fill="url(#linearGradient-33)" mask="url(#mask-32)" points="-7.867 12.43 4.598 -4.241 19.942 7.232 7.478 23.903"></polygon>
            </g>
            <g id="polygon126-Clipped" transform="translate(42.000000, 17.000000)">
                <mask id="mask-35" fill="white">
                    <use xlink:href="#path-34"></use>
                </mask>
                <g id="SVGID_31_"></g>
                <polygon id="polygon126" fill="url(#linearGradient-36)" mask="url(#mask-35)" points="-7.966 11.935 4.316 -4.493 19.555 6.9 7.272 23.328"></polygon>
            </g>
            <g id="polygon143-Clipped" transform="translate(62.000000, 15.000000)">
                <mask id="mask-38" fill="white">
                    <use xlink:href="#path-37"></use>
                </mask>
                <g id="SVGID_33_"></g>
                <polygon id="polygon143" fill="url(#linearGradient-39)" mask="url(#mask-38)" points="-8.069 11.366 4.764 -5.798 21.111 6.425 8.278 23.589"></polygon>
            </g>
            <g id="polygon160-Clipped" transform="translate(76.000000, 13.000000)">
                <mask id="mask-41" fill="white">
                    <use xlink:href="#path-40"></use>
                </mask>
                <g id="SVGID_35_"></g>
                <polygon id="polygon160" fill="url(#linearGradient-42)" mask="url(#mask-41)" points="-7.411 11.781 5.722 -5.784 22.626 6.855 9.493 24.419"></polygon>
            </g>
            <g id="polygon177-Clipped" transform="translate(93.000000, 12.000000)">
                <mask id="mask-44" fill="white">
                    <use xlink:href="#path-43"></use>
                </mask>
                <g id="SVGID_37_"></g>
                <polygon id="polygon177" fill="url(#linearGradient-45)" mask="url(#mask-44)" points="-7.339 11.615 5.63 -5.73 22.283 6.721 9.314 24.066"></polygon>
            </g>
            <g id="polygon194-Clipped" transform="translate(110.000000, 12.000000)">
                <mask id="mask-47" fill="white">
                    <use xlink:href="#path-46"></use>
                </mask>
                <g id="SVGID_39_"></g>
                <polygon id="polygon194" fill="url(#linearGradient-48)" mask="url(#mask-47)" points="-8.095 10.96 4.702 -6.156 21.166 6.154 8.37 23.269"></polygon>
            </g>
            <g id="polygon211-Clipped" transform="translate(125.000000, 12.000000)">
                <mask id="mask-50" fill="white">
                    <use xlink:href="#path-49"></use>
                </mask>
                <g id="SVGID_41_"></g>
                <polygon id="polygon211" fill="url(#linearGradient-51)" mask="url(#mask-50)" points="-7.704 11.047 5.167 -6.168 21.8 6.268 8.929 23.483"></polygon>
            </g>
            <g id="polygon228-Clipped" transform="translate(141.000000, 12.000000)">
                <mask id="mask-53" fill="white">
                    <use xlink:href="#path-52"></use>
                </mask>
                <g id="SVGID_43_"></g>
                <polygon id="polygon228" fill="url(#linearGradient-54)" mask="url(#mask-53)" points="-7.48 11.633 4.468 -4.347 19.333 6.767 7.384 22.747"></polygon>
            </g>
            <g id="polygon245-Clipped" transform="translate(155.000000, 13.000000)">
                <mask id="mask-56" fill="white">
                    <use xlink:href="#path-55"></use>
                </mask>
                <g id="SVGID_45_"></g>
                <polygon id="polygon245" fill="url(#linearGradient-57)" mask="url(#mask-56)" points="-7.672 11.802 6.367 -6.975 24.714 6.743 10.675 25.52"></polygon>
            </g>
            <g id="polygon262-Clipped" transform="translate(173.000000, 15.000000)">
                <mask id="mask-59" fill="white">
                    <use xlink:href="#path-58"></use>
                </mask>
                <g id="SVGID_47_"></g>
                <polygon id="polygon262" fill="url(#linearGradient-60)" mask="url(#mask-59)" points="-7.561 11.642 5.645 -6.022 22.613 6.665 9.408 24.328"></polygon>
            </g>
            <g id="polygon279-Clipped" transform="translate(190.000000, 16.000000)">
                <mask id="mask-62" fill="white">
                    <use xlink:href="#path-61"></use>
                </mask>
                <g id="SVGID_49_"></g>
                <polygon id="polygon279" fill="url(#linearGradient-63)" mask="url(#mask-62)" points="-7.95 12.691 5.476 -5.266 22.555 7.503 9.128 25.46"></polygon>
            </g>
            <g id="polygon296-Clipped" transform="translate(205.000000, 19.000000)">
                <mask id="mask-65" fill="white">
                    <use xlink:href="#path-64"></use>
                </mask>
                <g id="SVGID_51_"></g>
                <polygon id="polygon296" fill="url(#linearGradient-66)" mask="url(#mask-65)" points="-7.851 11.894 5.083 -5.405 21.403 6.797 8.47 24.096"></polygon>
            </g>
            <g id="polygon313-Clipped" transform="translate(220.000000, 23.000000)">
                <mask id="mask-68" fill="white">
                    <use xlink:href="#path-67"></use>
                </mask>
                <g id="SVGID_53_"></g>
                <polygon id="polygon313" fill="url(#linearGradient-69)" mask="url(#mask-68)" points="-8.479 12.551 5.537 -6.195 23.246 7.044 9.229 25.79"></polygon>
            </g>
        </g>
    </g>
</svg>