<?xml version="1.0" encoding="UTF-8"?>
<svg width="400px" height="400px" viewBox="0 0 400 400" version="1.1" xmlns="http://www.w3.org/2000/svg" xmlns:xlink="http://www.w3.org/1999/xlink">
    <!-- Generator: Sketch 52.2 (67145) - http://www.bohemiancoding.com/sketch -->
    <title>DC United</title>
    <desc>Created with Sketch.</desc>
    <defs>
        <polygon id="path-1" points="0 646.697506 837.997886 646.697506 837.997886 0 0 0"></polygon>
        <polygon id="path-3" points="0.00318914257 0.00208830463 306.155561 0.00208830463 306.155561 323.57291 0.00318914257 323.57291"></polygon>
    </defs>
    <g id="DC-United" stroke="none" stroke-width="1" fill="none" fill-rule="evenodd">
        <g id="d-c-united-seeklogo.com" transform="translate(-9.000000, -41.000000)">
            <g id="g10" transform="translate(419.000000, 323.500000) scale(-1, 1) rotate(-180.000000) translate(-419.000000, -323.500000) ">
                <g id="g42" transform="translate(0.000000, -0.000000)">
                    <g id="g44">
                        <g id="g46-Clipped">
                            <mask id="mask-2" fill="white">
                                <use xlink:href="#path-1"></use>
                            </mask>
                            <g id="path50"></g>
                        </g>
                    </g>
                </g>
                <g id="g148" transform="translate(55.463297, 245.265211)">
                    <g id="g150-Clipped" transform="translate(0.000000, 0.000000)">
                        <mask id="mask-4" fill="white">
                            <use xlink:href="#path-3"></use>
                        </mask>
                        <g id="path154"></g>
                        <g id="g150" mask="url(#mask-4)">
                            <g transform="translate(-1.063048, -1.000000)" id="g160">
                                <g transform="translate(0.533969, 0.347821)">
                                    <path d="M154.027827,4.22206151 C200.794322,30.7009804 228.884894,68.9211151 247.784117,112.91968 C267.162454,123.874834 286.051357,135.66518 285.286633,180.992915 C296.915653,195.494243 297.764775,213.250709 294.689964,236.533865 C303.618538,253.80663 305.43949,272.030519 298.193996,293.694155 C293.948239,275.784149 282.571996,273.286236 269.844419,266.633459 L272.050441,311.649636 C197.234907,324.883085 119.273699,326.217789 37.1082464,311.649636 L37.9354994,266.496207 C24.9574112,272.608882 8.99449826,275.546568 8.78350458,294.367775 C3.25621024,275.702532 0.000712241841,260.045718 11.7388936,241.380474 C7.22628879,214.153164 10.7397246,193.583556 23.872061,180.992915 C18.4065403,143.184218 33.8868829,124.409538 59.1685449,114.292108 C70.2070815,70.0109576 103.418429,34.2137814 154.027827,4.22206151 Z" id="path3033" fill="#FFFFFF"></path>
                                    <g id="g3859" fill-rule="nonzero">
                                        <g id="g156" transform="translate(69.747190, 47.487981)" fill="#EF3E42">
                                            <path d="M139.259226,60.3157691 C151.810628,64.3431694 166.749635,69.4424974 166.749635,69.4424974 L0.794096501,69.4488464 C0.794096501,69.4488464 16.1349353,64.0786266 28.7809487,60.2670932 C39.6474205,56.9899365 52.7484182,52.331866 56.772053,43.3839687 L110.927946,43.3839687 C115.332152,52.331866 128.456537,56.8502578 139.259226,60.3157691 Z M51.3069257,13.3223778 C48.2166466,7.64317194 44.2918751,2.9067968 42.5080814,0.354487415 L125.708559,0.354487415 C123.924765,2.9067968 120.145631,7.75004725 116.733249,13.3223778 C114.193628,17.4693514 111.946346,21.5242642 110.474025,26.2828609 L57.1175435,26.2828609 C55.7812927,21.887217 53.6466933,17.6238445 51.3069257,13.3223778 Z M125.645839,91.8905452 L116.512135,91.8905452 L123.902441,86.5467797 L121.08005,77.8983449 L128.469293,83.2431686 L135.860663,77.8983449 L133.036145,86.5467797 L140.426452,91.8905452 L131.291684,91.8905452 L128.469293,100.534747 L125.645839,91.8905452 Z M80.6215242,91.8905452 L71.4867569,91.8905452 L78.8770633,86.5467797 L76.053609,77.8983449 L83.4439154,83.2431686 L90.8310327,77.8983449 L88.0107676,86.5467797 L95.3968218,91.8905452 L86.2663066,91.8905452 L83.4439154,100.534747 L80.6215242,91.8905452 Z M37.8179157,100.534747 L40.6413699,91.8905452 L49.7750742,91.8905452 L42.3837048,86.5467797 L45.207159,77.8983449 L37.8179157,83.2431686 L30.4276093,77.8983449 L33.2510635,86.5467797 L25.8607571,91.8905452 L34.9955245,91.8905452 L37.8179157,100.534747 Z" id="path158"></path>
                                        </g>
                                        <path d="M209.420362,307.927874 C209.420362,307.927874 201.763231,308.474949 198.676141,308.660129 C194.410131,308.915148 188.453876,309.254821 188.453876,309.254821 L186.193837,304.71844 L194.381429,304.253903 L194.384618,263.489967 C194.384618,263.489967 202.064073,262.962997 201.905679,262.968288 L201.90249,303.807355 L209.460758,303.285676 L209.420362,307.927874 Z M229.868081,265.525888 L220.602559,266.60099 L220.621694,283.015345 L225.572306,282.504248 L228.307528,287.722091 L220.610001,288.525243 L220.610001,302.178829 L228.677468,301.319594 L228.713612,306.06655 C228.713612,306.06655 223.533381,306.598811 221.231883,306.852772 C219.342848,307.061232 213.08575,307.653808 213.08575,307.653808 L213.08575,262.142914 C213.08575,262.142914 218.845342,261.570444 221.008643,261.341879 C223.42814,261.086859 229.90954,260.394815 229.90954,260.394815 L229.868081,265.525888 Z M183.328924,309.527829 L175.788728,309.780732 L175.788728,264.407401 L183.328924,263.978842 L183.328924,309.527829 Z M167.804178,309.988134 L160.203388,310.06538 L160.180001,293.327225 L152.574959,310.133103 L145.520576,310.104533 L145.520576,264.700515 L153.052267,264.699456 L153.052267,296.077413 L160.394737,281.637606 L160.394737,264.721678 L167.804178,264.578825 L167.804178,309.988134 Z M138.253583,309.959563 L130.560308,309.763801 L130.560308,271.487626 C130.560308,268.791405 129.004006,268.315228 127.457272,268.291948 C125.550165,268.263378 124.481802,269.103566 124.481802,271.174407 L124.481802,309.564865 L116.89058,309.212494 L116.89058,271.556407 C116.89058,267.624242 118.498971,266.451788 119.262239,265.774559 C120.707983,264.493113 123.966224,263.622238 127.367976,263.758742 C131.386296,263.919584 133.64102,264.762947 135.593838,266.212642 C137.409523,267.559694 138.253583,269.695084 138.253583,272.143692 L138.253583,309.959563 Z M94.6569407,308.096123 C93.32069,308.004062 89.0780673,307.738461 86.4895466,305.093033 C84.0987527,302.649715 84.2412011,299.478375 84.2603359,298.359888 L84.2603359,269.463344 C84.306047,266.862359 85.2766094,264.759772 87.0317008,263.38944 C87.8544996,262.746072 89.6723109,261.324948 94.5835904,261.776787 C98.7454215,262.158787 101.0331,263.468803 102.296,264.579883 C104.529463,266.545965 104.625137,269.026319 104.607066,270.143748 L104.598561,280.851384 L97.1349045,277.714964 L97.1412828,270.03264 C97.1412828,267.694081 96.2993491,266.645434 94.5038619,266.428508 C93.3270683,266.287772 91.7314339,266.457079 91.7314339,269.374458 L91.7314339,300.642364 C91.7314339,302.414801 92.6488439,303.458158 94.1987672,303.626407 C95.7795189,303.799947 97.057302,303.111078 97.057302,301.034946 L97.0647433,292.068001 L104.534778,295.23405 L104.518833,299.641334 C104.518833,301.966136 104.292403,303.799947 103.453659,305.081393 C101.77617,307.638993 97.7833635,308.310932 94.6569407,308.096123 Z M110.13385,263.057174 C110.858848,263.113258 111.464785,263.436 111.952724,264.027518 C112.4396,264.617977 112.653272,265.288858 112.596931,266.041218 C112.538463,266.792519 112.223801,267.42319 111.651881,267.928995 C111.082088,268.43586 110.433629,268.660192 109.709694,268.604109 C108.983632,268.544851 108.378758,268.221051 107.891882,267.630591 C107.405007,267.040132 107.189208,266.366076 107.246613,265.616891 C107.302954,264.866647 107.618679,264.238094 108.189536,263.73123 C108.761455,263.221191 109.409914,262.997917 110.13385,263.057174 Z M78.043634,260.342965 C78.7686324,260.400106 79.3756325,260.72179 79.8625083,261.314366 C80.3493841,261.903768 80.5641197,262.575706 80.5077782,263.328066 C80.4493105,264.079368 80.1335854,264.70898 79.5627289,265.215844 C78.9918724,265.722708 78.3444764,265.94704 77.618415,265.889899 C76.8944796,265.830642 76.2906686,265.506841 75.8016668,264.916382 C75.314791,264.325922 75.1000554,263.652925 75.1563969,262.90374 C75.2138015,262.153496 75.5295266,261.523884 76.1003831,261.018078 C76.6712396,260.506981 77.3218247,260.283707 78.043634,260.342965 Z M247.799567,264.658188 C247.799567,263.777789 247.648614,263.347113 247.360528,263.127014 C246.898103,262.775701 246.214563,262.840249 245.459799,262.953474 L241.953869,263.451872 L241.953869,299.891062 L245.739381,299.35986 C246.868337,299.204309 247.198945,298.924952 247.485968,298.29534 C247.686884,297.854082 247.797441,297.175794 247.799567,295.817102 L247.799567,264.658188 Z M255.380159,292.131491 C255.380159,293.205535 255.516229,296.881623 254.971949,298.514381 C254.289472,300.560885 253.341234,301.362979 251.959272,302.196818 C250.62621,302.99997 248.268371,303.420064 245.01013,303.948091 C241.794412,304.451781 234.358394,305.344878 234.358394,305.344878 L234.358394,259.77261 C234.358394,259.77261 239.057064,259.173685 240.604861,258.918666 C242.140965,258.662589 247.884611,257.877425 249.079476,257.863669 C251.611655,257.835099 252.261178,258.368417 253.010626,258.838245 C254.531847,259.792716 255.404609,261.623352 255.404609,264.247617 L255.380159,292.131491 Z M64.6481721,263.978842 C64.1942509,263.558748 63.4448023,263.391557 62.8803241,263.316426 L59.2340711,262.836017 L59.2074949,299.537633 L63.0759249,300.057195 C63.9423086,300.172536 64.4323735,300.006403 64.7874314,299.629694 C65.1616241,299.231821 65.2062721,298.454066 65.2094612,297.096432 L65.2339113,265.885667 C65.2339113,265.205262 65.2062721,264.494171 64.6481721,263.978842 Z M72.8028097,295.368438 C72.8028097,296.701734 72.6805592,299.711173 71.7929146,301.264569 C70.9456657,302.746009 69.8400963,303.648629 68.6962571,304.107875 C67.5481658,304.570296 65.8143353,304.775581 62.4317181,304.304695 C59.2202515,303.91423 51.6077682,302.678286 51.6077682,302.678286 L51.6460379,257.529287 C51.6460379,257.529287 56.234151,258.115514 57.8723072,258.346195 C59.6093269,258.591691 64.9925995,259.241408 66.2055368,259.493253 C68.7249594,260.014932 69.6827652,260.936599 70.4311507,261.613829 C71.9523717,262.991568 72.8283228,265.065584 72.8283228,267.689849 L72.8028097,295.368438 Z M153.362677,13.8948485 C165.779072,20.4375222 185.385921,38.6803969 195.513575,47.8684991 L112.205729,47.8642664 C122.025099,36.7926192 142.073112,19.8385972 153.362677,13.8948485 Z M126.519664,90.8715261 C127.652873,88.9096764 128.043011,86.3002257 128.254558,83.4981879 C128.540517,79.7247487 127.353093,75.0603293 126.883226,73.7704183 L180.232266,73.7704183 C179.762399,75.0603293 178.573912,79.7247487 178.859872,83.4981879 C179.071419,86.3002257 179.510457,88.9096764 180.644729,90.8715261 L126.519664,90.8715261 Z M183.95187,83.9881213 C182.973866,73.1281083 197.445132,57.289399 201.097763,53.665162 C209.330003,62.2088377 216.921226,72.3143745 222.600025,81.1183604 C227.744112,89.0948564 234.156415,101.084996 237.624076,109.859354 C227.414568,105.950468 218.34252,103.117744 209.682935,100.386603 C198.991866,97.0131529 184.727894,92.5974037 183.95187,83.9881213 Z M97.638789,100.206714 C89.3002442,102.79606 79.9071563,105.884862 69.6965848,109.793747 C73.1653089,101.01939 79.5765485,89.0303079 84.7216985,81.053812 C90.4004984,72.2487679 98.0990886,62.0321231 106.332392,53.4873892 C110.449575,57.7211329 123.369854,73.0191166 123.369854,83.9225146 C123.369854,92.3222791 108.344741,96.8819396 97.638789,100.206714 Z M202.779504,134.018464 L210.169811,139.36223 L201.035043,139.36223 L198.212652,148.006432 L195.389198,139.36223 L186.255494,139.36223 L193.6458,134.018464 L190.823409,125.371088 L198.212652,130.713795 L205.604022,125.371088 L202.779504,134.018464 Z M165.883251,168.151899 C165.136992,168.831245 161.510936,173.497781 161.357858,179.356876 C161.1006,189.270884 167.946626,195.211458 176.893234,195.211458 C183.506453,195.211458 185.493289,191.332201 185.493289,191.332201 C186.173639,192.146993 187.329172,195.02522 186.909268,197.487584 C186.1949,201.682176 182.649636,203.426042 177.035683,203.431333 C171.180417,203.436624 167.538416,201.809156 167.538416,201.809156 L166.815544,201.536148 C166.815544,201.536148 167.890285,206.742351 164.055872,209.783536 C161.105915,212.126327 156.019233,211.360211 151.595892,210.612084 C146.060604,209.704173 137.54453,209.697824 133.114811,211.901995 C133.114811,211.901995 135.481155,208.400506 134.968766,204.010153 C134.58288,200.691727 132.092159,198.344703 130.743152,197.383884 C133.064848,195.671762 137.472243,192.648567 137.472243,183.948281 C137.472243,176.839486 132.703412,170.067189 130.655982,168.42914 C134.821002,169.19314 139.429313,169.439694 142.411162,168.360359 C149.427275,165.819689 150.628519,160.82512 151.534235,158.392384 L152.186947,158.66116 C151.564001,161.955247 151.367337,167.820691 154.775467,169.646037 C157.471356,171.088325 162.507012,169.468264 165.75037,167.747677 C165.75037,167.747677 165.753559,168.225971 165.883251,168.151899 Z M157.750937,134.018464 L165.140181,139.36223 L156.006476,139.36223 L153.184085,148.006432 L150.361694,139.36223 L141.226927,139.36223 L148.617233,134.018464 L145.793779,125.371088 L153.184085,130.713795 L160.573329,125.371088 L157.750937,134.018464 Z M112.123875,134.018464 L119.514181,139.36223 L110.38154,139.36223 L107.558085,148.006432 L104.735694,139.36223 L95.6009269,139.36223 L102.991233,134.018464 L100.167779,125.371088 L107.558085,130.713795 L114.947329,125.371088 L112.123875,134.018464 Z M286.700728,231.962808 C289.688955,221.093272 288.271912,210.281935 286.34567,203.741377 C280.37028,183.451999 263.263719,175.935808 250.18292,168.606913 C243.937515,165.106482 239.080451,162.029319 235.575584,158.976495 C223.386681,148.353512 225.612702,140.759016 225.612702,140.759016 C230.008404,149.484697 243.205076,155.192474 254.74233,160.991253 C270.481812,168.904259 275.525973,176.10829 275.525973,176.10829 C277.831723,162.484333 273.62737,149.80744 268.130351,140.967476 C256.319893,121.975416 237.219055,117.202005 236.653514,116.91524 L70.5480859,116.91524 C69.9825446,117.202005 50.8955263,121.975416 39.0861314,140.967476 C33.5880496,149.80744 29.3847597,162.484333 31.6894467,176.10829 C31.6894467,176.10829 36.7346702,168.904259 52.4741519,160.991253 C64.0103436,155.192474 77.2070156,149.484697 81.6037802,140.759016 C81.6037802,140.759016 83.8298017,148.353512 71.6398357,158.976495 C68.1360311,162.029319 63.2789669,165.106482 57.0335627,168.606913 C43.9516999,175.935808 26.8451391,183.451999 20.869749,203.741377 C18.9435069,210.281935 17.5275276,221.093272 20.5146911,231.962808 C20.5146911,231.962808 23.30838,222.571537 43.7188925,212.459651 C58.5207662,205.126524 68.6186546,198.17857 73.0600672,188.102662 C73.0600672,188.102662 76.4873324,200.558398 62.9472961,210.679807 C59.074614,213.574964 55.8822823,215.529407 47.2790386,220.257316 C41.5747256,223.392678 28.6470047,229.863396 19.4686524,243.221752 C13.7016195,251.615167 9.92673778,261.65933 11.7689991,272.339454 C11.7689991,272.339454 13.6261432,268.315228 20.623122,264.012703 C29.0966738,258.803325 38.3218002,256.156839 51.3154301,252.65535 C63.5957551,249.346448 84.6175199,245.233336 97.033915,238.343582 C102.645743,235.230441 106.220772,230.780831 106.297311,225.789436 C106.49929,212.598272 94.5708339,200.051534 94.5708339,182.894343 C94.5708339,172.115809 100.168842,165.026061 112.257819,165.026061 C117.957879,165.026061 122.387598,167.060924 125.657533,170.023804 C129.705618,173.692484 131.873171,178.784405 131.873171,183.19698 C131.873171,194.143763 124.035322,196.562743 122.246213,197.453723 C126.465449,199.172193 129.370758,201.925555 129.782157,206.105332 C130.109576,209.419525 129.445171,211.77184 128.812658,213.121008 C127.66244,215.578082 126.367648,217.136769 126.367648,217.136769 C126.367648,217.136769 130.102134,215.81088 135.229213,215.281794 C148.226032,213.938975 152.772686,215.999235 159.276411,215.999235 C165.533508,215.999235 171.350504,212.983446 171.087932,206.832296 C171.087932,206.832296 174.125058,207.766661 178.430401,207.766661 C187.910659,207.766661 191.333672,202.077932 191.333672,196.954266 C191.333672,189.30792 186.261872,185.631832 184.944756,185.242425 C184.177236,188.680424 180.055801,190.457094 176.858154,190.457094 C172.275356,190.457094 166.708176,187.498446 166.708176,180.096538 C166.708176,175.165459 169.439145,171.425881 171.170849,169.931743 C173.793388,167.669373 179.101184,164.88744 189.858162,164.88744 C204.306041,164.88744 212.644585,172.115809 212.644585,182.894343 C212.644585,200.051534 200.624707,212.501978 200.919171,225.789436 C201.028665,230.779773 204.478254,235.135206 210.228278,238.342523 C222.629791,245.262964 243.616475,249.34539 255.899989,252.65535 C268.893619,256.156839 278.118745,258.803325 286.592297,264.012703 C293.589276,268.315228 295.44642,272.339454 295.44642,272.339454 C297.288682,261.65933 293.5138,251.615167 287.746767,243.221752 C278.569478,229.863396 265.640694,223.392678 259.937444,220.257316 C251.333137,215.529407 248.140805,213.574964 244.268123,210.679807 C230.728087,200.558398 234.155352,188.102662 234.155352,188.102662 C238.596765,198.17857 248.695716,205.126524 263.496527,212.459651 C283.907039,222.571537 286.700728,231.962808 286.700728,231.962808 Z M298.396377,285.658657 C296.382965,280.570969 291.957498,275.789093 287.555418,271.988141 C282.288018,267.439062 273.194709,263.301612 267.720015,262.407457 L267.720015,310.066438 C260.779377,311.50661 220.325104,320.013249 153.533828,320.013249 C86.7489302,320.013249 46.437105,311.50661 39.4954047,310.066438 L39.4954047,262.407457 C34.0207099,263.301612 24.9274014,267.439062 19.6600009,271.988141 C15.2579211,275.789093 10.8324543,280.570969 8.82010531,285.658657 C6.11464936,279.309629 5.0664845,271.28869 5.27803096,264.458193 C5.65222369,252.304037 9.73432618,245.412167 15.3642259,237.270596 C15.3642259,237.270596 11.3076365,228.614754 12.2112269,211.634278 C12.9787472,197.250554 21.3332377,185.554586 25.1697762,180.235158 C20.8038401,154.836928 32.5813436,137.607782 39.8323907,129.320184 C48.6939549,119.192425 60.6819418,113.875114 60.6819418,113.875114 C64.4940303,103.8955 74.3208416,81.8865929 87.618503,64.7484491 C103.73643,43.972312 127.068197,19.6005086 153.362677,5.98713371 C179.662473,19.6005086 203.47899,43.972312 219.597979,64.7484491 C232.894578,81.8865929 242.721389,103.8955 246.534541,113.875114 C246.534541,113.875114 258.521464,119.192425 267.383029,129.320184 C274.634076,137.607782 286.411579,154.836928 282.045643,180.235158 C285.882182,185.554586 294.237735,197.250554 295.004192,211.634278 C295.907783,228.614754 291.851193,237.270596 291.851193,237.270596 C297.481093,245.412167 301.563196,252.304037 301.938451,264.458193 C302.148935,271.28869 301.10077,279.309629 298.396377,285.658657 Z M306.658382,263.451872 C306.353288,251.798231 301.853408,242.728644 297.008037,236.521411 C297.008037,236.521411 299.790032,227.459231 299.769834,215.949501 C299.727313,194.488727 289.641118,183.112326 287.087677,179.251059 C289.254168,165.03241 286.53383,151.377766 281.079333,140.694468 C274.326855,127.467325 265.132557,118.352237 250.669795,111.088949 C250.669795,111.088949 239.725721,83.9172238 225.435173,64.4172414 C194.845981,22.6744965 159.559181,2.66235921 153.408388,0.653949918 C146.721819,2.77029269 112.498067,22.4998982 81.780246,64.4172414 C67.4907612,83.9172238 56.5456239,111.088949 56.5456239,111.088949 C42.0828623,118.352237 32.8885643,127.467325 26.1360864,140.694468 C20.6815896,151.377766 17.961251,165.03241 20.1288049,179.251059 C17.5753647,183.112326 7.48916981,194.488727 7.44664791,215.949501 C7.42645,227.459231 10.2084454,236.521411 10.2084454,236.521411 C5.36307476,242.728644 0.862131542,251.798231 0.557036903,263.451872 C0.372066634,270.613576 1.0534801,281.261955 7.05544642,292.740998 C7.80808407,294.180111 8.81797921,295.605468 9.49195134,296.552532 C9.49195134,296.552532 10.8813545,291.010888 13.6580346,286.109438 C15.3769824,283.075661 17.2436939,280.341346 21.36194,276.583779 C26.440118,271.950047 31.8340212,269.536358 35.1422251,268.501466 L35.0975771,313.273756 C55.7270773,317.799555 97.4102338,324.224772 153.465793,324.224772 C209.525604,324.224772 250.818622,317.799555 272.117842,313.273756 L272.073194,268.501466 C275.381398,269.536358 280.776364,271.950047 285.853479,276.583779 C289.971725,280.341346 291.8395,283.075661 293.557385,286.109438 C296.334065,291.010888 297.723468,296.552532 297.723468,296.552532 C298.39744,295.605468 299.407335,294.180111 300.159973,292.740998 C306.161939,281.261955 306.843353,270.613576 306.658382,263.451872 Z M204.105125,174.741132 C205.493465,176.44373 206.560764,179.549463 206.585215,182.7917 C206.62561,188.350274 204.563298,195.675995 200.644905,204.726535 C198.230724,210.304156 194.214531,219.262635 194.792828,227.584095 C195.191471,233.314093 199.532957,238.621881 205.888918,242.053531 C216.520457,247.793052 231.11291,251.15063 231.11291,251.15063 C208.104309,253.443687 181.163496,255.223532 153.336101,255.223532 C125.285466,255.223532 98.7496737,253.48284 75.7187491,251.15063 C75.7187491,251.15063 90.1209169,247.793052 100.941678,242.053531 C107.324215,238.669498 111.640188,233.314093 112.038831,227.584095 C112.616066,219.262635 108.600935,210.304156 106.186754,204.726535 C102.268361,195.675995 100.206049,188.350274 100.246445,182.7917 C100.270895,179.549463 101.269096,176.451137 102.559636,174.674467 C104.279647,172.30628 106.894744,169.906347 112.735127,169.906347 C122.520479,169.906347 126.240083,178.592876 126.240083,183.773683 C126.240083,188.903698 123.544194,191.351248 121.660474,192.975542 C119.047503,195.22733 115.404439,196.816704 113.435675,197.432559 C113.435675,197.432559 124.702916,201.0314 124.702916,207.565609 C124.702916,212.921014 121.429793,219.051001 117.209494,223.506961 L117.485886,223.793725 C118.642482,223.147182 122.826637,221.580031 126.404855,220.930313 C130.262654,220.230862 136.014805,219.628762 142.306983,219.628762 C150.965505,219.628762 154.909411,220.650956 161.316399,220.650956 C167.992337,220.650956 173.90926,217.508187 175.358194,211.487192 C175.358194,211.487192 178.971492,211.992998 182.43809,211.643801 C190.375866,210.848056 195.798471,205.287366 195.938794,198.057939 C196.216249,183.80437 183.969942,179.20979 181.624859,178.869059 C181.624859,178.869059 182.107482,179.97379 181.847036,181.747285 C181.597219,183.454115 180.021783,185.740824 177.408812,185.740824 C173.693461,185.740824 171.834191,182.695407 171.957504,179.667978 C172.226456,173.044883 179.708184,170.2111 187.215426,169.80053 C188.352886,169.738098 189.160803,169.709527 190.230228,169.738098 C197.20382,169.92222 201.579324,171.642806 204.105125,174.741132 Z M166.579547,201.408109 C165.729109,201.975289 164.725592,202.457815 163.513718,202.823943 C162.067973,203.258851 160.225712,203.605931 156.131916,203.460962 C153.615682,203.371017 150.334055,203.460962 150.334055,203.460962 C150.334055,203.460962 153.149005,199.661068 154.425725,198.708714 C156.472091,197.181773 159.841952,198.556337 162.611191,199.727733 C163.944252,200.356287 166.579547,201.408109 166.579547,201.408109 Z M229.911666,52.6292122 L231.153306,47.7415185 L232.360928,47.7415185 L233.604693,52.6292122 L233.604693,47.7415185 L234.772983,47.7415185 L234.772983,53.9603918 L232.875443,53.9603918 L231.764558,49.7181827 L230.634539,53.9603918 L228.748692,53.9603918 L228.748692,47.7415185 L229.911666,47.7415185 L229.911666,52.6292122 Z M226.108082,47.7415185 L224.854749,47.7415185 L224.854749,52.900104 L222.996542,52.900104 L222.996542,53.9603918 L227.958848,53.9603918 L227.958848,52.900104 L226.108082,52.900104 L226.108082,47.7415185 Z" id="path162" fill="#231F20"></path>
                                    </g>
                                </g>
                            </g>
                        </g>
                    </g>
                </g>
            </g>
        </g>
    </g>
</svg>