<?xml version="1.0" encoding="UTF-8"?>
<svg width="400px" height="400px" viewBox="0 0 400 400" version="1.1" xmlns="http://www.w3.org/2000/svg" xmlns:xlink="http://www.w3.org/1999/xlink">
    <!-- Generator: Sketch 52.2 (67145) - http://www.bohemiancoding.com/sketch -->
    <title>Wales</title>
    <desc>Created with Sketch.</desc>
    <g id="Wales" stroke="none" stroke-width="1" fill="none" fill-rule="evenodd">
        <g id="Crest" transform="translate(59.000000, 38.000000)">
            <path d="M282.38,283.8 C278.76,276.23 274.02,267.01 271.03,259.01 C271.03,264.69 263.81,271.01 255.29,274.56 C218.59,289.97 176.29,297.22 141.38,297.22 C106.47,297.22 64.18,290 27.47,274.56 C18.95,270.98 11.73,264.68 11.73,259.01 C8.73,267.01 4,276.23 0.38,283.8 C-2,288.33 7.12,295.27 22,301.21 C63.49,317.8 109.31,324 141.38,324 C173.45,324 219.26,317.77 260.77,301.18 C275.65,295.23 284.77,288.29 282.39,283.77" id="Path" fill="#D90912"></path>
            <path d="M230.76,243.08 C234.16,236.3 267.93,203.98 271.98,144.59 C276.03,180.59 260.19,219.7 246.64,240.75 C257.55,235.26 271.99,212.07 274.23,200.83 C273.4,219.25 263.72,239.57 253.47,250.11 C250.81,250.74 225.64,253.31 230.76,243.11" id="Path" fill="#D90912"></path>
            <path d="M55.35,245.7 C55.8095168,247.132258 55.6635226,248.690116 54.9458967,250.012058 C54.2282708,251.334001 53.0014034,252.305099 51.55,252.7 C40.41,256.18 17.7,250.19 15.55,256.25 C13.4,262.31 25.18,271.5 41.67,276.1 C44.79,260.93 63.67,254.05 55.35,245.7" id="Path" fill="#007C34"></path>
            <path d="M52.1,243.08 C48.71,236.3 14.93,203.98 10.88,144.59 C6.83,180.59 22.67,219.7 36.22,240.75 C25.31,235.26 10.87,212.07 8.63,200.83 C9.46,219.25 19.14,239.57 29.39,250.11 C32.05,250.74 57.23,253.31 52.1,243.11" id="Path" fill="#D90912"></path>
            <path d="M227.51,245.7 C227.050483,247.132258 227.196477,248.690116 227.914103,250.012058 C228.631729,251.334001 229.858597,252.305099 231.31,252.7 C242.45,256.18 265.16,250.19 267.31,256.25 C269.46,262.31 257.7,271.5 241.18,276.1 C238.06,260.93 219.18,254.05 227.5,245.7" id="Path" fill="#007C34"></path>
            <path d="M245.98,18.83 C302.3,167.89 184.93,252.19 141.4,282.15 C97.88,252.15 -19.51,167.89 36.81,18.83 C-11.47,109.83 10.74,227.67 141.41,293.25 C272.06,227.67 294.25,109.79 245.98,18.83" id="Path" fill="#005F27"></path>
            <path d="M245.98,18.83 C245.98,18.83 207.8,0 141.41,0 L141.34,0 C74.95,0 36.78,18.83 36.78,18.83 C-36.22,190.94 115.53,274.52 141.38,287.02 C167.23,274.52 319.02,190.94 245.98,18.83" id="Path" fill="#007C34"></path>
            <path d="M32.86,97.38 C33.6826574,96.5767853 34.2110227,95.5200547 34.36,94.38 C33.2953302,93.9348007 32.1118178,93.8608312 31,94.17 C30.7107535,93.049537 30.0518766,92.0594601 29.13,91.36 C28.2087005,92.0600024 27.5499697,93.04986 27.26,94.17 C26.1450696,93.8585088 24.9576344,93.9325033 23.89,94.38 C24.0404805,95.5195944 24.5686128,96.5758589 25.39,97.38 C24.5686128,98.1841411 24.0404805,99.2404056 23.89,100.38 C24.9563069,100.831585 26.1440328,100.909122 27.26,100.6 C27.5492465,101.720463 28.2081234,102.71054 29.13,103.41 C30.0518766,102.71054 30.7107535,101.720463 31,100.6 C32.1128523,100.906794 33.2966527,100.829283 34.36,100.38 C34.2110227,99.2399453 33.6826574,98.1832147 32.86,97.38 Z M28.38,98.68 L27.62,97.38 L28.37,96.08 L29.86,96.08 L30.61,97.38 L29.86,98.68 L28.37,98.68 L28.38,98.68 Z" id="Shape" fill="#FFD500" fill-rule="nonzero"></path>
            <path d="M51.31,26.07 C52.1277151,25.2644273 52.6522479,24.208321 52.8,23.07 C51.73551,22.6240306 50.5517353,22.5500447 49.44,22.86 C49.1507535,21.739537 48.4918766,20.7494601 47.57,20.05 C46.6487005,20.7500024 45.9899697,21.73986 45.7,22.86 C44.5850696,22.5485088 43.3976344,22.6225033 42.33,23.07 C42.4792389,24.2078686 43.0035438,25.263516 43.82,26.07 C43.0029156,26.8760294 42.4784971,27.9319056 42.33,29.07 C43.3963069,29.5215847 44.5840328,29.5991217 45.7,29.29 C45.9892465,30.410463 46.6481234,31.4005399 47.57,32.1 C48.4924561,31.4010848 49.1514798,30.4107872 49.44,29.29 C50.5528523,29.5967936 51.7366527,29.5192829 52.8,29.07 C52.6522479,27.931679 52.1277151,26.8755727 51.31,26.07 Z M46.82,27.37 L46.07,26.07 L46.82,24.77 L48.31,24.77 L49.06,26.07 L48.31,27.37 L46.82,27.37 Z" id="Shape" fill="#FFD500" fill-rule="nonzero"></path>
            <path d="M44.18,170.26 C44.9989842,169.455347 45.5237478,168.398776 45.67,167.26 C44.6066527,166.810717 43.4228523,166.733206 42.31,167.04 C42.0214798,165.919213 41.3624561,164.928915 40.44,164.23 C39.529229,164.920815 38.8747302,165.895526 38.58,167 C37.4638706,166.692459 36.2766732,166.769962 35.21,167.22 C35.3612272,168.359365 35.889244,169.415399 36.71,170.22 C35.889244,171.024601 35.3612272,172.080635 35.21,173.22 C36.2774531,173.668272 37.4651533,173.742283 38.58,173.43 C38.8699697,174.55014 39.5287005,175.539998 40.45,176.24 C41.3724561,175.541085 42.0314798,174.550787 42.32,173.43 C43.4317353,173.739955 44.61551,173.665969 45.68,173.22 C45.5329962,172.081452 45.0083484,171.025114 44.19,170.22 L44.18,170.26 Z M39.71,171.52 L38.96,170.22 L39.71,168.92 L41.18,168.92 L41.93,170.22 L41.18,171.52 L39.69,171.52 L39.71,171.52 Z" id="Shape" fill="#FFD500" fill-rule="nonzero"></path>
            <path d="M85.5,232.42 C86.3226574,231.616785 86.8510227,230.560055 87,229.42 C85.9333268,228.969962 84.7461294,228.892459 83.63,229.2 C83.3414798,228.079213 82.6824561,227.088915 81.76,226.39 C80.8387005,227.090002 80.1799697,228.07986 79.89,229.2 C78.7738706,228.892459 77.5866732,228.969962 76.52,229.42 C76.6719706,230.559137 77.1998727,231.614941 78.02,232.42 C77.199244,233.224601 76.6712272,234.280635 76.52,235.42 C77.5866732,235.870038 78.7738706,235.947541 79.89,235.64 C80.1812872,236.756814 80.8399788,237.74309 81.76,238.44 C82.6805969,237.743633 83.3394345,236.757138 83.63,235.64 C84.7429326,235.946007 85.9264705,235.868513 86.99,235.42 C86.8410227,234.279945 86.3126574,233.223215 85.49,232.42 L85.5,232.42 Z M81.01,233.72 L80.26,232.42 L81.01,231.12 L82.5,231.12 L83.25,232.42 L82.5,233.72 L81.01,233.72 Z" id="Shape" fill="#FFD500" fill-rule="nonzero"></path>
            <path d="M145.1,277 C145.922657,276.196785 146.451023,275.140055 146.6,274 C145.532185,273.553275 144.345013,273.479297 143.23,273.79 C142.94003,272.66986 142.281299,271.680002 141.36,270.98 C140.439848,271.68108 139.781406,272.670503 139.49,273.79 C138.374987,273.479297 137.187815,273.553275 136.12,274 C136.271227,275.139365 136.799244,276.195399 137.62,277 C136.799244,277.804601 136.271227,278.860635 136.12,280 C137.187815,280.446725 138.374987,280.520703 139.49,280.21 C139.780565,281.327138 140.439403,282.313633 141.36,283.01 C142.281175,282.314178 142.940159,281.327463 143.23,280.21 C144.345013,280.520703 145.532185,280.446725 146.6,280 C146.450269,278.860176 145.922021,277.803679 145.1,277 Z M140.62,278.31 L139.86,277 L140.61,275.7 L142.1,275.7 L142.85,277 L142.1,278.31 L140.61,278.31 L140.62,278.31 Z" id="Shape" fill="#FFD500" fill-rule="nonzero"></path>
            <path d="M113.62,11.48 C114.438348,10.6748862 114.962996,9.61854827 115.11,8.48 C114.04551,8.03403063 112.861735,7.9600447 111.75,8.27 C111.46003,7.14985998 110.801299,6.16000238 109.88,5.46 C108.959275,6.16054219 108.30069,7.15018183 108.01,8.27 C106.89507,7.95850884 105.707634,8.03250333 104.64,8.48 C104.791227,9.61936539 105.319244,10.675399 106.14,11.48 C105.319244,12.284601 104.791227,13.3406346 104.64,14.48 C105.706307,14.9315847 106.894033,15.0091217 108.01,14.7 C108.299247,15.820463 108.958123,16.8105399 109.88,17.51 C110.801877,16.8105399 111.460753,15.820463 111.75,14.7 C112.862852,15.0067936 114.046653,14.9292829 115.11,14.48 C114.962996,13.3414517 114.438348,12.2851138 113.62,11.48 Z M109.13,12.78 L108.38,11.48 L109.13,10.18 L110.62,10.18 L111.37,11.48 L110.62,12.78 L109.13,12.78 Z" id="Shape" fill="#FFD500" fill-rule="nonzero"></path>
            <path d="M248.35,100.44 C249.413711,100.887746 250.596988,100.965223 251.71,100.66 C251.99852,101.780787 252.657544,102.771085 253.58,103.47 C254.501877,102.77054 255.160753,101.780463 255.45,100.66 C256.566049,100.96833 257.753509,100.89081 258.82,100.44 C258.668773,99.3006346 258.140756,98.244601 257.32,97.44 C258.140756,96.635399 258.668773,95.5793654 258.82,94.44 C257.752366,93.9925033 256.56493,93.9185088 255.45,94.23 C255.16003,93.10986 254.501299,92.1200024 253.58,91.42 C252.658123,92.1194601 251.999247,93.109537 251.71,94.23 C250.598182,93.9208312 249.41467,93.9948007 248.35,94.44 C248.499731,95.5798242 249.027979,96.636321 249.85,97.44 C249.027979,98.243679 248.499731,99.3001758 248.35,100.44 Z M252.84,98.72 L252.09,97.42 L252.84,96.12 L254.33,96.12 L255.08,97.42 L254.32,98.72 L252.83,98.72 L252.84,98.72 Z" id="Shape" fill="#FFD500" fill-rule="nonzero"></path>
            <path d="M229.91,29.13 C230.97353,29.578513 232.157067,29.6560065 233.27,29.35 C233.55852,30.4707872 234.217544,31.4610848 235.14,32.16 C236.061877,31.4605399 236.720753,30.470463 237.01,29.35 C238.12493,29.6614912 239.312366,29.5874967 240.38,29.14 C240.228773,28.0006346 239.700756,26.944601 238.88,26.14 C239.700756,25.335399 240.228773,24.2793654 240.38,23.14 C239.312366,22.6925033 238.12493,22.6185088 237.01,22.93 C236.71931,21.8101818 236.060725,20.8205422 235.14,20.12 C234.218701,20.8200024 233.55997,21.80986 233.27,22.93 C232.157148,22.6232064 230.973347,22.7007171 229.91,23.15 C230.059731,24.2898242 230.587979,25.346321 231.41,26.15 C230.587979,26.953679 230.059731,28.0101758 229.91,29.15 L229.91,29.13 Z M234.4,27.43 L233.65,26.13 L234.4,24.83 L235.89,24.83 L236.64,26.13 L235.89,27.43 L234.4,27.43 Z" id="Shape" fill="#FFD500" fill-rule="nonzero"></path>
            <path d="M237.03,173.32 C238.09353,173.768513 239.277067,173.846007 240.39,173.54 C240.680565,174.657138 241.339403,175.643633 242.26,176.34 C243.179448,175.64255 243.837994,174.656491 244.13,173.54 C245.246129,173.847541 246.433327,173.770038 247.5,173.32 C247.348773,172.180635 246.820756,171.124601 246,170.32 C246.820127,169.514941 247.348029,168.459137 247.5,167.32 C246.432547,166.871728 245.244847,166.797717 244.13,167.11 C243.84003,165.98986 243.181299,165.000002 242.26,164.3 C241.338123,164.99946 240.679247,165.989537 240.39,167.11 C239.277229,166.802416 238.093164,166.879944 237.03,167.33 C237.179731,168.469824 237.707979,169.526321 238.53,170.33 C237.707979,171.133679 237.179731,172.190176 237.03,173.33 L237.03,173.32 Z M241.52,171.61 L240.77,170.31 L241.52,169.01 L243.01,169.01 L243.76,170.31 L243.01,171.61 L241.52,171.61 Z" id="Shape" fill="#FFD500" fill-rule="nonzero"></path>
            <path d="M195.71,235.48 C196.777815,235.926725 197.964987,236.000703 199.08,235.69 C199.36852,236.810787 200.027544,237.801085 200.95,238.5 C201.871877,237.80054 202.530753,236.810463 202.82,235.69 C203.935013,236.000703 205.122185,235.926725 206.19,235.48 C206.039519,234.340406 205.511387,233.284141 204.69,232.48 C205.510756,231.675399 206.038773,230.619365 206.19,229.48 C205.123327,229.029962 203.936129,228.952459 202.82,229.26 C202.53003,228.13986 201.871299,227.150002 200.95,226.45 C200.028123,227.14946 199.369247,228.139537 199.08,229.26 C197.963951,228.95167 196.776491,229.02919 195.71,229.48 C195.859731,230.619824 196.387979,231.676321 197.21,232.48 C196.388613,233.284141 195.860481,234.340406 195.71,235.48 Z M200.2,233.76 L199.45,232.46 L200.2,231.16 L201.69,231.16 L202.44,232.46 L201.69,233.76 L200.18,233.76 L200.2,233.76 Z" id="Shape" fill="#FFD500" fill-rule="nonzero"></path>
            <path d="M167.6,14.54 C168.66353,14.988513 169.847067,15.0660065 170.96,14.76 C171.24852,15.8807872 171.907544,16.8710848 172.83,17.57 C173.751877,16.8705399 174.410753,15.880463 174.7,14.76 C175.81493,15.0714912 177.002366,14.9974967 178.07,14.55 C177.918773,13.4106346 177.390756,12.354601 176.57,11.55 C177.390127,10.7449412 177.918029,9.68913708 178.07,8.55 C177.003509,8.09919017 175.816049,8.02167047 174.7,8.33 C174.41003,7.20985998 173.751299,6.22000238 172.83,5.52 C171.908123,6.21946006 171.249247,7.20953698 170.96,8.33 C169.847067,8.02399347 168.66353,8.10148702 167.6,8.55 C167.749731,9.68982421 168.277979,10.746321 169.1,11.55 C168.277979,12.353679 167.749731,13.4101758 167.6,14.55 L167.6,14.54 Z M172.09,12.83 L171.34,11.53 L172.09,10.23 L173.58,10.23 L174.33,11.53 L173.58,12.83 L172.09,12.83 Z" id="Shape" fill="#FFD500" fill-rule="nonzero"></path>
            <path d="M141.42,268.22 C127.77,260.11 99.93,241.3 77.14,211.38 C38.14,160.28 31.14,100.45 56.2,33.49 C68.95,28.49 98.43,19.09 141.4,19.09 C184.37,19.09 213.84,28.45 226.6,33.49 C251.77,100.73 244.56,160.8 205.18,212.06 C182.38,241.7 154.92,260.24 141.45,268.22" id="Path" fill="#FFFFFF"></path>
            <path d="M138.35,48.84 C137.58,51.72 133.44,51.52 133.58,49.33 C132.4,49.13 130.77,50.04 128.98,50.51 C130.98,49.17 131.98,46.61 134.26,46.42 C137.5,46.32 139.11,47.59 137.84,45.48 C140.17,45.97 142.23,47.11 138.34,48.84" id="Path" fill="#D90912"></path>
            <path d="M155.18,62.56 C175.02,58.56 180.18,45.95 180.18,45.95 L175.67,41.39 C175.67,41.39 188.36,37.62 194.78,30.03 C195.49,38.64 188.52,51.71 188.52,51.71 L184.07,49.06 C177.188598,57.9656649 166.426131,62.9948554 155.18,62.56" id="Path" fill="#D90912"></path>
            <path d="M104.8,52.07 C104.29,53.2 101.87,53.83 101.87,53.83 C101.87,53.83 104.03,56.19 113.11,56.26 C119.03,53.26 125.53,53.6 124.33,51.92 C123.13,50.24 120.98,48.58 115.77,47.25 C120.58,46.85 123.02,47.63 125.64,48 C131.76,45.06 138.88,40.33 143.18,44.8 C149.18,43.42 152.1,40.67 156.89,41.66 C160.55,39.47 167.69,37.01 168.37,45.17 C166.01,43.17 161.98,45.28 159.17,45.7 C158.31,45.83 156.17,46.19 156.99,42.31 C156.086523,42.5541431 155.459242,43.3741173 155.46,44.31 C152.96,42.97 152.16,43.06 151.97,44.19 C151.86,44.85 153.57,46.45 154.46,46.6 C155.64,46.78 155.78,45.79 156.32,46.25 C157.24,46.63 156.49,50.73 154.24,51.67 C147.62,51.34 146.39,55.43 143.71,55.27 C144.2,52.79 139.29,54.27 135.86,56.27 C130.68,59.39 130.12,63.81 131.86,66.68 C137.25,65.02 139.96,67.33 143.95,66.01 C143.76,67.21 143.71,68.63 151,68.36 C143.13,66.08 149.36,63.24 152,63.02 C144.32,62.02 141,66.26 141.13,63.19 C141.38,56.45 149.25,53.57 148.23,56.74 C150.61,56.54 152.57,54.22 154.23,53.87 C154.945756,55.2553443 155.322739,56.7906948 155.33,58.35 C157.98,55.86 156.69,53.15 158.4,53.01 C159.7,52.9 159.51,56.16 159.15,58.53 C160.950769,56.8413835 161.916478,54.4454003 161.79,51.98 C163.12,49.38 162.41,47.98 162.41,47.98 C162.41,47.98 168.25,44.28 169.53,48.44 C171.24,42.35 168.95,34.08 156.31,39.66 C153.2,38.56 149.31,40.75 144.87,41.82 C140.36,39.04 135.15,41.49 128.67,44.42 C124.57,41.99 117.18,42.91 112.85,38.58 C111.66,41.7 112.3,44.99 113.94,46.37 C106.63,45.09 97.68,39.94 97.68,39.94 C97.68,39.94 99.68,52.15 104.79,52.03" id="Path" fill="#D90912"></path>
            <path d="M206.65,139.38 C209.787674,139.814115 212.976264,139.712675 216.08,139.08 C215.55,143.22 213.5,147.5 210.28,152.49 C208.28,148.42 202.4,141.57 192.12,145.04 C185.53,147.26 180.58,154.63 183.56,161.97 C183.12945,158.729114 184.502325,155.511679 187.14,153.58 C186.788017,156.241759 187.604848,158.92563 189.38,160.94 C189.540179,161.11137 189.568654,161.367649 189.45,161.57 C188.96,162.43 188.24,163.32 186.02,164.04 C188.64,164.22 189.81,163.5 190.66,162.52 C190.790166,162.376337 190.976178,162.296097 191.17,162.3 C192.029035,162.481367 192.859803,162.777349 193.64,163.18 C193.856083,163.279512 193.987639,163.502759 193.97,163.74 C193.97,164.32 193.83,165.39 193.83,166.25 C194.50945,165.579277 194.930794,164.69056 195.02,163.74 C195.002715,163.648145 195.024006,163.553226 195.078868,163.477554 C195.13373,163.401883 195.217324,163.352133 195.31,163.34 C197.548028,163.265589 199.742675,162.702422 201.74,161.69 C201.721995,162.268995 201.671918,162.846547 201.59,163.42 C197.91,166.52 192.77,168.6 185.64,165.18 C189.33626,168.896509 194.767707,170.296564 199.8,168.83 C199.178593,170.012688 198.296344,171.038559 197.22,171.83 C190.53,176.38 181.67,174.83 176.85,167.61 C172.69,161.36 172.92,147.35 166.13,137.24 C162.01,135.36 154.13,136.74 151.13,140.96 C150.55,138.33 147.3,129.3 135.79,123.77 C147,125.61 150.19,132.18 152.43,135.07 C165.36,129.37 173.73,135.57 175.49,139.16 C181.85,128.95 196.25,130.55 196.25,130.55 C196.25,130.55 197.42,117.39 221.05,115.39 C217.91,107.96 220.42,90.39 229.05,78.26 C223.87,70.55 217.75,55.83 217.75,41.12 C206.91,68.23 180.51,78.52 180.51,78.52 C180.51,78.52 183.85,73.35 185.45,62.1 C163.51,91.27 127.76,82.72 131.24,89.95 C133.61,96.19 121.12,98.65 119.41,98.44 C117.66,93.05 121.47,83.55 128.69,76.33 C128.69,78.33 128.84,81.01 130.06,82.23 C131.57,75.29 137.25,72.53 140.06,72.3 C144.13,71.96 148.37,74.06 145.87,78.17 C150.69,77.77 150.75,74.71 152.18,74.59 C153.23,74.5 153.61,76.45 153.5,78.48 C155.77,76.67 156.67,75.48 156.67,71.77 C157.36,70.77 158.76,68.42 156.83,65.86 C156.75,68.03 156.39,69.23 155.43,70.09 C154.76,69.52 154.17,69.8 153.43,70.09 C153.856474,68.8935342 153.856474,67.5864658 153.43,66.39 C151.98,70.2 149.24,72.28 149.03,69.7 C145.13,70.57 135.18,67 125.18,77 C125.18,73.94 125.34,70.6 123.98,70.15 C121.22,69.24 114.91,74.46 113.38,77.37 C116.14,68.46 122.17,64.63 126.93,61.31 C122.11,62.87 115.01,66.83 112.63,71.97 C113.21,69.59 110.63,66.21 109.24,65.07 C112.39,61.92 117.77,59.55 125.18,58.8 C118.03,57.8 112.51,59.68 106.84,63.8 C106.84,61.04 110.65,57.65 110.65,57.65 C102.78,60.65 101.59,67.55 101.91,67.65 C108.75,64.1 109.31,70.55 109.3,72.74 C108.688901,73.3221166 108.037265,73.8601345 107.35,74.35 C106.35,72.35 102.72,70.79 99.19,72.16 C101.71,72.16 104.19,74.98 104.86,77.68 C103.770965,79.0386528 102.768964,80.4648338 101.86,81.95 C100.98,79.57 97.31,78.57 95.56,79.45 C97.8364189,80.6866109 99.4584466,82.8566209 100,85.39 C98.53,88.82 96.85,92.66 96.85,96.88 L93.56,94.7 C92.0951792,91.1307926 90.3497115,87.6833268 88.34,84.39 C86.17,81.06 82.05,74.39 82.05,69.93 C82.05,65.47 84.33,56.11 87.81,54.36 C91.29,52.61 92.43,51.68 93.37,48.74 C94.31,45.8 91.06,44.74 91.06,44.74 C91.06,44.74 92.27,38.18 83.66,38.74 C87.83,40.13 87.18,44.14 85.93,45.4 C82.73,47.91 85.08,50.66 81.32,54.4 C79.9522585,55.927933 78.9653845,57.7577621 78.44,59.74 C78.44,59.74 77,55.35 80.44,49.93 C81.75,47.85 81,43.31 78.44,43.31 C77.75,41.11 73.56,38.18 70.31,39.97 C73.89,39.97 73.83,44.97 73.83,44.97 C73.83,44.97 71.39,45.33 72.05,48.81 C72.71,52.29 73.65,52.66 73.65,55.46 C73.5877491,58.0963358 73.6778994,60.7340661 73.92,63.36 C73.92,63.36 68.92,55.76 68.46,52.3 C67.8,46.95 62.37,49.88 62.37,49.88 C62.37,49.88 56.99,47.43 54.37,53.42 C56.37,51.8 59.52,51.93 60.28,54.13 C58.1,59.6 66.06,59.76 70.42,68.93 C73.13,74.63 73.12,77.8 71.75,80.09 C70.38,82.38 67.65,83.8 67.36,85.99 C66.36,86.99 63.71,86.71 62.05,85.04 C62.05,89.04 65.53,90.59 67.38,91.04 C71.67,93.49 74.45,90.3 74.45,88.26 C74.45,86.22 75.16,85.02 77.17,82.38 C82.17,91.62 83.32,105.9 83.32,105.9 C82.8764577,108.37926 82.2070004,110.812737 81.32,113.17 C84.4,113.17 87.21,109.69 87.21,109.69 L98.05,116.12 C98.05,116.12 94.18,112.75 97.11,107.28 C94.42,103.59 97.75,99.2 98.44,98.51 C98,95.69 99.51,92.51 102.93,90.38 C103.54,88.14 105.01,85.59 109.69,83.32 C111.602712,81.4234949 113.935927,80.0050646 116.5,79.18 C122.5,75.71 123.57,79.03 122.2,80.41 C120.53,82.29 119.37,84.23 116.93,86.68 C116.469749,87.2325101 115.685294,87.3868975 115.05,87.05 C113.749005,86.6233608 112.513797,86.0175368 111.38,85.25 C112.023454,86.5527013 112.986827,87.6709028 114.18,88.5 C114.464752,88.6144927 114.681159,88.8534014 114.767018,89.1480543 C114.852877,89.4427072 114.798678,89.7604681 114.62,90.01 C113.790425,91.4704806 113.036106,92.9724434 112.36,94.51 C112.267285,94.8350687 112.035089,95.1022282 111.726112,95.2393368 C111.417135,95.3764454 111.063243,95.3693623 110.76,95.22 C108.832635,94.6334775 107.017409,93.7275546 105.39,92.54 C106.458025,94.577254 108.16549,96.2074262 110.25,97.18 C110.786699,97.405447 111.041165,98.0215224 110.82,98.56 C110.513333,99.5266667 110.256667,100.46 110.05,101.36 C109.95715,101.980682 109.394705,102.420092 108.77,102.36 C105.961582,102.220917 103.223463,101.433708 100.77,100.06 C102.665865,102.448671 105.486283,103.920668 108.53,104.11 C108.789295,104.067057 109.053307,104.152591 109.238157,104.339429 C109.423008,104.526267 109.505714,104.791179 109.46,105.05 C109.307913,106.481454 109.274466,107.923033 109.36,109.36 C109.442686,109.66633 109.375089,109.993723 109.177841,110.242255 C108.980593,110.490787 108.677104,110.630963 108.36,110.62 C105.405881,110.863622 102.450669,110.163335 99.92,108.62 C102.82,112.32 106.24,112.53 108.92,112.81 C109.194924,112.761281 109.477697,112.829719 109.699918,112.998759 C109.92214,113.167799 110.063571,113.422046 110.09,113.7 C111.03,117.05 112.51,118.7 112.6,118.22 C113.696827,112.285236 117.707344,107.30122 123.27,104.96 C118.456793,110.011482 115.480833,116.533942 114.82,123.48 C108.82,121.89 102.1,125.41 89.93,121.77 C103.62,122.86 110.08,119.77 110.08,119.77 C110.08,119.77 102.64,120.77 98.92,117.09 C99.0549565,118.069409 99.4562046,118.992971 100.08,119.76 C96.73,120.33 89.08,120.95 86.19,119.5 C81.37,117.09 77.53,117.88 75.08,110.6 C73.88,107.04 74.08,100.55 71.08,99.82 C70.28,99.02 66.99,93.27 60.44,99.82 C64.04,98.35 65.61,99.6 66.54,101.35 C65.1318876,103.008152 65.1877561,105.457768 66.67,107.05 C68.48,108.86 69.41,112.05 72.02,114.68 C68.02,113.88 63.48,107.9 58.63,110.68 C56.43,110.2 49.63,113.32 51.28,119.79 C52.07,115.09 58.83,115.79 58.83,115.79 C58.83,115.79 58.32,117.46 60.69,119.27 C63.69,121.56 70.07,119.21 74.84,123.27 C73.03,125.08 61.16,120.45 58.84,128.21 C54.6074294,129.404363 52.0647321,133.718576 53.07,138 C55.27,134.51 57.07,134 59.81,133.35 C60.88,136.35 64.31,135.51 66.32,134.58 C69.32,133.21 73.99,127.58 81.32,128.72 C87.6,129.72 89.39,134.34 89.99,138.39 C90.78,143.76 93.61,145.02 93.61,145.02 C93.61,145.02 93.73,147.89 90.47,150.02 C96.3,150.02 98.33,146.25 98.33,144.37 C103.27,137.22 92.08,132.51 93.09,131.09 C99.4048301,132.862822 105.921895,133.813997 112.48,133.92 C116.177827,134.742252 119.53919,136.667016 122.12,139.44 C123.38,138.17 123.63,134.82 123.63,134.82 L126.8,138.34 C126.8,138.34 127.5,138.76 126.8,139.49 C124.824572,141.190503 122.445039,142.354442 119.89,142.87 C124.68,142.87 127.24,141.74 128.57,140.69 C128.791548,140.428633 129.172949,140.372923 129.46,140.56 C130.58,141.28 132.24,142.32 134.18,143.47 C134.346559,143.560054 134.455085,143.72945 134.467275,143.918402 C134.479466,144.107354 134.393606,144.289291 134.24,144.4 C132.681874,145.681546 130.938814,146.719965 129.07,147.48 C131.07,147.2 134.5,146.76 136.07,145.65 C136.529526,145.248061 137.195526,145.187516 137.72,145.5 C139.78,146.66 141.91,147.84 143.79,148.95 C143.98,149.06 144.28,149.44 143.79,149.95 C142.500533,151.045 140.962319,151.80724 139.31,152.17 C141.450089,152.276416 143.573465,151.743831 145.41,150.64 C145.715464,150.365475 146.168029,150.332561 146.51,150.56 C147.38332,151.097819 148.203661,151.71726 148.96,152.41 C151.52,151.41 155.31,150.74 158.01,151.32 C148.01,154.32 145.74,156.48 143.01,159.2 C139.437351,159.106805 136.275882,156.862162 135.01,153.52 C130.93,152.82 127.43,151.26 125.17,148.43 C122.56,148.43 117.62,149.16 114.44,142.97 C111.59,142.2 107.63,139.84 105.31,134.29 C104.68,136 106.5,142.7 112.96,144.97 C115.12925,148.689007 119.178435,150.902202 123.48,150.72 C123.804176,151.039753 124.077356,151.407366 124.29,151.81 C123.2,152.2 121.14,151.81 118.58,152.81 C111.37,155.45 107.44,166.42 112.82,170.48 C114.15,173.36 117.37,178.78 117.37,178.78 C114.468716,180.226552 111.345414,181.176387 108.13,181.59 C103.33,182.1 100.13,182.8 98.49,177.59 C97.5723273,174.906083 97.3487206,172.033596 97.84,169.24 C98.2442315,167.236707 97.8877184,165.154671 96.84,163.4 C96.4909212,162.509109 95.7988257,161.795637 94.9189628,161.419627 C94.0390999,161.043617 93.0451234,161.036546 92.16,161.4 C92.16,161.4 89.21,156.75 81.98,162.34 C84.98,162.07 86.98,161.93 88.41,164.62 C86.3,169.71 91.09,169.44 91.09,171.05 C91.09,172.66 92.71,177.16 93.52,179.72 C91.89,178.72 87.44,171.84 83.99,169.43 C82.5210737,168.232156 80.4281579,168.178702 78.9,169.3 C78.9,169.3 73.85,167.09 71,172.65 C75.75,171.51 77.6,172.47 77.41,173.01 C76.35,176.01 77.96,179.34 80.91,179.34 C83.86,179.34 83.79,178.2 85.6,180.01 C87.41,181.82 90.5,184.93 92.29,185.9 C87.29,186.31 81.72,181.29 78.94,187.25 C76.8582459,188.292726 75.3441866,190.202693 74.8040354,192.46747 C74.2638842,194.732247 74.752943,197.11996 76.14,198.99 C76.14,194.47 79.4,192.06 81.14,192.06 C81.6,192.52 82.14,193.73 85.55,193.27 C89.55,192.74 93.43,188.88 100.26,191.53 C105.01,193.37 104.98,197.32 105.5,202.16 C105.84,205.38 107.39,204.92 109.2,204.92 C111.01,204.92 112.31,207.57 109.7,211.08 C113.82,211.08 114.92,204.25 114.92,204.25 C114.92,204.25 116.39,203.18 114.92,199.97 C113.45,196.76 110.5,201.54 109.79,193.84 C109.58,191.56 122.91,187.41 122.91,187.41 C122.91,187.41 124.16,189.94 129.78,193.02 C127.78,189.91 128.68,187.73 128.68,187.73 C130.394706,189.655795 133.05901,190.43256 135.54,189.73 C128.98,185.78 124.92,172.52 135.28,173.21 C135.84,170.11 137.79,165.45 140.42,163.82 C139.09,167.89 137.1,174.54 137.42,178.15 C138.24,187.52 143.74,189.77 146.78,190.73 C149.262864,193.138819 151.905541,195.377243 154.69,197.43 C153.692712,199.172561 152.820515,200.98379 152.08,202.85 C149.94,207.67 149.08,212.22 140.23,214.57 C131.13,216.98 129.74,212.91 125.95,212.91 C122.16,212.91 120.89,215.84 122.43,217.38 C121.02,219.62 118.01,222.6 120.96,227.38 C120.96,224.43 124.96,221.76 124.96,221.76 C126.475791,222.122405 128.073081,221.723082 129.24,220.69 C132.81496,221.113716 136.43579,220.931153 139.95,220.15 C139.95,220.15 134.95,223.89 132.61,224.43 C130.27,224.97 129.18,227.31 130.31,228.43 C124.42,235.93 129.91,240.08 131.11,241.28 C129.76,236.04 132.98,233.03 134.59,232.44 C139.5,234.82 143.44,224.07 148.51,220.66 C148.51,225.99 145.04,231.23 144.71,234.98 C144.38,238.73 146.85,238.43 146.85,238.43 C146.85,238.43 147.95,244.26 153.42,246.38 C152.260662,243.778722 151.945906,240.879467 152.52,238.09 C152.52,238.09 154.78,238.45 154.97,234.04 C155.16,229.63 151.32,226.81 155.97,220.12 C164.27,210.75 168.66,215.91 171.25,215.91 C171.934858,215.939746 172.602851,215.692499 173.103303,215.224031 C173.603756,214.755562 173.894516,214.105329 173.91,213.42 C173.91,213.42 179,211.14 180.33,215.83 C181.94,209.67 175.91,207.83 173.5,207.83 C170.15,204.48 169.06,209.75 164.5,209.75 C159.94,209.75 164.25,199.75 164.25,199.75 C166.766856,200.205815 169.361,199.949517 171.74,199.01 C168.31,198.24 165.86,194.66 165.86,194.66 C165.86,194.66 170.73,196.73 173.09,195.87 C170.95,194.06 163.79,188.6 162.38,182.87 C160.38,174.7 168.3,172.7 168.3,172.7 C168.907736,173.70601 169.575616,174.674437 170.3,175.6 C170.43,175.77 170.82,176.15 170.12,176.6 C169.010324,177.418968 167.744106,178.00102 166.4,178.31 C167.912839,178.615742 169.482988,178.451749 170.9,177.84 C171.353646,177.565258 171.933335,177.617957 172.33,177.97 C173.336156,179.04333 174.415402,180.045726 175.56,180.97 C175.76,181.14 176.17,181.53 175.44,181.87 C174.320059,182.434608 173.093006,182.755005 171.84,182.81 C173.442205,183.149577 175.097795,183.149577 176.7,182.81 C177.183784,182.582402 177.75071,182.620197 178.2,182.91 C179.471514,183.793486 180.866574,184.484277 182.34,184.96 C178.093062,186.09715 173.566279,185.458202 169.8,183.19 C167.35,182.57 165.5,181.88 164.39,180.07 C164.39,182.07 166.68,183.81 168.67,184.29 C169.75,185.93 172.67,186.96 175.99,186.96 C192.47,194.18 214.99,183.1 212.17,160.25 C215.17,156.17 218.09,149.95 220.47,140.25 C222.289312,142.090427 224.34774,143.677972 226.59,144.97 C226.59,144.97 227.11,129.24 222.41,120.72 C218.1,129.21 210.59,136.31 206.61,139.35 M191.58,160.17 C187.63,156.22 190.58,151.63 194.33,151.82 C194.6,151.82 194.87,151.88 195.13,151.93 C199.48,152.76 201.41,156.25 201.71,160.14 C197.59,162.14 193.6,162.14 191.58,160.14 M127.27,102.68 C134.82,102.68 146.76,102 150.72,98.04 C155.1,93.65 145.44,92.04 157.28,88.87 C169.12,85.7 197.15,81.61 215.22,54.87 C209.07,72.06 187.9,86.41 160.04,91.93 C174.97,93.56 193.04,93.1 220.36,86.07 C205.84,93.18 178.93,97.13 160.13,95.52 C167.2,100.39 192.42,111.58 209.82,114.09 C192.42,115.64 161.64,101.71 158.82,98.86 C163.93,114.21 182.82,125.36 189.71,128.7 C173.42,124.82 162.03,113.7 155.58,101.46 C153.664853,111.363598 152.740295,121.433242 152.82,131.52 C150.736922,121.510563 150.736922,111.179437 152.82,101.17 C142.11,106.5 127.28,102.65 127.28,102.65" id="Shape" fill="#D90912" fill-rule="nonzero"></path>
            <path d="M117.18,80.19 C117.18,81.76 120,84.39 120,84.39 L120.8,82.59 C119.458033,82.0156689 118.231479,81.202484 117.18,80.19" id="Path" fill="#D90912"></path>
            <path d="M18.5,286.93 L19.22,285.46 L22.71,287.17 L20.6,291.48 C20.4138446,291.556581 20.2190899,291.610306 20.02,291.64 C19.7243852,291.675329 19.4256148,291.675329 19.13,291.64 C18.7383104,291.612497 18.3499961,291.548894 17.97,291.45 C17.4861987,291.318033 17.0171079,291.137098 16.57,290.91 C15.8706277,290.586799 15.2471127,290.120015 14.74,289.54 C14.3073547,289.038837 13.9990077,288.4427 13.84,287.8 C13.7001661,287.140666 13.7001661,286.459334 13.84,285.8 C13.9783966,285.053221 14.2207529,284.329518 14.56,283.65 C14.8825496,282.974718 15.3038339,282.351217 15.81,281.8 C16.2670061,281.301959 16.8219239,280.903644 17.44,280.63 C18.070157,280.35865 18.7551428,280.238777 19.44,280.28 C20.2286254,280.332444 20.9979713,280.546907 21.7,280.91 C22.0835835,281.095303 22.4429431,281.32704 22.77,281.6 C23.066946,281.845793 23.3353,282.124211 23.57,282.43 C23.764136,282.676685 23.9161833,282.953749 24.02,283.25 C24.1066874,283.461461 24.1066874,283.698539 24.02,283.91 C23.9080716,284.101747 23.7407384,284.255136 23.54,284.35 C23.3011138,284.483308 23.0455321,284.584195 22.78,284.65 C22.72,284.49 22.64,284.31 22.55,284.13 C22.4507862,283.932977 22.333624,283.745517 22.2,283.57 C22.0467622,283.368659 21.8724383,283.184278 21.68,283.02 C21.4554277,282.828271 21.2066305,282.666889 20.94,282.54 C20.5007306,282.303944 20.0086358,282.183501 19.51,282.19 C19.0905041,282.20653 18.6816465,282.326782 18.32,282.54 C17.9361456,282.762069 17.5970259,283.053712 17.32,283.4 C17.0321113,283.769498 16.7840678,284.168378 16.58,284.59 C16.3608497,285.033791 16.1898742,285.499784 16.07,285.98 C15.9565963,286.413652 15.9227156,286.864266 15.97,287.31 C16.0199302,287.734539 16.1745626,288.140019 16.42,288.49 C16.7202752,288.894579 17.1198045,289.214891 17.58,289.42 C17.7906732,289.526137 18.0118787,289.609927 18.24,289.67 C18.4008424,289.71016 18.5647368,289.736918 18.73,289.75 C18.8724781,289.772143 19.0175219,289.772143 19.16,289.75 L20.16,287.7 L18.5,286.93 Z" id="Path" fill="#FFFFFF"></path>
            <path d="M33.12,291.65 C32.870912,292.336731 32.5348411,292.988709 32.12,293.59 C31.7286315,294.138646 31.2324045,294.604283 30.66,294.96 C30.0958665,295.302059 29.4581538,295.504344 28.8,295.55 C28.0302037,295.591043 27.2610762,295.457727 26.55,295.16 C25.830164,294.907125 25.1794858,294.489322 24.65,293.94 C24.2060794,293.459906 23.8837364,292.880374 23.71,292.25 C23.5350713,291.598451 23.4908883,290.918712 23.58,290.25 C23.6660994,289.526968 23.8442075,288.817896 24.11,288.14 C24.3547732,287.470097 24.6913156,286.837397 25.11,286.26 C25.5132269,285.748236 26.012587,285.320213 26.58,285 C27.1520126,284.67058 27.7914931,284.475658 28.45,284.43 C29.9673785,284.380423 31.441062,284.942512 32.54,285.99 C33.0002181,286.444491 33.3433568,287.003807 33.54,287.62 C33.7217387,288.249606 33.7761322,288.909126 33.7,289.56 C33.5983564,290.27892 33.4033785,290.981513 33.12,291.65 Z M31.01,290.85 C31.1890186,290.396794 31.3262557,289.928179 31.42,289.45 C31.493555,289.026503 31.493555,288.593497 31.42,288.17 C31.3634119,287.790452 31.2158865,287.430216 30.99,287.12 C30.731478,286.792515 30.3844085,286.546096 29.99,286.41 C29.2198863,286.068948 28.3235518,286.188717 27.67,286.72 C27.3299377,287.000625 27.0421746,287.33917 26.82,287.72 C26.5661942,288.125201 26.3518777,288.553835 26.18,289 C26.0017007,289.459499 25.8677575,289.934997 25.78,290.42 C25.7097474,290.857196 25.7097474,291.302804 25.78,291.74 C25.8324395,292.137675 25.9837151,292.515864 26.22,292.84 C26.7695126,293.511772 27.6312779,293.845848 28.49,293.72 C28.8608663,293.631117 29.204246,293.45256 29.49,293.2 C29.8227213,292.912013 30.1093774,292.574771 30.34,292.2 C30.6066619,291.772836 30.8310559,291.320698 31.01,290.85 Z" id="Shape" fill="#FFFFFF" fill-rule="nonzero"></path>
            <path d="M42.65,292.55 C42.526156,292.929239 42.3439703,293.286863 42.11,293.61 C41.9077475,293.885532 41.661043,294.125478 41.38,294.32 C41.1256852,294.493051 40.8455406,294.624686 40.55,294.71 C40.2765178,294.788198 39.994326,294.83187 39.71,294.84 L40.77,299.84 C40.5471288,299.860317 40.3228712,299.860317 40.1,299.84 C39.8855768,299.816123 39.6743549,299.769185 39.47,299.7 C39.1389316,299.598486 38.8439314,299.404133 38.62,299.14 C38.4016555,298.844179 38.254506,298.501971 38.19,298.14 L37.47,294.61 L36.64,294.32 L35.33,298.13 L33.24,297.41 L36.7,287.33 C37.1733333,287.436667 37.65,287.56 38.13,287.7 C38.61,287.84 39.05,287.97 39.43,288.1 C40.5964058,288.393596 41.6439633,289.03959 42.43,289.95 C42.9360004,290.72449 43.0186705,291.7015 42.65,292.55 Z M40.4,292 C40.6373638,291.524651 40.6373638,290.965349 40.4,290.49 C40.096102,290.077593 39.6632197,289.778447 39.17,289.64 L38.7,289.49 L38.36,289.4 L37.16,292.9 L37.87,293.14 C38.37935,293.330999 38.94065,293.330999 39.45,293.14 C39.9205026,292.917618 40.2709315,292.501484 40.41,292 L40.4,292 Z" id="Shape" fill="#FFFFFF" fill-rule="nonzero"></path>
            <path d="M48.94,302.51 L48.83,299.73 L45.3,298.65 L43.69,300.9 L41.61,300.26 L48.25,291.26 C48.4362769,291.242939 48.6237231,291.242939 48.81,291.26 C49.0578244,291.284893 49.3024395,291.335156 49.54,291.41 C49.6668913,291.450731 49.7905677,291.50087 49.91,291.56 C50.0459145,291.623001 50.1708365,291.707408 50.28,291.81 C50.398989,291.925631 50.4970994,292.060955 50.57,292.21 C50.6557571,292.394861 50.7001234,292.596216 50.7,292.8 L51.13,303.17 L48.94,302.51 Z M48.94,293.31 L46.18,297.25 L48.92,298.09 L48.92,293.32 L48.94,293.31 Z" id="Shape" fill="#FFFFFF" fill-rule="nonzero"></path>
            <path d="M55.53,300 C55.4383234,300.32784 55.3714677,300.662118 55.33,301 C55.2933946,301.281793 55.3172578,301.568152 55.4,301.84 C55.4868988,302.094165 55.6426898,302.319197 55.85,302.49 C56.1238692,302.703276 56.4414139,302.853512 56.78,302.93 C57.3266695,303.144568 57.9450322,303.065388 58.42,302.72 C58.865583,302.28981 59.1720892,301.736009 59.3,301.13 L61.04,294.71 L61.32,294.71 L61.57,294.71 L61.8,294.71 C61.9517735,294.752442 62.0991173,294.80937 62.24,294.88 C62.3914892,294.953175 62.5273347,295.055059 62.64,295.18 C62.7590776,295.309548 62.8418642,295.468222 62.88,295.64 C62.9350405,295.853171 62.9350405,296.076829 62.88,296.29 L61.52,301.29 C61.46,301.5 61.4,301.7 61.34,301.9 C61.28,302.1 61.2,302.31 61.12,302.52 C60.9657887,302.932361 60.7463252,303.317266 60.47,303.66 C60.1981321,303.995534 59.8570281,304.268417 59.47,304.46 C59.0335512,304.663688 58.5611912,304.779229 58.08,304.8 C57.4791755,304.827799 56.8778594,304.756857 56.3,304.59 C55.7226374,304.445914 55.1699213,304.216739 54.66,303.91 C54.2629888,303.67217 53.921909,303.351555 53.66,302.97 C53.4384399,302.68096 53.2753948,302.351473 53.18,302 C53.1126476,301.515664 53.1126476,301.024336 53.18,300.54 C53.18,300.35 53.25,300.15 53.29,299.96 C53.33,299.77 53.38,299.55 53.44,299.34 L55.11,293.18 L55.38,293.18 L55.63,293.18 L55.86,293.18 C56.0187568,293.220744 56.1729014,293.27771 56.32,293.35 C56.4712281,293.423604 56.6069966,293.52543 56.72,293.65 C56.8390776,293.779548 56.9218642,293.938222 56.96,294.11 C57.0146068,294.323226 57.0146068,294.546774 56.96,294.76 L55.53,300 Z" id="Path" fill="#FFFFFF"></path>
            <path d="M68.63,301.57 C68.5650695,301.879918 68.382186,302.152451 68.12,302.33 C67.545342,302.660643 66.812501,302.485112 66.45,301.93 C66.289918,301.654919 66.246699,301.327175 66.33,301.02 C66.3916032,300.711203 66.5803498,300.442602 66.85,300.28 C67.4182953,299.96518 68.132793,300.134061 68.5,300.67 C68.6686497,300.93812 68.7158822,301.265114 68.63,301.57 Z" id="Path" fill="#FFFFFF"></path>
            <path d="M79.82,309.47 C79.7055982,309.537834 79.5850669,309.594751 79.46,309.64 C79.2553512,309.712541 79.0444624,309.7661 78.83,309.8 C78.529073,309.847189 78.2245176,309.867269 77.92,309.86 C77.5197264,309.852115 77.1211747,309.805226 76.73,309.72 C75.9739897,309.579309 75.2554659,309.283046 74.62,308.85 C74.0807501,308.472019 73.6386859,307.971698 73.33,307.39 C73.0209808,306.797689 72.8403825,306.146854 72.8,305.48 C72.753764,304.729071 72.810966,303.97535 72.97,303.24 C73.1198922,302.492643 73.3793593,301.771527 73.74,301.1 C74.0587113,300.502928 74.4939656,299.975863 75.02,299.55 C75.5382588,299.140798 76.1439847,298.856757 76.79,298.72 C77.5280731,298.559793 78.2919269,298.559793 79.03,298.72 C79.4014223,298.793216 79.7636193,298.907241 80.11,299.06 C80.3918781,299.183658 80.6628365,299.330845 80.92,299.5 C81.1179463,299.627405 81.3022512,299.774848 81.47,299.94 C81.5791743,300.05136 81.68264,300.168176 81.78,300.29 C81.857415,300.396855 81.9181104,300.514874 81.96,300.64 C81.9967193,300.770805 81.9967193,300.909195 81.96,301.04 C81.9038769,301.268792 81.7738181,301.472668 81.59,301.62 C81.3904271,301.79459 81.1763167,301.951827 80.95,302.09 C80.85,301.94 80.74,301.78 80.61,301.62 C80.4769266,301.450976 80.3260589,301.296756 80.16,301.16 C79.9706956,301.009262 79.7662688,300.878563 79.55,300.77 C79.2969923,300.643702 79.0277968,300.552849 78.75,300.5 C77.8668059,300.27065 76.9287155,300.538675 76.3,301.2 C75.9972332,301.513956 75.7533566,301.879771 75.58,302.28 C75.3939054,302.707437 75.253136,303.153207 75.16,303.61 C75.0603624,304.083525 75.0100936,304.566106 75.01,305.05 C75.0062407,305.491438 75.0877315,305.929451 75.25,306.34 C75.4112909,306.726112 75.6613986,307.068725 75.98,307.34 C76.5940448,307.811264 77.3573008,308.045565 78.13,308 C78.3707909,307.983413 78.6089535,307.939806 78.84,307.87 C79.0327842,307.81331 79.2201801,307.73969 79.4,307.65 L79.82,307.42 L79.98,307.73 C80.043224,307.85363 80.0999675,307.980468 80.15,308.11 C80.1983778,308.233867 80.2384662,308.360814 80.27,308.49 C80.292934,308.598805 80.292934,308.711195 80.27,308.82 C80.2493956,308.941126 80.1977111,309.054832 80.12,309.15 C80.0365665,309.27107 79.935441,309.378937 79.82,309.47 Z" id="Path" fill="#FFFFFF"></path>
            <path d="M85.51,304.7 L89.51,305.41 L90.27,301.12 L90.8,301.12 L91.06,301.12 C91.2105558,301.148878 91.3579246,301.192419 91.5,301.25 C91.6523453,301.309039 91.7916388,301.397371 91.91,301.51 C92.0335063,301.629343 92.1261643,301.77691 92.18,301.94 C92.2346068,302.153226 92.2346068,302.376774 92.18,302.59 L90.54,312 L88.4,311.62 L89.21,307.05 L85.21,306.34 L84.4,310.91 L82.26,310.53 L84.18,300 L84.47,300 L84.72,300 L84.95,300 C85.1105569,300.027788 85.2679845,300.071332 85.42,300.13 C85.5724634,300.188805 85.7118002,300.277164 85.83,300.39 C85.9528925,300.50984 86.0454502,300.657247 86.1,300.82 C86.1550405,301.033171 86.1550405,301.256829 86.1,301.47 L85.51,304.7 Z" id="Path" fill="#FFFFFF"></path>
            <path d="M102.88,313.92 L101.09,313.67 L100.09,307.88 L97.59,313.19 L95.82,312.94 L93.75,301.94 C93.9371818,301.897668 94.1281375,301.874217 94.32,301.87 C94.5262947,301.852464 94.7337053,301.852464 94.94,301.87 C95.2693843,301.895212 95.5800849,302.032909 95.82,302.26 C96.0284029,302.495321 96.1608553,302.78811 96.2,303.1 L97.32,310.17 L99.56,305.41 L99.18,302.58 L99.76,302.58 C99.9231304,302.568487 100.08687,302.568487 100.25,302.58 C100.578673,302.604347 100.887553,302.746362 101.12,302.98 C101.312921,303.220796 101.431117,303.512808 101.46,303.82 L102.46,310.67 L105.15,304.45 C105.276729,304.146607 105.480021,303.881293 105.74,303.68 C106.028194,303.470733 106.391971,303.39434 106.74,303.47 C106.954263,303.494834 107.165385,303.54175 107.37,303.61 L107.84,303.8 L102.88,313.92 Z" id="Path" fill="#FFFFFF"></path>
            <path d="M113.75,315 L113.11,312.3 L109.43,311.92 L108.29,314.44 L106.13,314.22 L110.9,304.09 C111.079948,304.040171 111.264029,304.006702 111.45,303.99 C111.699326,303.964032 111.950674,303.964032 112.2,303.99 L112.59,304.06 C112.735216,304.098255 112.873555,304.158989 113,304.24 C113.137677,304.329008 113.259379,304.440568 113.36,304.57 C113.480429,304.736621 113.562397,304.927882 113.6,305.13 L116.02,315.22 L113.75,315 Z M111.93,306 L110.02,310.39 L112.87,310.68 L111.93,306 Z" id="Shape" fill="#FFFFFF" fill-rule="nonzero"></path>
            <path d="M125.65,308.28 C125.627599,308.677328 125.543248,309.068716 125.4,309.44 C125.276234,309.75689 125.10049,310.050922 124.88,310.31 C124.679738,310.542854 124.443399,310.742054 124.18,310.9 C123.935812,311.049115 123.673728,311.166717 123.4,311.25 L125.72,315.84 C125.508506,315.910234 125.290884,315.960455 125.07,315.99 C124.857277,316.012821 124.642723,316.012821 124.43,315.99 C124.072273,315.985082 123.724125,315.873675 123.43,315.67 C123.137019,315.434484 122.903991,315.132918 122.75,314.79 L121.15,311.57 L120.27,311.51 L119.99,315.51 L117.79,315.35 L118.54,304.72 C119.02,304.72 119.513333,304.72 120.02,304.72 C120.526667,304.72 120.98,304.74 121.38,304.78 C122.569184,304.765475 123.734459,305.114359 124.72,305.78 C125.44045,306.397147 125.79195,307.34204 125.65,308.28 Z M123.34,308.28 C123.433004,307.755921 123.273676,307.21865 122.91,306.83 C122.509782,306.507949 122.013633,306.328491 121.5,306.32 L121,306.32 L120.65,306.32 L120.39,310 L121.18,310.1 C121.717914,310.164907 122.261185,310.033528 122.71,309.73 C123.1159,309.379733 123.343424,308.865968 123.33,308.33 L123.34,308.28 Z" id="Shape" fill="#FFFFFF" fill-rule="nonzero"></path>
            <path d="M134.3,316.29 L133.48,313.63 L129.79,313.5 L128.79,316.09 L126.62,316.01 L130.7,305.59 C130.875593,305.530061 131.056367,305.486541 131.24,305.46 C131.489365,305.434802 131.740635,305.434802 131.99,305.46 L132.38,305.46 C132.527207,305.486897 132.669059,305.537559 132.8,305.61 C132.943349,305.691008 133.071853,305.795841 133.18,305.92 C133.31151,306.077484 133.407067,306.261772 133.46,306.46 L136.55,316.37 L134.3,316.29 Z M131.87,307.41 L130.25,311.92 L133.11,312.02 L131.87,307.41 Z" id="Shape" fill="#FFFFFF" fill-rule="nonzero"></path>
            <path d="M144.05,314.66 C144.267005,314.651361 144.483794,314.681847 144.69,314.75 C144.843843,314.801193 144.98404,314.886679 145.1,315 C145.201561,315.1042 145.276958,315.231004 145.32,315.37 C145.360772,315.506238 145.380995,315.647795 145.38,315.79 C145.38,315.91 145.38,316.01 145.38,316.09 C145.38,316.17 145.38,316.26 145.380035,316.35 L138.45,316.35 L138.45,305.64 L145.12,305.64 C145.12,305.76 145.12,305.86 145.12,305.94 C145.12,306.02 145.12,306.12 145.12,306.24 C145.143303,306.54801 145.038365,306.85197 144.83,307.08 C144.519902,307.30174 144.138964,307.401425 143.76,307.36 L140.61,307.36 L140.61,310 L144,310 L144,311.71 L140.61,311.71 L140.61,314.71 L144.03,314.71 L144.05,314.66 Z" id="Path" fill="#FFFFFF"></path>
            <path d="M152.18,310.19 C152.20123,310.506817 152.097075,310.819284 151.89,311.06 C151.423907,311.534348 150.668014,311.560716 150.17,311.12 C149.942981,310.899076 149.813415,310.596755 149.81,310.28 C149.789201,309.965679 149.90173,309.657131 150.12,309.43 C150.584265,308.978804 151.314906,308.952865 151.81,309.37 C152.042511,309.579613 152.176685,309.876969 152.18,310.19 Z" id="Path" fill="#FFFFFF"></path>
            <path d="M165.09,314.77 C164.99887,314.866401 164.898375,314.953497 164.79,315.03 C164.614402,315.157787 164.426864,315.268301 164.23,315.36 C163.953191,315.488869 163.665369,315.592619 163.37,315.67 C162.983472,315.768306 162.588259,315.828593 162.19,315.85 C161.426782,315.921484 160.657046,315.83293 159.93,315.59 C159.312808,315.389168 158.751171,315.046706 158.29,314.59 C157.842591,314.10247 157.50198,313.526838 157.29,312.9 C157.041959,312.187193 156.893885,311.443454 156.85,310.69 C156.791348,309.929583 156.845262,309.164672 157.01,308.42 C157.154214,307.758663 157.429649,307.132983 157.82,306.58 C158.206089,306.046918 158.708886,305.609108 159.29,305.3 C160.314383,304.803869 161.46091,304.616255 162.59,304.76 C162.894932,304.802125 163.195926,304.869013 163.49,304.96 C163.712483,305.030843 163.926975,305.124683 164.13,305.24 C164.264586,305.315953 164.394792,305.399418 164.52,305.49 C164.624079,305.572531 164.715104,305.670299 164.79,305.78 C164.867073,305.892493 164.912018,306.023871 164.92,306.16 C164.928764,306.396143 164.85837,306.628443 164.72,306.82 C164.575563,307.044038 164.411591,307.254859 164.23,307.45 L163.77,307.09 C163.594923,306.966992 163.407188,306.863067 163.21,306.78 C162.987702,306.686822 162.756516,306.616461 162.52,306.57 C162.241256,306.532499 161.958744,306.532499 161.68,306.57 C161.203691,306.586951 160.74077,306.732046 160.34,306.99 C159.993754,307.225893 159.709128,307.541382 159.51,307.91 C159.303577,308.296083 159.168097,308.71607 159.11,309.15 C159.062167,309.612099 159.062167,310.077901 159.11,310.54 C159.140282,311.02369 159.220714,311.502927 159.35,311.97 C159.465666,312.396966 159.662596,312.797617 159.93,313.15 C160.19557,313.486822 160.538654,313.754428 160.93,313.93 C161.37968,314.125557 161.872334,314.20135 162.36,314.15 C162.636777,314.132627 162.909593,314.075369 163.17,313.98 C163.394526,313.897365 163.609176,313.79004 163.81,313.66 C163.980914,313.551513 164.141579,313.427667 164.29,313.29 L164.63,312.96 L164.87,313.21 C164.962335,313.311934 165.049127,313.418754 165.13,313.53 C165.211113,313.638105 165.284623,313.751712 165.35,313.87 C165.40424,313.965382 165.438279,314.070902 165.45,314.18 C165.461251,314.303162 165.440587,314.427145 165.39,314.54 C165.29996,314.628851 165.199181,314.706115 165.09,314.77 Z" id="Path" fill="#FFFFFF"></path>
            <path d="M171.97,310.59 L172.38,314.68 L170.21,314.9 L169.8,310.9 L165.75,304.9 C165.94396,304.784738 166.148163,304.687658 166.36,304.61 C166.578386,304.524243 166.80695,304.467102 167.04,304.44 C167.337496,304.388042 167.643822,304.437336 167.91,304.58 C168.137715,304.732259 168.331724,304.929672 168.48,305.16 L170.71,308.68 L172.19,304.82 C172.286846,304.55941 172.440575,304.323691 172.64,304.13 C172.881142,303.916789 173.188388,303.793184 173.51,303.78 C173.722642,303.755714 173.937358,303.755714 174.15,303.78 C174.348936,303.807893 174.545973,303.847968 174.74,303.9 L171.97,310.59 Z" id="Path" fill="#FFFFFF"></path>
            <path d="M185.38,307.51 C185.486081,308.226093 185.486081,308.953907 185.38,309.67 C185.277835,310.333325 185.043173,310.969293 184.69,311.54 C184.331431,312.104216 183.84928,312.579527 183.28,312.93 C182.605576,313.333714 181.851543,313.586196 181.07,313.67 L177.69,314.12 L176.3,303.59 C176.966667,303.416667 177.54,303.286667 178.02,303.2 L179.18,303 C180.073065,302.853598 180.985758,302.877348 181.87,303.07 C182.53982,303.225897 183.16339,303.537682 183.69,303.98 C184.173391,304.405231 184.553079,304.935426 184.8,305.53 C185.08174,306.160824 185.276843,306.826864 185.38,307.51 Z M183.16,307.83 C183.099896,307.362738 182.989248,306.903381 182.83,306.46 C182.693954,306.062449 182.475912,305.697911 182.19,305.39 C181.914667,305.099592 181.57082,304.882968 181.19,304.76 C180.688625,304.62146 180.163031,304.594156 179.65,304.68 C179.330642,304.720432 179.013561,304.777173 178.7,304.85 L179.7,312.15 L180.57,312.03 C181.101653,311.978771 181.616352,311.815158 182.08,311.55 C182.445416,311.33339 182.745897,311.022547 182.95,310.65 C183.150607,310.258555 183.266459,309.829224 183.29,309.39 C183.306983,308.864285 183.270125,308.338211 183.18,307.82 L183.16,307.83 Z" id="Shape" fill="#FFFFFF" fill-rule="nonzero"></path>
            <path d="M192.4,306 C192.460523,306.311997 192.395867,306.635281 192.22,306.9 C191.818414,307.431315 191.070772,307.554456 190.52,307.18 C190.267601,306.988415 190.102036,306.704075 190.06,306.39 C190.000311,306.081599 190.072877,305.762307 190.26,305.51 C190.664523,305.004138 191.386681,304.887382 191.93,305.24 C192.184433,305.417997 192.354408,305.692851 192.4,306 Z" id="Path" fill="#FFFFFF"></path>
            <path d="M205.78,308.93 C205.700346,309.038849 205.609886,309.13936 205.51,309.23 C205.348851,309.375499 205.174801,309.506037 204.99,309.62 C204.729583,309.781102 204.455132,309.918327 204.17,310.03 C203.798619,310.178039 203.41337,310.288589 203.02,310.36 C202.268281,310.518667 201.491719,310.518667 200.74,310.36 C200.098833,310.221204 199.499336,309.933445 198.99,309.52 C198.478028,309.091702 198.062289,308.560101 197.77,307.96 C197.435328,307.283007 197.196375,306.562783 197.06,305.82 C196.908934,305.073308 196.868501,304.308458 196.94,303.55 C197.000337,302.873969 197.197678,302.2173 197.52,301.62 C197.8396,301.042536 198.28784,300.546392 198.83,300.17 C199.456444,299.748611 200.165545,299.465652 200.91,299.34 C201.28187,299.265398 201.660808,299.231864 202.04,299.24 C202.345269,299.24532 202.649603,299.275418 202.95,299.33 C203.179647,299.373325 203.404181,299.44035 203.62,299.53 L204.04,299.74 C204.15248,299.807102 204.253715,299.891464 204.34,299.99 C204.428063,300.092494 204.486799,300.216876 204.51,300.35 C204.547787,300.579353 204.509136,300.814768 204.4,301.02 C204.282593,301.257735 204.145445,301.4852 203.99,301.7 C203.84,301.6 203.67,301.5 203.49,301.4 C203.303102,301.297819 203.105155,301.217298 202.9,301.16 C202.66647,301.080868 202.425066,301.027222 202.18,301 C201.898572,300.980405 201.615786,301.000604 201.34,301.06 C200.433276,301.185651 199.666856,301.794955 199.34,302.65 C199.201891,303.085858 199.1476,303.543934 199.18,304 C199.171704,304.462928 199.211924,304.925452 199.3,305.38 C199.388208,305.856271 199.52561,306.3221 199.71,306.77 C199.877051,307.179545 200.121515,307.553031 200.43,307.87 C200.725227,308.171905 201.088807,308.398285 201.49,308.53 C202.238747,308.729423 203.034358,308.651282 203.73,308.31 C204.114006,308.105075 204.453824,307.826425 204.73,307.49 L205.02,307.12 L205.29,307.34 C205.395195,307.431144 205.495344,307.527954 205.59,307.63 C205.680663,307.727201 205.764212,307.830802 205.84,307.94 C205.907595,308.02883 205.955337,308.131134 205.98,308.24 C206.010484,308.358064 206.010484,308.481936 205.98,308.6 C205.927339,308.717901 205.860152,308.82876 205.78,308.93 Z" id="Path" fill="#FFFFFF"></path>
            <path d="M209.18,302.31 L213.13,301.42 L212.13,297.17 L212.39,297.08 L212.64,296.99 L212.89,296.92 C213.038144,296.889535 213.188782,296.872798 213.34,296.87 C213.503678,296.865223 213.666718,296.892397 213.82,296.95 C213.981343,297.011372 214.125442,297.11087 214.24,297.24 C214.378051,297.410914 214.470899,297.613804 214.51,297.83 L216.61,307.13 L214.49,307.61 L213.49,303.08 L209.54,303.97 L210.54,308.5 L208.42,308.98 L206.07,298.54 L206.34,298.45 L206.57,298.37 L206.79,298.3 C206.947855,298.265517 207.108514,298.245435 207.27,298.24 C207.433696,298.234965 207.596786,298.262146 207.75,298.32 C207.911159,298.381722 208.05518,298.481166 208.17,298.61 C208.309578,298.783774 208.402509,298.990287 208.44,299.21 L209.18,302.31 Z" id="Path" fill="#FFFFFF"></path>
            <path d="M228.79,304.09 L227.04,304.55 L223.85,299.6 L223.61,305.46 L221.88,305.92 L215.69,296.54 C215.846013,296.4288 216.013667,296.334914 216.19,296.26 C216.376564,296.16993 216.570634,296.096318 216.77,296.04 C217.092631,295.920543 217.447369,295.920543 217.77,296.04 C218.050157,296.175239 218.283482,296.391152 218.44,296.66 L222.21,302.74 L222.43,297.48 L221.02,295.04 L221.54,294.79 C221.689373,294.725897 221.843089,294.67243 222,294.63 C222.321044,294.501991 222.678956,294.501991 223,294.63 C223.271534,294.775882 223.494118,294.998466 223.64,295.27 L227.18,301.22 L227.25,294.45 C227.25036,294.120282 227.336517,293.796334 227.5,293.51 C227.660133,293.265787 227.900718,293.085348 228.18,293 C228.385481,292.940991 228.59668,292.904114 228.81,292.89 L229.32,292.89 L228.79,304.09 Z" id="Path" fill="#FFFFFF"></path>
            <path d="M239.18,300.91 L237.54,298.67 L234.01,299.75 L233.94,302.52 L231.86,303.16 L232.33,292 C232.477726,291.886639 232.634979,291.786265 232.8,291.7 C233.019106,291.579222 233.250398,291.482012 233.49,291.41 L233.87,291.32 C234.184996,291.274027 234.506227,291.337568 234.78,291.5 C234.956495,291.604985 235.106924,291.748576 235.22,291.92 L241.38,300.27 L239.18,300.91 Z M233.99,293.31 L233.93,298.1 L236.67,297.26 L233.99,293.31 Z" id="Shape" fill="#FFFFFF" fill-rule="nonzero"></path>
            <path d="M247.54,290 C247.677278,290.375601 247.754885,290.770384 247.77,291.17 C247.778663,291.508765 247.731361,291.846638 247.63,292.17 C247.538155,292.463537 247.399722,292.740402 247.22,292.99 C247.053009,293.219823 246.858192,293.428075 246.64,293.61 L250.58,297 C250.413169,297.15025 250.232345,297.284193 250.04,297.4 C249.857274,297.513876 249.662821,297.60775 249.46,297.68 C249.141106,297.801438 248.794145,297.829195 248.46,297.76 C248.087143,297.660111 247.744028,297.471398 247.46,297.21 L244.72,294.87 L243.89,295.16 L245.2,298.97 L243.11,299.69 L239.63,289.62 C240.063333,289.413333 240.513333,289.216667 240.98,289.03 C241.446667,288.843333 241.87,288.683333 242.25,288.55 C243.341924,288.075891 244.552657,287.946793 245.72,288.18 C246.590652,288.447798 247.272202,289.129348 247.54,290 Z M245.43,290.95 C245.305424,290.421265 244.932885,289.985394 244.43,289.78 C243.938331,289.639569 243.413806,289.667731 242.94,289.86 L242.48,290.04 L242.16,290.19 L243.37,293.68 L244.08,293.43 C244.602643,293.279675 245.053553,292.94593 245.35,292.49 C245.592275,292.028654 245.621484,291.484635 245.43,291 L245.43,290.95 Z" id="Shape" fill="#FFFFFF" fill-rule="nonzero"></path>
            <path d="M258.6,294 L256.8,291.88 L253.36,293.22 L253.49,295.98 L251.49,296.77 L251.13,285.58 C251.266255,285.453797 251.413506,285.340012 251.57,285.24 C251.780715,285.103351 252.005299,284.989383 252.24,284.9 C252.363689,284.853736 252.490724,284.816963 252.62,284.79 C252.76575,284.766808 252.91425,284.766808 253.06,284.79 C253.222918,284.806298 253.381863,284.850262 253.53,284.92 C253.712642,285.01066 253.873102,285.140393 254,285.3 L260.75,293.18 L258.6,294 Z M252.87,286.8 L253.16,291.58 L255.83,290.58 L252.87,286.8 Z" id="Shape" fill="#FFFFFF" fill-rule="nonzero"></path>
            <path d="M266.71,288.39 C266.903611,288.288136 267.11336,288.220475 267.33,288.19 C267.488012,288.154333 267.651988,288.154333 267.81,288.19 C267.946384,288.237358 268.069709,288.316149 268.17,288.42 C268.266492,288.520743 268.347386,288.635343 268.41,288.76 L268.53,289.03 L268.63,289.28 L262.42,292.36 L257.66,282.76 L263.66,279.76 L263.83,280.01 L263.97,280.27 C264.129565,280.534261 264.172984,280.852664 264.09,281.15 C263.910021,281.488927 263.610713,281.74904 263.25,281.88 L260.43,283.28 L261.6,285.65 L264.6,284.14 L265.36,285.67 L262.36,287.18 L263.68,289.83 L266.71,288.39 Z" id="Path" fill="#FFFFFF"></path>
        </g>
    </g>
</svg>