<?xml version="1.0" encoding="UTF-8"?>
<svg width="400px" height="400px" viewBox="0 0 400 400" version="1.1" xmlns="http://www.w3.org/2000/svg" xmlns:xlink="http://www.w3.org/1999/xlink">
    <!-- Generator: Sketch 52.2 (67145) - http://www.bohemiancoding.com/sketch -->
    <title>West Ham</title>
    <desc>Created with Sketch.</desc>
    <defs>
        <polygon id="path-1" points="0 0.911953668 290.008352 0.911953668 290.008352 323.924942 0 323.924942"></polygon>
    </defs>
    <g id="West-Ham" stroke="none" stroke-width="1" fill="none" fill-rule="evenodd">
        <g id="west-ham-united-seeklogo.com" transform="translate(55.000000, 37.000000)">
            <g id="Group-3">
                <mask id="mask-2" fill="white">
                    <use xlink:href="#path-1"></use>
                </mask>
                <g id="Clip-2"></g>
                <path d="M145.005425,156.847274 L144.975451,156.817251 L145.16279,157.004896 L145.005425,156.847274 Z M289.990867,11.3862857 L289.990867,11.3662703 C245.937464,4.65734363 196.807172,0.911953668 144.995433,0.911953668 C93.1849442,0.911953668 44.0521545,4.65734363 0,11.3662703 L0,11.6052046 L0.00624463519,132.562286 C0.032472103,234.997575 59.3315279,292.607027 142.637459,323.236911 L145.005425,323.997498 L145.012918,324 L147.377137,323.236911 C230.684318,292.607027 289.97588,234.997575 290.008352,132.562286 L290.008352,11.3862857 L289.990867,11.3862857 Z" id="Fill-1" fill="#31A5D1" mask="url(#mask-2)"></path>
            </g>
            <path d="M279.982514,21.7577587 L279.982514,21.7402335 C238.970852,15.4900104 193.227891,12 144.991881,12 C96.7546225,12 51.0116622,15.4900104 10,21.7402335 L10,21.9618016 L10.0049961,136.665225 C10.0299765,232.090972 65.2392804,285.756767 142.796099,314.288979 L145.000625,314.996245 L145.008119,315 L147.208897,314.288979 C224.768214,285.756767 279.970023,232.090972 280,136.665225 L280,21.7577587 L279.982514,21.7577587" id="Fill-4" fill="#662632"></path>
            <path d="M211.511135,262.164343 C213.641965,264.312358 217.051791,262.040202 220.550038,258.520367 C224.045794,255.000531 226.302407,251.564711 224.171577,249.415442 L90.6964489,118.402832 C88.5643737,116.254817 84.7535385,116.6147 82.1855834,119.200344 C79.6151377,121.787241 79.2614523,125.624325 81.3935275,127.771086 L211.511135,262.164343" id="Fill-5" fill="#C79D45"></path>
            <path d="M94.6550264,116.680409 L105.670525,103.682875 C105.670525,103.682875 106.711122,102.292488 105.093672,100.318466 C100.843311,95.1300411 92.3237373,87.5629578 92.3237373,87.5629578 C91.0946263,86.6364533 90.2576244,86.8620918 88.8902699,88.1768457 C82.1464976,94.6623769 64.9841878,111.299119 63.9498746,112.37689 C62.6541554,113.719376 62.0584513,114.62193 62.473182,116.919913 C62.8916829,119.239326 64.1207939,123.091567 61.9956133,126.83162 L50.3982352,145.139852 C48.9454211,147.374808 48.5218931,149.34883 49.6190442,150.422818 C50.2046942,150.997629 51.6776165,151.665721 54.6724748,149.57825 C56.1051808,148.583676 71.8750009,137.935807 76.9007828,133.789858 C79.8441139,131.360777 82.0899434,129.151033 82.0899434,129.151033 L91.6073843,119.788926 C91.6073843,119.788926 93.6119159,117.817425 94.6550264,116.680409" id="Fill-6" fill="#F0D051"></path>
            <path d="M55.0589598,147.517101 C51.7466197,149.728136 51.7567299,150.053435 52.2192696,149.99361 C52.9484646,149.834076 53.8583787,149.44646 54.9843974,148.676212 C56.4225672,147.692838 72.2803481,137.164874 77.3341627,133.065611 C79.42191,131.370568 81.1570657,129.787697 82,129 C79.3915796,129.54715 76.0666018,130.798491 74.0496255,132.461129 C71.3451586,134.689612 59.7980958,144.350113 55.0589598,147.517101" id="Fill-7" fill="#C79D45"></path>
            <path d="M94.6650546,116.275538 L105.675674,103.318009 C105.675674,103.318009 106.313679,102.45719 105.800009,101.130146 C105.800009,101.130146 104.891982,100.104703 101.718281,103.810624 C99.0507147,106.924654 97.7885187,108.139854 95.5404283,110.830385 C93.8047519,112.906405 92.5212053,116.369789 92,119 C92.631726,118.376691 93.9052252,117.104941 94.6650546,116.275538" id="Fill-8" fill="#C79D45"></path>
            <path d="M78.4834457,262.164635 C76.3546088,264.3119 72.94598,262.040537 69.4477159,258.52193 C65.9544316,255.003323 63.6973666,251.568701 65.8286933,249.420183 L199.306764,118.403156 C201.43809,116.255891 205.247588,116.613141 207.817131,119.200389 C210.38294,121.786384 210.738991,125.622129 208.607664,127.765634 L78.4834457,262.164635" id="Fill-9" fill="#C79D45"></path>
            <path d="M77.264149,260.166636 L202.598463,131.72138 C204.743415,129.580855 204.38634,125.756167 201.801624,123.175534 C200.449753,121.826453 198.758349,121.091272 197.143371,121 L65.8327615,248.742584 C63.7880415,250.786835 65.7625995,253.997623 69.0000727,257.337192 C72.2225112,260.370436 75.289591,262.14087 77.264149,260.166636" id="Fill-10" fill="#F0D051"></path>
            <path d="M195.345176,116.680144 L184.329699,103.682563 C184.329699,103.682563 183.289104,102.292172 184.905293,100.318143 C189.156903,95.1309598 197.67646,87.5625889 197.67646,87.5625889 C198.908082,86.6360811 199.745083,86.862981 201.109921,88.1764791 C207.85368,94.6620334 225.015957,111.298835 226.050268,112.37661 C227.345984,113.71784 227.941687,114.621658 227.524444,116.92091 C227.108457,119.237809 225.879349,123.091325 228.005782,126.831391 L239.604394,145.139689 C241.054692,147.374653 241.476963,149.348682 240.382327,150.422674 C239.795421,150.997487 238.322502,151.665581 235.327649,149.579363 C233.894946,148.583525 218.125157,137.935619 213.099385,133.789654 C210.154803,131.359304 207.908977,129.150812 207.908977,129.150812 L198.392812,119.788672 C198.392812,119.788672 196.389541,117.817164 195.345176,116.680144" id="Fill-11" fill="#F0D051"></path>
            <path d="M235.942409,147.517101 C239.252235,149.728136 239.244652,150.053435 238.779583,149.99361 C238.050385,149.834076 237.140467,149.44646 236.016972,148.676212 C234.576269,147.692838 218.718426,137.164874 213.664592,133.063118 C211.5781,131.370568 209.844201,129.787697 209,129 C211.608431,129.54715 214.932158,130.798491 216.949142,132.461129 C219.654883,134.689612 231.200727,144.350113 235.942409,147.517101" id="Fill-12" fill="#C79D45"></path>
            <path d="M195.334763,116.275395 L184.325903,103.317183 C184.325903,103.317183 183.685342,102.456318 184.200303,101.130461 C184.200303,101.130461 185.108393,100.103707 188.282311,103.81108 C190.950059,106.924017 192.213598,108.139282 194.460586,110.829955 C196.196381,112.907341 197.478759,116.370907 198,119 C197.370743,118.376659 196.097157,117.104841 195.334763,116.275395" id="Fill-13" fill="#C79D45"></path>
            <path d="M217.217642,120.217619 C216.175759,121.260794 214.486799,121.260794 213.444916,120.217619 L207.781412,114.552692 C206.739529,113.512041 206.739529,111.823032 207.781412,110.783642 C208.823295,109.739207 210.512255,109.739207 211.554138,110.781119 L217.217642,116.444785 C218.260786,117.485437 218.260786,119.175707 217.217642,120.217619" id="Fill-14" fill="#C79D45"></path>
            <path d="M208.594368,114.552844 C207.516687,113.511666 207.516687,111.821803 208.594368,110.779363 C209.032216,110.35532 209.583436,110.106699 210.14899,110.027191 C209.320206,109.912346 208.445812,110.160967 207.807283,110.779363 C206.730906,111.821803 206.730906,113.511666 207.807283,114.552844 L213.658293,120.220637 C214.296822,120.839033 215.171216,121.087654 216,120.972809 C215.43184,120.892039 214.88062,120.645942 214.445378,120.220637 L208.594368,114.552844" id="Fill-15" fill="#BC9A42"></path>
            <polyline id="Fill-16" fill="#C79D45" points="210.406801 117 210 117 210 116.59354 212.593199 114.001258 213 114 213 114.40646 210.406801 117"></polyline>
            <polyline id="Fill-17" fill="#C79D45" points="211.6585 117.6585 211.3395 117.6585 211.3395 117.3415 211.6605 117.3415 211.6585 117.6585"></polyline>
            <polygon id="Fill-18" fill="#C79D45" points="209.3405 115.6585 209.6595 115.6585 209.6595 115.3415 209.3405 115.3415"></polygon>
            <polyline id="Fill-19" fill="#C79D45" points="212 111.773557 211.225877 111 210.871711 111.001096 210.871711 111.356099 210.994518 111.479912 210.998904 111.645362 209.001096 113.641709 209 113.997809 209.354167 114 211.360746 111.992695 211.51864 112.003652 211.64364 112.129657 212 112.129657 212 111.773557"></polyline>
            <polyline id="Fill-20" fill="#C79D45" points="217 117.204138 216.558864 117.133793 214.911497 118.325517 214.686793 118.310345 214.653708 118.111724 214.991453 117.438621 214.955611 117.10069 214.951475 117.097931 214.93769 117.08 214.929418 117.071724 214.921147 117.06069 214.904604 117.049655 214.900469 117.046897 214.565481 117.011034 213.889992 117.347586 213.691481 117.315862 213.673559 117.089655 214.866005 115.441379 214.799835 115 214.360077 115.070345 212 118.321379 212.02895 118.724138 212.042735 118.74069 212.048249 118.743448 212.399779 118.791724 213.556383 118.217931 213.748001 118.252414 213.776951 118.457931 213.210367 119.602759 213.258616 119.955862 213.265509 119.96 213.276537 119.973793 213.680452 120 216.931073 117.642759 217 117.204138"></polyline>
            <path d="M93.8056987,122.001356 C92.1792967,121.965016 90.4177783,122.65925 89.041592,124.0402 C86.6420236,126.443705 86.3092367,130.007609 88.3009536,132.002594 L141.883392,187 L151,177.867182 L93.8056987,122.001356" id="Fill-21" fill="#F0D051"></path>
            <path d="M224.17106,249.161133 L156.772006,183 C155.715407,183.477462 154.722428,184.148421 153.854196,185.024187 C150.346336,188.557405 150.071895,194.112296 153.030872,197.963403 L213.311915,260.221914 C215.295377,262.223484 218.471412,260.102549 221.72978,256.825653 C222.278662,256.270289 222.796358,255.718695 223.265404,255.175896 C225.001869,252.813717 225.666765,250.670164 224.17106,249.161133" id="Fill-22" fill="#F0D051"></path>
            <polyline id="Fill-23" fill="#F0D051" points="210.407889 116 210 116 210 115.591195 212.59337 113.002516 213 113 213 113.407547 210.407889 116"></polyline>
            <polyline id="Fill-24" fill="#F0D051" points="211.658 117.659 211.34 117.659 211.34 117.341 211.66 117.341 211.658 117.659"></polyline>
            <polyline id="Fill-25" fill="#F0D051" points="209.6595 115.6595 209.3425 115.6595 209.3405 115.3405 209.6595 115.3405 209.6595 115.6595"></polyline>
            <polyline id="Fill-26" fill="#F0D051" points="212 111.775749 211.22807 111 210.871711 111.003287 210.871711 111.356099 210.995614 111.481008 211 111.647553 209 113.646092 209 113.997809 209.35636 114 211.360746 111.994887 211.520833 112.006939 211.645833 112.129657 212 112.129657 212 111.775749"></polyline>
            <polyline id="Fill-27" fill="#F0D051" points="217 117.20353 216.558864 117.133205 214.914254 118.325979 214.686793 118.31219 214.653708 118.112245 214.991453 117.436569 214.956989 117.102868 214.951475 117.098731 214.939068 117.080805 214.929418 117.071153 214.921147 117.062879 214.905983 117.04909 214.89909 117.047711 214.564103 117.011859 213.889992 117.348318 213.691481 117.316602 213.673559 117.091837 214.868762 115.442637 214.799835 115 214.360077 115.071704 212 118.323221 212.02895 118.723111 212.042735 118.741037 212.049628 118.743795 212.399779 118.792057 213.556383 118.218423 213.74938 118.252896 213.779708 118.458356 213.210367 119.604247 213.258616 119.955874 213.262752 119.962769 213.276537 119.9738 213.680452 120 216.932451 117.646167 217 117.20353"></polyline>
            <path d="M83.2186215,110.782358 C84.2604595,111.824241 84.2604595,113.513201 83.2186215,114.555084 L77.5528387,120.218588 C76.5122619,121.260471 74.8246356,121.260471 73.7815363,120.218588 C72.7396982,119.174182 72.7396982,117.487745 73.780275,116.445862 L79.4447964,110.782358 C80.4853732,109.739214 82.1755221,109.739214 83.2186215,110.782358" id="Fill-28" fill="#C79D45"></path>
            <path d="M74.2036002,116.630714 L79.6305234,111.204568 C80.551119,110.283694 81.9960434,110.213602 83,110.993081 L82.787369,110.747757 C81.789453,109.750748 80.171766,109.750748 79.17385,110.747757 L73.7493431,116.17632 C72.750219,117.17212 72.750219,118.792713 73.7493431,119.788513 L73.9921774,120 C73.2153493,118.996949 73.2830046,117.551588 74.2036002,116.630714" id="Fill-29" fill="#BC9A42"></path>
            <polyline id="Fill-30" fill="#C79D45" points="79 117.592111 79 118 78.593199 118 76 115.40663 76 115 76.406801 115 79 117.592111"></polyline>
            <polyline id="Fill-31" fill="#C79D45" points="79.6595 116.3405 79.6595 116.6595 79.3425 116.6595 79.3405 116.3405 79.6595 116.3405"></polyline>
            <polyline id="Fill-32" fill="#C79D45" points="78.6595 118.3405 78.6595 118.6575 78.3405 118.6595 78.3405 118.3405 78.6595 118.3405"></polyline>
            <polyline id="Fill-33" fill="#C79D45" points="74.7735573 116 74 116.772212 74.0010957 117.127605 74.3560993 117.127605 74.4799123 117.004753 74.6464573 117.001463 76.6439007 119 76.9978086 119 77 118.644607 74.9926954 116.637294 75.0036523 116.479342 75.1296567 116.354296 75.1296567 116 74.7735573 116"></polyline>
            <polyline id="Fill-34" fill="#C79D45" points="79.2021511 111 79.1318257 111.439879 80.327358 113.0877 80.3108108 113.313844 80.109487 113.34556 79.4338114 113.009101 79.1001103 113.043574 79.0932157 113.04909 79.0780474 113.062879 79.0711528 113.069774 79.0601213 113.080805 79.047711 113.095974 79.0421953 113.102868 79.0091009 113.436569 79.342802 114.109487 79.3124655 114.310811 79.086321 114.327358 77.4371208 113.133205 77 113.202151 77.0689465 113.643409 80.3190844 116 80.7231109 115.972421 80.7369002 115.957253 80.741037 115.953116 80.7892995 115.601489 80.2156646 114.444567 80.2501379 114.252896 80.4555985 114.222559 81.6001103 114.7893 81.9531164 114.742416 81.9572532 114.738279 81.9710425 114.723111 82 114.321842 79.6406509 111.068946 79.2021511 111"></polyline>
            <polyline id="Fill-35" fill="#F0D051" points="79 116.592111 79 117 78.593199 117 76 114.407889 76 114 76.406801 114 79 116.592111"></polyline>
            <polyline id="Fill-36" fill="#F0D051" points="79.6595 116.3415 79.6595 116.6605 79.3425 116.6605 79.3405 116.3395 79.6595 116.3415"></polyline>
            <polyline id="Fill-37" fill="#F0D051" points="78.6595 118.34 78.6595 118.659 78.3405 118.66 78.3405 118.34 78.6595 118.34"></polyline>
            <polyline id="Fill-38" fill="#F0D051" points="74.7735573 116 74 116.772744 74.0010957 117.128973 74.3560993 117.128973 74.4799123 117.006211 74.6464573 117.000731 76.6439007 119 76.9978086 119 77 118.645963 74.9926954 116.639021 75.0036523 116.481184 75.1296567 116.356229 75.1296567 116 74.7735573 116"></polyline>
            <polyline id="Fill-39" fill="#F0D051" points="79.2021511 111 79.1318257 111.441136 80.327358 113.085746 80.3108108 113.313207 80.109487 113.343535 79.4338114 113.011304 79.1001103 113.044389 79.0932157 113.048525 79.0780474 113.060932 79.0711528 113.070582 79.0601213 113.08161 79.047711 113.096774 79.0421953 113.103667 79.0091009 113.434519 79.342802 114.110008 79.3124655 114.308519 79.086321 114.329198 77.4371208 113.132616 77 113.200165 77.0689465 113.64268 80.3190844 116 80.7231109 115.973808 80.7369002 115.957265 80.741037 115.951751 80.7892995 115.600221 80.2156646 114.443617 80.2501379 114.251999 80.4555985 114.223049 81.6001103 114.788255 81.9531164 114.741384 81.9572532 114.737248 81.9710425 114.722084 82 114.322305 79.6406509 111.070306 79.2021511 111"></polyline>
            <path d="M92.5712457,78.9555349 C87.4645829,79.4292667 82.6074559,76.077367 82.4663044,70.8256052 C82.3100294,65.9895924 82.1550147,61.1535796 82,56.3175668 C84.3163984,56.1399173 85.4771181,56.057261 87.7960371,55.8956493 C87.9371887,60.7316621 88.0783403,65.5676749 88.2194918,70.4036877 C88.2888074,72.8118247 89.9347357,73.9813503 92.3998474,73.8209723 C92.7401235,73.8012335 92.9115219,73.7888967 93.2530583,73.7679242 C95.7169097,73.6112472 97.2947828,72.234464 97.2368098,69.826327 C97.117083,64.9903142 96.9986165,60.1543014 96.8788897,55.3158212 C99.2003292,55.1813505 100.361049,55.118433 102.683749,55 C102.788352,59.8384802 102.892956,64.674493 102.998819,69.5129731 C103.083258,74.7906422 98.6269009,78.6631535 93.4244567,78.9024868 C93.0816599,78.9234593 92.9115219,78.9333287 92.5712457,78.9555349" id="Fill-40" fill="#FFFFFE"></path>
            <path d="M107,53.7254912 C109.608377,53.5991557 110.915006,53.5416167 113.523383,53.4365456 C116.455063,58.2748215 119.368442,63.1231042 122.259862,67.9888987 L122.324522,67.986397 C122.275722,63.0367957 122.228142,58.0884453 122.181781,53.1400949 C124.430256,53.0763017 125.557544,53.048783 127.808459,53 C127.870679,60.7602543 127.93534,68.5192578 128,76.2770105 C125.430663,76.3332986 124.147214,76.3658206 121.580317,76.4408714 C118.686458,71.5925887 115.773078,66.7568145 112.841399,61.9322979 L112.776739,61.9360505 C112.848719,66.8731433 112.919479,71.8102361 112.99024,76.7473289 C110.766165,76.8398916 109.654738,76.8899255 107.431883,77 C107.289142,69.2422474 107.143961,61.4832439 107,53.7254912" id="Fill-41" fill="#FFFFFE"></path>
            <path d="M132,53.0689988 C134.366902,53.0344994 135.549711,53.0197139 137.917896,53 C137.944836,60.6440778 137.974343,68.2869234 138,75.9310012 C135.661321,75.9507152 134.490058,75.9642685 132.152662,76 C132.100064,68.3559222 132.048749,60.7130766 132,53.0689988" id="Fill-42" fill="#FFFFFE"></path>
            <path d="M149.556235,57.8184423 C146.538066,57.8036475 145.028345,57.8011817 142.008903,57.8135107 L142,53.000274 C149.002968,52.9953424 156.000848,53.0569874 163,53.183976 C162.984737,55.1109967 162.974562,56.0714248 162.958028,57.9984455 C159.939858,57.9331019 158.427594,57.9084439 155.409424,57.8702241 C155.377627,63.9138937 155.347102,69.9563304 155.314033,76 C152.994125,75.9728762 151.832899,75.963013 149.515535,75.9506841 C149.528254,69.9057815 149.542245,63.8621119 149.556235,57.8184423" id="Fill-43" fill="#FFFFFE"></path>
            <path d="M167.252895,54 C172.464789,54.1572245 177.67543,54.3484094 182.886072,54.5748126 C182.849765,56.5382317 182.832238,57.5205702 182.795931,59.4839893 C178.859781,59.3016089 176.89421,59.22111 172.958059,59.0852681 C172.934272,60.7883235 172.921753,61.6398512 172.900469,63.3416488 C176.105477,63.4523348 177.707981,63.5152246 180.911737,63.6573555 C180.876682,65.6220324 180.859155,66.6043708 180.825352,68.5665322 C177.627856,68.425659 176.029108,68.3602537 172.831612,68.2520832 C172.807825,70.020544 172.795305,70.9047744 172.771518,72.6707196 C176.862911,72.8115927 178.909859,72.8946072 183,73.0895655 C182.962441,75.0542424 182.946166,76.0365809 182.908607,78 C177.605321,77.7673078 172.304538,77.5673183 167,77.4063204 C167.083881,69.6029558 167.169014,61.800849 167.252895,54" id="Fill-44" fill="#FFFFFE"></path>
            <path d="M195.807587,73.0172717 C199.664728,73.2677474 202.087364,71.0864692 202.210881,66.5993044 C202.334398,62.144865 199.928882,59.6703163 196.141448,59.426134 C194.883047,59.345579 194.254458,59.3053015 192.994833,59.2310399 C192.889661,63.7622582 192.786934,68.2922179 192.681762,72.8234362 C193.932826,72.8989565 194.557746,72.9367167 195.807587,73.0172717 M187.474499,54 C191.082161,54.1900594 192.883546,54.2945292 196.486316,54.5261248 C203.029025,54.7791178 208.176364,60.2870655 207.995369,67.0436155 C207.816821,73.6742983 202.305047,78.5780835 195.909091,77.9449716 C192.346677,77.713376 190.566082,77.6089063 187,77.4213642 C187.158982,69.6150819 187.317963,61.8062823 187.474499,54" id="Fill-45" fill="#FFFFFE"></path>
            <path d="M34,26.9805541 C36.992701,26.6064511 38.4909242,26.4261903 41.4873707,26.0780153 C42.8307776,32.6032101 44.1741845,39.1259356 45.5175913,45.6474265 L45.5999936,45.6400185 C47.136921,38.7950459 48.6750968,31.9525426 50.2145212,25.1100394 C52.7952108,24.8371788 54.0861799,24.7050698 56.6693665,24.4507292 C58.1675897,30.983332 59.66831,37.5159349 61.1677818,44.0485377 L61.247687,44.0398951 C62.7009636,37.233197 64.1567372,30.426499 65.6125108,23.6173316 C68.5677562,23.3580523 70.0435061,23.2358207 73,23 C70.5341742,32.8303881 68.072094,42.6607763 65.6125108,52.4923991 C62.1478695,52.7973609 60.4136761,52.9566325 56.9540289,53.2973995 C55.7766751,47.7747511 54.5980728,42.2533374 53.420719,36.7306891 L53.3383167,36.7393317 C52.160963,42.5027394 50.9861062,48.2636778 49.810001,54.0270854 C46.3153952,54.398719 44.5699651,54.5925612 41.0791049,55 C38.7206518,45.6597731 36.3609502,36.3195463 34,26.9805541" id="Fill-46" fill="#FFFFFE"></path>
            <path d="M221.976598,23 C225.192784,23.2775431 226.79838,23.4232218 230.010821,23.7334171 C232.1358,30.0365339 234.255786,36.3409065 236.374524,42.646535 L236.456926,42.655326 C238.574415,36.7892453 240.695649,30.9244206 242.816884,25.0608517 C245.993117,25.4150017 247.581234,25.598356 250.756219,25.9801347 C252.505394,35.9892682 254.25457,45.9933782 256,56 C253.054743,55.6257564 251.583987,55.4474255 248.634984,55.097043 C247.772257,48.5641055 246.90953,42.0274004 246.046803,35.4944628 L245.96565,35.484416 C243.878125,41.6858089 241.789352,47.8859459 239.703076,54.0898504 C237.122387,53.8123073 235.831418,53.6779313 233.248231,53.4204818 C231.120754,46.779541 228.992029,40.141112 226.858309,33.502683 L226.775907,33.4951478 C226.020553,39.8598013 225.265198,46.2269665 224.508596,52.59162 C221.505906,52.3216121 220.005186,52.1960269 217,51.9523918 C218.659282,42.3036876 220.318565,32.64996 221.976598,23" id="Fill-47" fill="#FFFFFE"></path>
            <path d="M76,22.3247646 C82.5919339,21.8235366 89.1826152,21.3819484 95.7820641,21 C95.6392786,23.4997953 95.5691383,24.7471551 95.4263527,27.2469505 C91.3394289,27.4842407 87.2537575,27.7418338 83.1680862,28.017192 C83.1680862,30.1769136 83.1680862,31.2555055 83.1680862,33.4139582 C87.1698397,33.1335244 89.1688377,33.0053623 93.1705912,32.769341 L93.1705912,38.9959885 C89.1688377,39.229472 87.1698397,39.3563651 83.1680862,39.6393369 C83.1680862,41.8802702 83.1680862,43.0007368 83.1680862,45.2416701 C87.4441383,44.9409333 91.7201904,44.6744576 96,44.4384363 C96,46.9280802 96,48.1741711 96,50.6650839 C89.3279058,51.0495702 82.6620741,51.4936963 76,52 C76,42.1086779 76,32.2160868 76,22.3247646" id="Fill-48" fill="#FFFFFE"></path>
            <path d="M129.365421,26.1796193 C125.620013,26.2401312 123.745408,26.282119 120,26.3833837 C120,23.9604395 120,22.7477324 120,20.3235532 C128.666244,20.1099093 137.328689,20.0012349 146,20 C145.997467,22.4241792 145.997467,23.6344164 145.997467,26.0585956 C142.252058,26.051186 140.377454,26.0573606 136.629512,26.088234 C136.629512,33.6954393 136.629512,41.3014095 136.629512,48.9110846 C133.725142,48.9345484 132.269791,48.9530724 129.365421,49 C129.365421,41.3927948 129.365421,33.7843546 129.365421,26.1796193" id="Fill-49" fill="#FFFFFE"></path>
            <path d="M157,20 C159.892226,20.0362802 161.340232,20.058799 164.232458,20.118849 L164.232458,31.8198499 C168.413762,31.9161802 172.591283,32.030025 176.771326,32.1651376 L176.771326,20.4628857 C179.662291,20.5617181 181.110296,20.618015 184,20.7431193 L184,50 C181.110296,49.8761468 179.662291,49.8198499 176.771326,49.7197665 L176.771326,38.2627189 C172.591283,38.1288574 168.413762,38.0125104 164.232458,37.9186822 L164.232458,49.3744787 C161.340232,49.3156797 159.892226,49.293161 157,49.2568807 C157,39.5050042 157,29.7531276 157,20" id="Fill-50" fill="#FFFFFE"></path>
            <path d="M199.965146,28.0770113 C198.895883,31.6370931 197.827865,35.1959058 196.759847,38.7572569 C199.340269,38.9095599 200.631102,38.9907881 203.210278,39.1659365 C202.157197,35.4700512 201.100382,31.775435 200.046057,28.0833572 L199.965146,28.0770113 M204.880768,45.0917912 C200.963457,44.818915 199.005424,44.6958035 195.089357,44.4698874 C194.387303,46.920696 194.036276,48.1467349 193.336712,50.5975435 C190.402774,50.435087 188.933938,50.3602047 186,50.223132 C188.943896,40.482088 191.891527,30.741044 194.841647,21 C198.690495,21.2208393 200.61492,21.3439509 204.460034,21.6079427 C207.645417,31.7373593 210.824575,41.8667758 214,52 C211.069796,51.7639304 209.604695,51.6547799 206.672001,51.442825 C205.95501,48.9019038 205.597759,47.6327124 204.880768,45.0917912" id="Fill-51" fill="#FFFFFE"></path>
            <path d="M109.197132,21.0124569 C103.966104,21.2009182 98.0394009,24.4617943 98.000208,30.413203 C97.9389691,39.5015002 111.41888,37.0601827 112.250505,42.0258894 C112.481988,43.3996729 110.95224,44.5539983 109.018314,44.5515185 C105.413792,44.5453191 102.569856,43.8348697 99.6242642,42.3061016 C99.4821899,44.8106528 99.3633864,46.1261621 99.2666289,48.4000962 C102.306529,50.4620114 105.446861,50.9071271 108.843171,50.9963983 C113.884359,51.1290651 119.948237,47.5892167 119.999678,41.6216896 C120.075614,32.6053053 106.713282,34.6461425 105.744482,29.9569284 C105.495852,28.7554877 106.944765,27.575125 109.108948,27.4486576 C112.4134,27.2564766 114.790695,28.0871941 116.598468,28.8385595 C116.744217,25.9558459 116.787084,25.5454466 116.94753,22.7383655 C115.355318,21.8121775 112.848197,20.88103 109.197132,21.0124569" id="Fill-52" fill="#FFFFFE"></path>
            <polyline id="Fill-53" fill="#FFFFFE" points="102.45105 262 106.067115 263.497334 100.968035 274.56432 107 277.060697 105.646733 280 96 276.002597 102.45105 262"></polyline>
            <path d="M116.797938,280.360106 C119.000415,280.969611 121.290155,279.548262 121.980888,277.012178 C122.640894,274.579127 121.368815,272.259039 119.167567,271.649535 C116.96509,271.035066 114.695014,272.374485 114.033779,274.807536 C113.343047,277.344861 114.59546,279.74812 116.797938,280.360106 M120.070927,268.321469 C124.518899,269.556615 126.866405,273.784662 125.704943,278.046225 C124.518899,282.413304 120.337633,284.919595 115.89212,283.68569 C111.446606,282.453027 109.119993,278.139327 110.308495,273.774731 C111.4675,269.511926 115.624184,267.087564 120.070927,268.321469" id="Fill-54" fill="#FFFFFE"></path>
            <path d="M128.613234,271 L132.5386,271.392727 L136.1703,279.148446 C136.685817,280.24048 137.225699,281.954542 137.225699,281.954542 L137.2693,281.958343 C137.2693,281.958343 137.265453,280.254415 137.368043,279.268798 L138.1208,271.957746 L142,272.346673 L140.386766,288 L136.487048,287.60854 L132.827135,279.875624 C132.311618,278.78359 131.771736,277.069528 131.771736,277.069528 L131.729418,277.065728 C131.729418,277.065728 131.7307,278.769655 131.630675,279.752739 L130.8792,287.046054 L127,286.654594 L128.613234,271" id="Fill-55" fill="#FFFFFE"></path>
            <path d="M151.041498,284.418214 C153.676807,284.275347 155.202247,282.608988 155.041542,279.603727 C154.883349,276.622488 153.124384,275.176119 150.554362,275.316457 L148.986234,275.401166 L149.47337,284.501658 L151.041498,284.418214 Z M145,272.320046 L150.530507,272.017876 C155.429494,271.752371 158.721432,274.455463 158.983833,279.391323 C159.24749,284.323391 156.268172,287.434854 151.369185,287.700359 L145.837423,288 L145,272.320046 Z" id="Fill-56" fill="#FFFFFE"></path>
            <path d="M169.978521,281.418121 C172.20902,280.922275 173.581256,278.582233 173.021787,276.01353 C172.484451,273.545487 170.287151,272.086534 168.054193,272.584865 C165.823694,273.08071 164.433013,275.335005 164.96912,277.801804 C165.528589,280.372993 167.745562,281.915209 169.978521,281.418121 M167.32012,269.212122 C171.826613,268.210489 175.85725,270.848784 176.796667,275.170966 C177.761905,279.601263 175.217857,283.790474 170.710134,284.793349 C166.2061,285.793739 162.157019,283.068453 161.193011,278.641883 C160.253594,274.318459 162.814856,270.212512 167.32012,269.212122" id="Fill-57" fill="#FFFFFE"></path>
            <path d="M176,267.829361 L179.568696,266.414389 L186.280348,271.45046 C187.225739,272.157946 188.482922,273.387126 188.482922,273.387126 L188.522991,273.371131 C188.522991,273.371131 187.735374,271.909403 187.368487,271.017355 L184.65127,264.398977 L188.181148,263 L194,277.170639 L190.450087,278.576998 L183.727165,273.569227 C182.77927,272.861741 181.523339,271.632561 181.523339,271.632561 L181.48327,271.647325 C181.48327,271.647325 182.272139,273.110284 182.636522,273.99987 L185.347478,280.601023 L181.818852,282 L176,267.829361" id="Fill-58" fill="#FFFFFE"></path>
        </g>
    </g>
</svg>