<svg xmlns="http://www.w3.org/2000/svg" width="64" height="21" viewBox="0 0 64 21">
  <g opacity=".5">
    <g opacity=".38" transform="translate(.18 .404)">
      <path d="M12.2160763,6.55965488 C12.2160763,4.56516522 9.80727256,4.68341629 9.80727256,4.68341629 L7.39846877,4.68341629 L7.39846877,8.28821258 L9.80727256,8.28821258 C12.2878243,8.30292748 12.2160763,6.55965488 12.2160763,6.55965488 Z M7.39846877,13.7841396 L9.2338052,13.7841396 C11.1407175,13.6806035 11.0689696,12.218155 11.0689696,12.218155 C11.0689696,10.4009533 8.96126626,10.3713462 8.96126626,10.3713462 L7.39846877,10.3713462 L7.39846877,13.7841396 Z M11.771652,9.66219434 C11.771652,9.66219434 13.4204782,10.3860611 13.4061975,12.306799 C13.4061975,12.306799 13.6568851,15.4534832 9.61009477,15.8376662 L5.11870805,15.8376662 L5.11870805,2.64460371 L10.2661497,2.64460464 C10.2661497,2.64460464 14.567585,2.62971245 14.567585,6.36765201 C14.567585,6.36765201 14.6678945,8.90872047 11.771652,9.66219434 Z M0.150034064,18.4229857 L19.0553585,18.4229857 L19.0553585,0.0658802095 L0.150034064,0.0658802095 L0.150034064,18.4229857 Z" transform="matrix(1 0 0 -1 21.994 19.217)"/>
      <path d="M12.2160763,6.55965488 C12.2160763,4.56516522 9.80727256,4.68341629 9.80727256,4.68341629 L7.39846877,4.68341629 L7.39846877,8.28821258 L9.80727256,8.28821258 C12.2878243,8.30292748 12.2160763,6.55965488 12.2160763,6.55965488 Z M7.39846877,13.7841396 L9.2338052,13.7841396 C11.1407175,13.6806035 11.0689696,12.218155 11.0689696,12.218155 C11.0689696,10.4009533 8.96126626,10.3713462 8.96126626,10.3713462 L7.39846877,10.3713462 L7.39846877,13.7841396 Z M11.771652,9.66219434 C11.771652,9.66219434 13.4204782,10.3860611 13.4061975,12.306799 C13.4061975,12.306799 13.6568851,15.4534832 9.61009477,15.8376662 L5.11870805,15.8376662 L5.11870805,2.64460371 L10.2661497,2.64460464 C10.2661497,2.64460464 14.567585,2.62971245 14.567585,6.36765201 C14.567585,6.36765201 14.6678945,8.90872047 11.771652,9.66219434 Z M0.150034064,18.4229857 L19.0553585,18.4229857 L19.0553585,0.0658802095 L0.150034064,0.0658802095 L0.150034064,18.4229857 Z" transform="matrix(1 0 0 -1 .192 19.217)"/>
      <path d="M15.1410524,14.8921894 L15.1410524,12.4544799 C15.1410524,12.4544799 12.8325581,13.9171056 10.2804304,13.9467127 C10.2804304,13.9467127 5.52029005,14.0424482 5.30521828,9.24468118 C5.30521828,9.24468118 5.13316087,4.83109717 10.2231353,4.57988012 C10.2231353,4.57988012 12.3595722,4.31394816 15.2558147,6.21979384 L15.2558147,3.69344027 C15.2558147,3.69344027 11.3702421,1.31494487 6.86801577,3.14686146 C6.86801577,3.14686146 3.08275268,4.57225674 2.93925679,9.24468118 C2.93925679,9.24468118 2.78148014,14.0500716 7.82861231,15.6456633 C7.82861231,15.6456633 9.17651008,16.1775272 11.5995946,15.9412024 C11.5995946,15.9412024 13.0476298,15.7933442 15.1410524,14.8921894 Z M0.0927389458,0.0661284127 L18.9980634,0.0661284127 L18.9980634,18.4232339 L0.0927389458,18.4232339 L0.0927389458,0.0661284127 Z" transform="matrix(1 0 0 -1 43.852 19.217)"/>
    </g>
  </g>
</svg>
