<?xml version="1.0" encoding="UTF-8"?>
<svg width="96px" height="719px" viewBox="0 0 96 719" version="1.1" xmlns="http://www.w3.org/2000/svg" xmlns:xlink="http://www.w3.org/1999/xlink">
    <!-- Generator: Sketch 49.3 (51167) - http://www.bohemiancoding.com/sketch -->
    <title>Logo / White</title>
    <desc>Created with Sketch.</desc>
    <defs>
        <polygon id="path-1" points="0.00110204082 1.8205 62.3178367 1.8205 62.3178367 97.163 0.00110204082 97.163"></polygon>
        <polygon id="path-3" points="0.000734693878 1.8205 64.5483673 1.8205 64.5483673 97.1628167 0.000734693878 97.1628167"></polygon>
        <polygon id="path-5" points="1.83288034 1.82618333 86.7533718 1.82618333 86.7533718 97.1666667 1.83288034 97.1666667"></polygon>
    </defs>
    <g id="Homepage---Overview" stroke="none" stroke-width="1" fill="none" fill-rule="evenodd" opacity="0.496716486">
        <g id="D-Overview" transform="translate(-671.000000, -3812.000000)">
            <g id="System" transform="translate(49.000000, 2816.000000)">
                <g id="Logo-/-Black" transform="translate(669.655172, 1356.000000) rotate(-270.000000) translate(-669.655172, -1356.000000) translate(309.655172, 1306.344828)">
                    <g>
                        <g id="Group-3" transform="translate(0.000000, 0.013017)">
                            <mask id="mask-2" fill="white">
                                <use xlink:href="#path-1"></use>
                            </mask>
                            <g id="Clip-2"></g>
                            <path d="M31.8996735,44.2108333 L18.368449,44.2108333 L18.368449,20.1538333 L31.8996735,20.1538333 C38.5431429,20.1538333 43.9504898,25.5493333 43.9504898,32.1805 C43.9504898,38.8153333 38.5431429,44.2108333 31.8996735,44.2108333 M31.8996735,1.8205 L0.00110204082,1.82966667 L0.00110204082,97.163 L18.368449,97.163 L18.368449,62.5441667 L31.8996735,62.5441667 C48.6727347,62.5441667 62.3178367,48.9225 62.3178367,32.1805 C62.3178367,15.4403333 48.6727347,1.8205 31.8996735,1.8205" id="Fill-1" fill="#020303" mask="url(#mask-2)"></path>
                        </g>
                        <polygon id="Fill-4" fill="#020303" points="225.919102 97.17565 163.470122 97.17565 163.470122 1.84231667 181.837469 1.84231667 181.837469 78.8423167 225.919102 78.8423167"></polygon>
                        <g id="Group-8" transform="translate(653.877551, 0.013017)">
                            <mask id="mask-4" fill="white">
                                <use xlink:href="#path-3"></use>
                            </mask>
                            <g id="Clip-7"></g>
                            <path d="M18.3680816,20.15365 L31.8993061,20.15365 C38.5427755,20.15365 43.9501224,25.54915 43.9501224,32.18215 C43.9501224,38.81515 38.5427755,44.21065 31.8993061,44.21065 L18.3680816,44.21065 L18.3680816,20.15365 Z M18.3680816,62.5439833 L29.2268571,62.5439833 L44.4827755,97.1628167 L64.549102,97.1628167 L47.4050204,58.2558167 C56.3150204,52.95565 62.3174694,43.2664833 62.3174694,32.18215 C62.3174694,15.44015 48.6723673,1.82031667 31.8993061,1.82031667 L0.000734693878,1.82948333 L0.000734693878,97.1628167 L18.3680816,97.1628167 L18.3680816,62.5439833 Z" id="Fill-6" fill="#020303" mask="url(#mask-4)"></path>
                        </g>
                        <polygon id="Fill-9" fill="#020303" points="521.633388 39.4614 501.172163 1.8414 480.271959 1.8414 512.449714 61.0030667 512.449714 97.1747333 530.817061 97.1747333 530.817061 61.0030667 562.99298 1.8414 542.092776 1.8414"></polygon>
                        <g id="Group-13" transform="translate(314.081633, 0.013017)">
                            <mask id="mask-6" fill="white">
                                <use xlink:href="#path-5"></use>
                            </mask>
                            <g id="Clip-12"></g>
                            <path d="M1.98991837,94.6166833 L42.6313469,2.90601667 C42.9509388,2.18551667 43.6213469,1.82618333 44.2935918,1.82618333 C44.964,1.82618333 45.6380816,2.18551667 45.9558367,2.90601667 L86.5954286,94.6166833 C87.1280816,95.8175167 86.2482857,97.16685 84.9331837,97.16685 L27.5609388,97.16685 L34.2393061,82.10785 C35.1209388,80.11685 37.0954286,78.8335167 39.2774694,78.8335167 L59.5182857,78.8335167 L44.2935918,44.4750167 L20.9450204,97.16685 L3.654,97.16685 C2.33889796,97.16685 1.45910204,95.8175167 1.98991837,94.6166833" id="Fill-11" fill="#020303" mask="url(#mask-6)"></path>
                        </g>
                    </g>
                </g>
            </g>
        </g>
    </g>
</svg>