<svg xmlns="http://www.w3.org/2000/svg" width="128" height="20" viewBox="0 0 128 20">
  <g opacity=".5">
    <g opacity=".79" transform="translate(.5 1.26)">
      <polygon points="46.915 7.56 46.915 15.56 43.958 15.56 43.958 7.56 41 7.56 41 5 49.873 5 49.873 7.56"/>
      <path d="M53.4373292 9.08C52.7978261 9.08 52.4780746 9.48 52.3981367 10.28L54.6363976 10.28C54.4765218 9.48 54.2367081 9.08 53.4373292 9.08M57.0345342 11.96L52.3981367 11.96C52.4780746 12.84 53.0376398 13.24 53.7570808 13.24 54.4765218 13.24 55.036087 13.08 55.8354659 12.68L56.8746584 14.44C55.9154038 15 54.8762112 15.32 53.6771429 15.32 51.2790063 15.32 50 13.64 50 11.16 50 8.44 51.5188199 7 53.597205 7 55.755528 7 57.1144721 8.44 57.1144721 11.4 57.0345342 11.64 57.0345342 11.8 57.0345342 11.96M61.7570808 15.24C59.438882 15.24 58 13.72 58 11.08 58 8.68 59.2790062 7 61.7570808 7 63.2759006 7 64.1552174 7.72 64.7947205 8.84L62.9561491 10.28C62.5564596 9.56 62.316646 9.24 61.7570808 9.24 61.0376398 9.24 60.7178882 9.96 60.7178882 11.16 60.7178882 12.36 61.1175777 13.08 61.8370187 13.08 62.316646 13.08 62.7163354 12.76 63.1959628 12.04L64.9545963 13.4C64.0752795 14.68 63.1959628 15.24 61.7570808 15.24M70.5564596 15.04L70.5564596 10.56C70.5564596 9.52 70.236708 9.28 69.6771428 9.28 69.1175776 9.28 68.7178882 9.52 68.7178882 10.56L68.7178882 15.12 66 15.12 66 5.12 68.7178882 4 68.7178882 7.6C69.1975155 7.2 69.7570807 6.88 70.7163354 6.88 72.4749689 6.88 73.2743478 8.08 73.2743478 10.16L73.2743478 15.04 70.5564596 15.04zM79.7962733 14.88C76.6786957 14.88 75 12.56 75 9.44 75 6 76.9984472 4 79.8762112 4 82.5141615 4 83.4734162 5.12 84.1928572 7.12L81.5549069 8.16C81.1552174 7.2 80.8354659 6.56 79.8762112 6.56 78.6771429 6.56 78.1175777 7.76 78.1175777 9.44 78.1175777 11.04 78.597205 12.32 79.8762112 12.32 80.8354659 12.32 81.1552174 11.84 81.7947205 10.8L84.2727951 12.08C83.4734162 13.52 82.3542857 14.88 79.7962733 14.88M91.036087 10.12C90.7163354 9.72 90.316646 9.48 89.7570808 9.48 89.1175777 9.48 88.7178882 9.8 88.7178882 10.76L88.7178882 15.08 86 15.08 86 7.16 88.7178882 7.16 88.7178882 7.72C89.1975156 7.24 89.6771429 7 90.3965839 7 90.9561491 7 91.3558385 7.16 91.6755901 7.32L91.036087 10.12zM97.5564596 14.92L97.5564596 14.36C97.0768323 14.76 96.5172671 15.08 95.5580124 15.08 93.7993789 15.08 93 13.88 93 11.8L93 7 95.7178882 7 95.7178882 11.48C95.7178882 12.52 96.0376398 12.76 96.597205 12.76 97.1567702 12.76 97.4765217 12.52 97.4765217 11.48L97.4765217 7 100.19441 7 100.19441 14.92 97.5564596 14.92zM106.55646 15.08L106.55646 10.6C106.55646 9.56 106.236709 9.32 105.677143 9.32 105.117578 9.32 104.717889 9.56 104.717889 10.6L104.717889 15.16 102 15.16 102 7.16 104.717889 7.16 104.717889 7.72C105.197516 7.32 105.757081 7 106.716336 7 108.474969 7 109.274348 8.2 109.274348 10.28L109.274348 15.16 106.55646 15.16 106.55646 15.08zM114.757081 15.24C112.438882 15.24 111 13.72 111 11.08 111 8.68 112.279006 7 114.757081 7 116.275901 7 117.155217 7.72 117.794721 8.84L115.956149 10.28C115.55646 9.56 115.316646 9.24 114.757081 9.24 114.03764 9.24 113.717888 9.96 113.717888 11.16 113.717888 12.36 114.117578 13.08 114.837019 13.08 115.316646 13.08 115.716335 12.76 116.195963 12.04L117.954596 13.4C116.995342 14.68 116.116025 15.24 114.757081 15.24M124.55646 15.04L124.55646 10.56C124.55646 9.52 124.236708 9.28 123.677143 9.28 123.117578 9.28 122.717888 9.52 122.717888 10.56L122.717888 15.12 120 15.12 120 5.12 122.717888 4 122.717888 7.6C123.197516 7.2 123.757081 6.88 124.716336 6.88 126.474969 6.88 127.274348 8.08 127.274348 10.16L127.274348 15.04 124.55646 15.04z"/>
      <polygon points="0 0 0 6.08 6.075 6.08 6.075 18.16 12.151 18.16 12.151 6.08 18.226 6.08 18.226 0"/>
      <polygon points="25.075 12.08 25.075 6 19 6 19 18.08 37.146 18.08 37.146 12 25.075 12"/>
      <polygon points="25 6.08 37.071 6.08 37.071 0 25 0"/>
    </g>
  </g>
</svg>
