<svg xmlns="http://www.w3.org/2000/svg" width="148" height="24" viewBox="0 0 148 24">
  <path fill="#1D1D1B" d="M19.0736842,21.9789474 C21.7263158,21.7263158 24.3789474,20.8421053 24.3789474,18.0631579 L24.3789474,9.09473684 L23.1157895,7.83157895 L21.7263158,9.09473684 L21.7263158,15.7894737 L22.8631579,16.8 L20.3368421,19.0736842 L20.2105263,19.0736842 L17.6842105,16.9263158 L18.3157895,16.2947368 L18.3157895,2.65263158 C18.3157895,1.64210526 17.4315789,1.13684211 16.9263158,1.01052632 L16.9263158,0.757894737 C17.1789474,0.631578947 17.5578947,0.505263158 18.0631579,0.505263158 C18.9473684,0.505263158 19.7052632,1.01052632 19.9578947,1.64210526 L20.0842105,1.64210526 C20.5894737,0.884210526 21.4736842,0.505263158 22.2315789,0.505263158 C22.4842105,0.505263158 22.7368421,0.505263158 22.9894737,0.631578947 L22.9894737,0.884210526 C22.6105263,1.01052632 21.8526316,1.51578947 21.8526316,2.90526316 L21.8526316,8.58947368 L25.2631579,5.43157895 L25.5157895,5.43157895 C25.7684211,5.68421053 27.1578947,6.94736842 27.5368421,7.2 C27.6631579,7.32631579 27.7894737,7.32631579 28.0421053,7.32631579 C28.2947368,7.32631579 28.5473684,7.2 28.8,7.07368421 L28.8,7.45263158 C28.5473684,7.70526316 28.1684211,8.08421053 28.1684211,8.71578947 L28.1684211,16.4210526 C28.1684211,19.8315789 24.3789474,21.9789474 19.3263158,22.3578947 L19.3263158,21.9789474 L19.0736842,21.9789474 Z M17.8105263,0.884210526 C18.3157895,1.26315789 18.8210526,1.64210526 18.8210526,2.52631579 L18.8210526,16.5473684 L18.3157895,17.0526316 L20.4631579,18.8210526 L21.0947368,18.3157895 L19.4526316,16.9263158 L19.7052632,16.6736842 L19.7052632,2.65263158 C19.5789474,1.51578947 18.5684211,1.01052632 17.8105263,0.884210526 Z M23.7473684,21.0947368 C24.7578947,20.4631579 25.7684211,19.7052632 25.7684211,18.1894737 L25.7684211,8.58947368 L24.2526316,6.94736842 L23.4947368,7.57894737 L24.7578947,8.96842105 L24.7578947,18.0631579 C24.8842105,19.3263158 24.3789474,20.3368421 23.7473684,21.0947368 Z M30.0631579,8.58947368 C31.5789474,7.83157895 33.7263158,6.56842105 35.2421053,5.43157895 L35.4947368,5.43157895 C36.5052632,6.44210526 37.8947368,8.08421053 39.1578947,9.22105263 L39.1578947,9.47368421 L33.6,13.0105263 L33.6,15.2842105 C34.1052632,15.6631579 35.7473684,16.4210526 36.7578947,16.8 L39.0315789,14.6526316 L39.2842105,14.9052632 L34.8631579,19.2 L34.6105263,19.2 C33.0947368,18.5684211 31.2,17.6842105 29.9368421,17.0526316 C30.0631579,16.5473684 30.1894737,15.4105263 30.1894737,14.0210526 L30.1894737,8.58947368 L30.0631579,8.58947368 Z M35.2421053,18.3157895 C33.7263158,17.6842105 32.4631579,17.0526316 31.2,16.4210526 C31.3263158,16.0421053 31.3263158,15.4105263 31.3263158,14.0210526 L31.3263158,8.33684211 L30.4421053,8.84210526 L30.4421053,14.0210526 C30.4421053,15.4105263 30.4421053,16.4210526 30.3157895,16.8 C31.4526316,17.4315789 33.0947368,18.1894737 34.6105263,18.8210526 L35.2421053,18.3157895 Z M33.6,12.6315789 L36.1263158,10.9894737 C35.2421053,9.97894737 34.3578947,8.96842105 33.6,8.21052632 L33.6,12.6315789 Z M34.3578947,7.07368421 L33.7263158,7.57894737 C34.4842105,8.46315789 35.4947368,9.6 36.5052632,10.7368421 L37.2631579,10.2315789 C36.1263158,9.09473684 35.1157895,7.95789474 34.3578947,7.07368421 Z M138.315789,21.9789474 C140.968421,21.7263158 143.621053,20.8421053 143.621053,18.0631579 L143.621053,9.09473684 L142.357895,7.83157895 L140.968421,9.09473684 L140.968421,15.7894737 L142.105263,16.8 L139.578947,19.0736842 L139.326316,19.0736842 L136.8,16.9263158 L137.431579,16.2947368 L137.431579,2.65263158 C137.431579,1.64210526 136.547368,1.13684211 136.042105,1.01052632 L136.042105,0.757894737 C136.294737,0.631578947 136.673684,0.505263158 137.178947,0.505263158 C138.063158,0.505263158 138.821053,1.01052632 139.073684,1.64210526 L139.2,1.64210526 C139.705263,0.884210526 140.589474,0.505263158 141.347368,0.505263158 C141.6,0.505263158 141.852632,0.505263158 142.105263,0.631578947 L142.105263,0.884210526 C141.726316,1.01052632 140.968421,1.51578947 140.968421,2.90526316 L140.968421,8.58947368 L144.252632,5.43157895 L144.505263,5.43157895 C144.757895,5.68421053 146.147368,6.94736842 146.526316,7.2 C146.652632,7.32631579 146.778947,7.32631579 147.031579,7.32631579 C147.284211,7.32631579 147.536842,7.2 147.789474,7.07368421 L147.789474,7.57894737 C147.536842,7.83157895 147.157895,8.21052632 147.157895,8.84210526 L147.157895,16.4210526 C147.157895,19.8315789 143.368421,21.9789474 138.315789,22.3578947 L138.315789,21.9789474 Z M137.052632,0.884210526 C137.431579,1.13684211 138.063158,1.64210526 138.063158,2.52631579 L138.063158,16.4210526 L137.557895,16.9263158 L139.705263,18.6947368 L140.336842,18.1894737 L138.694737,16.8 L138.947368,16.5473684 L138.947368,2.65263158 C138.821053,1.51578947 137.810526,1.01052632 137.052632,0.884210526 Z M142.863158,20.9684211 C143.873684,20.3368421 144.884211,19.5789474 144.884211,18.0631579 L144.884211,8.58947368 L143.368421,6.94736842 L142.736842,7.57894737 L144,8.96842105 L144,18.0631579 C144.126316,19.3263158 143.621053,20.3368421 142.863158,20.9684211 Z M62.7789474,8.58947368 C64.2947368,7.83157895 66.4421053,6.56842105 67.9578947,5.43157895 L68.2105263,5.43157895 C69.2210526,6.44210526 70.6105263,8.08421053 71.7473684,9.09473684 L71.7473684,9.34736842 L66.3157895,12.8842105 L66.3157895,15.1578947 C66.9473684,15.5368421 68.4631579,16.2947368 69.4736842,16.6736842 L71.7473684,14.5263158 L72,14.7789474 L67.5789474,19.0736842 L67.3263158,19.0736842 C65.8105263,18.4421053 63.9157895,17.5578947 62.6526316,16.9263158 C62.7789474,16.4210526 62.9052632,15.2842105 62.9052632,13.8947368 L62.9052632,8.58947368 L62.7789474,8.58947368 Z M67.8315789,18.3157895 C66.3157895,17.6842105 65.0526316,17.0526316 63.7894737,16.4210526 C63.9157895,16.0421053 63.9157895,15.4105263 63.9157895,14.0210526 L63.9157895,8.33684211 L63.1578947,8.71578947 L63.1578947,13.8947368 C63.1578947,15.2842105 63.1578947,16.2947368 63.0315789,16.6736842 C64.1684211,17.3052632 65.8105263,18.0631579 67.3263158,18.6947368 L67.8315789,18.3157895 Z M66.3157895,12.5052632 L68.8421053,10.8631579 C67.9578947,9.85263158 67.0736842,8.84210526 66.3157895,8.08421053 L66.3157895,12.5052632 Z M67.0736842,7.07368421 L66.3157895,7.57894737 C67.0736842,8.46315789 68.0842105,9.6 69.0947368,10.7368421 L69.8526316,10.2315789 C68.8421053,9.09473684 67.8315789,7.95789474 67.0736842,7.07368421 Z M76.8,2.27368421 L76.8,15.5368421 C76.8,16.0421053 77.3052632,16.6736842 77.8105263,16.8 L78.5684211,16.0421053 L78.8210526,16.2947368 L76.0421053,19.2 L75.7894737,19.2 C74.7789474,18.9473684 73.2631579,17.9368421 73.2631579,16.2947368 L73.2631579,3.91578947 L72.5052632,3.15789474 L71.6210526,4.04210526 L71.3684211,3.78947368 L74.5263158,0.505263158 L74.7789474,0.505263158 L76.8,2.27368421 Z M76.4210526,18.1894737 C75.4105263,17.9368421 74.4,17.3052632 74.4,15.9157895 L74.4,3.41052632 L73.2631579,2.27368421 L72.6315789,2.90526316 L73.6421053,3.78947368 L73.6421053,16.2947368 C73.6421053,17.6842105 74.7789474,18.5684211 75.7894737,18.8210526 L76.4210526,18.1894737 Z M80.0842105,8.58947368 C81.6,7.83157895 83.7473684,6.56842105 85.2631579,5.43157895 L85.5157895,5.43157895 C86.5263158,6.44210526 87.9157895,8.08421053 89.0526316,9.09473684 L89.0526316,9.34736842 L83.6210526,12.8842105 L83.6210526,15.1578947 C84.1263158,15.5368421 85.7684211,16.2947368 86.7789474,16.6736842 L89.0526316,14.5263158 L89.3052632,14.7789474 L84.8842105,19.0736842 L84.6315789,19.0736842 C83.1157895,18.4421053 81.2210526,17.5578947 79.9578947,16.9263158 C80.0842105,16.4210526 80.2105263,15.2842105 80.2105263,13.8947368 L80.2105263,8.58947368 L80.0842105,8.58947368 Z M85.1368421,18.3157895 C83.6210526,17.6842105 82.3578947,17.0526316 81.0947368,16.4210526 C81.2210526,16.0421053 81.2210526,15.4105263 81.2210526,14.0210526 L81.2210526,8.33684211 L80.4631579,8.71578947 L80.4631579,13.8947368 C80.4631579,15.2842105 80.4631579,16.2947368 80.3368421,16.6736842 C81.4736842,17.3052632 83.1157895,18.0631579 84.6315789,18.6947368 L85.1368421,18.3157895 Z M83.6210526,12.5052632 L86.1473684,10.8631579 C85.2631579,9.85263158 84.3789474,8.84210526 83.6210526,8.08421053 L83.6210526,12.5052632 Z M84.3789474,7.07368421 L83.7473684,7.57894737 C84.5052632,8.46315789 85.5157895,9.6 86.5263158,10.7368421 L87.1578947,10.2315789 C86.1473684,9.09473684 85.1368421,7.95789474 84.3789474,7.07368421 Z M106.863158,9.09473684 L106.863158,15.5368421 C106.863158,16.0421053 107.368421,16.6736842 107.873684,16.6736842 L108.631579,15.9157895 L108.884211,16.1684211 L106.105263,19.0736842 L105.978947,19.0736842 C104.968421,18.8210526 103.452632,17.9368421 103.452632,16.1684211 L103.452632,8.84210526 L102.694737,8.08421053 L101.810526,8.84210526 L101.557895,8.58947368 L104.715789,5.43157895 L104.968421,5.43157895 L106.989474,7.45263158 L106.989474,8.58947368 L109.515789,5.55789474 L109.768421,5.55789474 C110.273684,6.06315789 111.031579,6.82105263 111.789474,7.32631579 L109.642105,9.85263158 C109.010526,9.34736842 108.252632,8.58947368 107.747368,8.21052632 L106.863158,9.09473684 Z M106.610526,18.1894737 C105.6,17.9368421 104.589474,17.3052632 104.589474,15.9157895 L104.589474,8.33684211 L103.578947,7.2 L102.947368,7.83157895 L103.831579,8.71578947 L103.831579,16.1684211 C103.831579,17.5578947 104.968421,18.4421053 105.978947,18.6947368 L106.610526,18.1894737 Z M108,7.95789474 C108.378947,8.33684211 109.010526,8.96842105 109.515789,9.34736842 L110.021053,8.71578947 C109.515789,8.33684211 108.757895,7.57894737 108.378947,7.32631579 L108,7.95789474 Z M115.073684,19.2 L112.042105,17.1789474 L112.042105,13.1368421 C112.8,12.6315789 114.442105,11.4947368 115.2,10.9894737 C113.936842,10.3578947 112.926316,9.6 112.294737,8.71578947 L112.294737,8.46315789 C114.063158,7.45263158 115.452632,6.44210526 116.463158,5.43157895 L116.715789,5.43157895 C116.715789,5.43157895 120.505263,7.2 120.631579,7.32631579 C120.884211,7.45263158 121.010526,7.45263158 121.136842,7.45263158 C121.389474,7.45263158 121.642105,7.32631579 121.894737,7.2 L121.894737,7.57894737 C121.642105,7.83157895 121.263158,8.21052632 121.263158,8.71578947 L121.263158,15.4105263 C121.263158,16.1684211 121.894737,16.5473684 122.4,16.6736842 L123.157895,15.9157895 L123.410526,16.1684211 L120.631579,19.0736842 L120.505263,19.0736842 C119.368421,18.8210526 118.105263,17.6842105 117.978947,16.4210526 L115.326316,19.0736842 L115.073684,19.0736842 L115.073684,19.2 Z M115.705263,18.1894737 L113.178947,16.5473684 L113.178947,12.7578947 L112.421053,13.2631579 L112.421053,16.9263158 L115.2,18.6947368 L115.705263,18.1894737 Z M117.852632,11.6210526 L117.852632,9.6 L114.189474,7.70526316 C113.936842,7.95789474 112.926316,8.46315789 112.673684,8.71578947 C113.557895,9.72631579 115.831579,11.1157895 117.852632,11.6210526 Z M121.136842,18.1894737 C120.126316,17.8105263 119.115789,17.1789474 119.115789,15.7894737 L119.115789,8.84210526 L115.326316,6.94736842 C115.2,7.07368421 114.821053,7.32631579 114.694737,7.45263158 L118.357895,9.34736842 L118.357895,16.1684211 C118.357895,17.4315789 119.621053,18.4421053 120.505263,18.8210526 L121.136842,18.1894737 Z M117.852632,16.0421053 L117.852632,12 C117.094737,11.7473684 116.210526,11.4947368 115.452632,11.1157895 L115.452632,16.1684211 L116.842105,17.0526316 L117.852632,16.0421053 Z M90.4421053,17.0526316 L90.4421053,8.58947368 L94.9894737,5.43157895 L95.2421053,5.43157895 C96.1263158,5.81052632 99.0315789,7.07368421 99.2842105,7.2 C99.4105263,7.2 99.5368421,7.32631579 99.7894737,7.32631579 C100.042105,7.32631579 100.294737,7.2 100.673684,7.07368421 L100.673684,7.57894737 C100.421053,7.83157895 100.042105,8.33684211 100.042105,8.71578947 L100.042105,15.9157895 C100.042105,17.5578947 100.421053,18.5684211 101.052632,19.2 L101.052632,19.4526316 C100.042105,20.4631579 97.7684211,22.8631579 96.7578947,24 L96.6315789,24 C95.6210526,23.4947368 93.9789474,22.9894737 92.7157895,22.9894737 C91.7052632,22.9894737 90.5684211,23.2421053 89.8105263,23.8736842 L89.5578947,23.7473684 C90.3157895,21.9789474 91.9578947,20.0842105 94.1052632,20.0842105 C95.3684211,20.0842105 97.1368421,20.5894737 98.6526316,21.4736842 C97.6421053,20.3368421 96.7578947,18.1894737 96.7578947,16.5473684 L94.1052632,19.0736842 L93.8526316,19.0736842 L90.4421053,17.0526316 Z M92.5894737,21.9789474 C91.5789474,21.9789474 90.6947368,22.4842105 90.1894737,23.1157895 L90.1894737,23.2421053 C90.8210526,22.8631579 91.4526316,22.7368421 92.5894737,22.7368421 C93.8526316,22.7368421 95.6210526,23.1157895 96.5052632,23.6210526 L97.0105263,22.9894737 C95.8736842,22.4842105 94.2315789,21.9789474 92.5894737,21.9789474 Z M93.6,18.8210526 L94.2315789,18.3157895 L91.5789474,16.4210526 L91.5789474,8.33684211 L90.8210526,8.84210526 L90.8210526,16.9263158 L93.6,18.8210526 Z M97.6421053,8.33684211 L93.8526316,6.82105263 L93.8526316,7.57894737 L96.7578947,8.84210526 L96.7578947,16.4210526 C96.7578947,18.0631579 97.5157895,19.8315789 98.6526316,21.2210526 L99.2842105,20.5894737 C98.2736842,19.3263158 97.6421053,17.9368421 97.6421053,16.2947368 L97.6421053,8.33684211 Z M96.5052632,16.0421053 L96.5052632,9.09473684 L93.9789474,7.95789474 L93.9789474,15.9157895 L95.6210526,16.9263158 L96.5052632,16.0421053 Z M128.842105,8.58947368 L132.126316,5.43157895 L132.378947,5.43157895 C132.631579,5.68421053 134.147368,7.07368421 134.4,7.2 C134.526316,7.32631579 134.652632,7.32631579 134.778947,7.32631579 C135.031579,7.32631579 135.284211,7.2 135.536842,7.07368421 L135.536842,7.57894737 C135.284211,7.83157895 134.905263,8.33684211 134.905263,8.84210526 L134.905263,16.9263158 C133.515789,17.3052632 132.378947,18.0631579 131.115789,19.4526316 L130.989474,19.4526316 L128.842105,18.9473684 L128.842105,20.7157895 L129.978947,21.7263158 L127.326316,24 L127.2,24 L124.673684,21.8526316 L125.305263,21.0947368 L125.305263,18.0631579 C125.052632,18.0631579 124.547368,17.9368421 124.294737,17.8105263 L124.294737,17.4315789 C124.547368,17.3052632 125.431579,16.5473684 125.431579,15.9157895 L125.431579,8.96842105 L124.673684,8.21052632 L123.789474,9.09473684 L123.536842,8.84210526 L126.694737,5.68421053 L126.947368,5.68421053 L128.968421,7.70526316 L128.968421,8.58947368 L128.842105,8.58947368 Z M125.684211,21.3473684 L125.178947,21.8526316 L127.2,23.6210526 L127.831579,23.1157895 L126.189474,21.7263158 L126.442105,21.4736842 L126.442105,8.33684211 L125.305263,7.2 L124.8,7.70526316 L125.684211,8.58947368 L125.684211,21.3473684 Z M131.368421,16.4210526 L131.368421,9.09473684 L130.105263,7.83157895 L128.715789,9.09473684 L128.715789,15.7894737 C129.347368,16.0421053 131.115789,16.2947368 131.368421,16.4210526 Z M130.989474,19.0736842 C131.115789,18.8210526 131.368421,18.5684211 131.494737,18.4421053 L128.715789,17.9368421 L128.715789,18.6947368 L130.989474,19.0736842 Z M130.357895,7.70526316 L131.747368,9.09473684 L131.747368,16.4210526 L132.505263,16.0421053 L132.505263,8.58947368 L130.989474,7.07368421 L130.357895,7.70526316 Z M1.01052632,11.7473684 C1.01052632,8.46315789 3.41052632,6.31578947 5.68421053,5.30526316 L5.81052632,5.55789474 C5.05263158,6.44210526 4.54736842,7.32631579 4.54736842,9.34736842 C4.54736842,11.6210526 5.17894737,13.1368421 6.06315789,14.1473684 C6.31578947,13.7684211 6.56842105,13.2631579 6.56842105,12.7578947 L6.56842105,9.47368421 L10.6105263,6.56842105 L10.7368421,6.82105263 C10.4842105,7.2 10.2315789,7.70526316 10.2315789,8.46315789 L10.2315789,10.6105263 C10.2315789,12.1263158 7.83157895,13.7684211 6.31578947,14.2736842 C7.32631579,15.2842105 8.71578947,15.6631579 10.2315789,15.6631579 C10.7368421,15.6631579 11.2421053,15.6631579 11.7473684,15.5368421 L11.7473684,6.31578947 C10.3578947,6.18947368 9.09473684,5.93684211 7.95789474,5.55789474 C6.69473684,5.17894737 5.43157895,4.8 4.42105263,4.8 C2.77894737,4.8 0.757894737,5.30526316 0.757894737,7.70526316 L0.757894737,8.46315789 L0.378947368,8.58947368 C0.126315789,7.83157895 0,7.07368421 0,6.44210526 C0,3.53684211 2.14736842,1.01052632 5.55789474,1.01052632 C6.94736842,1.01052632 8.33684211,1.38947368 9.6,1.76842105 C10.8631579,2.14736842 12.1263158,2.52631579 13.3894737,2.52631579 C14.0210526,2.52631579 14.4,2.14736842 14.4,1.51578947 C14.4,0.884210526 14.1473684,0.631578947 13.6421053,0.505263158 L13.6421053,0.252631579 C15.1578947,0.505263158 16.6736842,1.38947368 16.6736842,3.28421053 C16.8,5.17894737 15.1578947,6.31578947 12.3789474,6.31578947 L12.1263158,6.31578947 L12.1263158,15.6631579 C13.8947368,15.2842105 15.1578947,14.5263158 16.0421053,13.0105263 L16.2947368,13.1368421 C15.2842105,16.2947368 12.8842105,19.3263158 8.71578947,19.3263158 C4.54736842,19.3263158 1.01052632,16.8 1.01052632,11.7473684 Z M12.3789474,5.17894737 C9.34736842,5.17894737 6.56842105,3.66315789 4.42105263,3.66315789 C2.90526316,3.66315789 1.26315789,4.29473684 0.757894737,5.93684211 L0.884210526,5.93684211 C1.51578947,4.8 3.03157895,4.42105263 4.42105263,4.42105263 C6.69473684,4.42105263 9.34736842,5.93684211 12.3789474,5.93684211 C14.7789474,5.93684211 16.2947368,5.05263158 16.4210526,3.15789474 L16.2947368,3.15789474 C16.0421053,4.67368421 14.7789474,5.17894737 12.3789474,5.17894737 Z M3.66315789,7.07368421 C2.52631579,8.21052632 1.51578947,9.72631579 1.51578947,11.7473684 C1.51578947,16.5473684 4.67368421,18.9473684 8.84210526,18.9473684 C11.3684211,18.9473684 13.1368421,17.5578947 14.1473684,16.5473684 L14.0210526,16.4210526 C12.8842105,17.4315789 11.2421053,18.1894737 8.71578947,18.1894737 C5.43157895,18.1894737 2.27368421,16.1684211 2.27368421,11.7473684 C2.27368421,9.97894737 2.90526316,8.21052632 3.66315789,7.07368421 Z M7.70526316,12.5052632 L7.70526316,8.96842105 L6.94736842,9.6 L6.94736842,12.8842105 C6.94736842,13.2631579 6.82105263,13.5157895 6.82105263,13.7684211 L6.94736842,13.7684211 C7.32631579,13.3894737 7.70526316,13.0105263 7.70526316,12.5052632 Z M45.9789474,11.7473684 C45.9789474,8.46315789 48.3789474,6.31578947 50.6526316,5.30526316 L50.7789474,5.55789474 C49.8947368,6.56842105 49.3894737,7.45263158 49.3894737,9.34736842 C49.3894737,11.6210526 50.0210526,13.1368421 50.9052632,14.1473684 C51.1578947,13.7684211 51.4105263,13.2631579 51.4105263,12.7578947 L51.4105263,9.47368421 L55.5789474,6.44210526 L55.7052632,6.69473684 C55.3263158,7.2 55.2,7.70526316 55.2,8.46315789 L55.2,10.6105263 C55.2,12.1263158 52.8,13.7684211 51.2842105,14.2736842 C52.2947368,15.2842105 53.6842105,15.6631579 55.2,15.6631579 C55.7052632,15.6631579 56.2105263,15.6631579 56.7157895,15.5368421 L56.7157895,6.31578947 C55.3263158,6.18947368 54.0631579,5.93684211 52.9263158,5.55789474 C51.6631579,5.17894737 50.4,4.8 49.3894737,4.8 C47.7473684,4.8 45.7263158,5.30526316 45.7263158,7.70526316 L45.7263158,8.46315789 L45.4736842,8.58947368 C45.2210526,7.83157895 45.0947368,7.07368421 45.0947368,6.44210526 C45.0947368,3.53684211 47.2421053,1.01052632 50.6526316,1.01052632 C52.0421053,1.01052632 53.4315789,1.38947368 54.6947368,1.76842105 C55.9578947,2.14736842 57.2210526,2.52631579 58.4842105,2.52631579 C59.1157895,2.52631579 59.4947368,2.14736842 59.4947368,1.51578947 C59.4947368,0.884210526 59.2421053,0.631578947 58.7368421,0.505263158 L58.7368421,0.252631579 C60.2526316,0.505263158 61.7684211,1.38947368 61.7684211,3.28421053 C61.7684211,5.55789474 60.1263158,6.56842105 57.3473684,6.56842105 L57.0947368,6.56842105 L57.0947368,15.9157895 C58.8631579,15.5368421 60.1263158,14.7789474 61.0105263,13.2631579 L61.2631579,13.3894737 C60.2526316,16.5473684 57.8526316,19.5789474 53.6842105,19.5789474 C49.5157895,19.3263158 45.9789474,16.8 45.9789474,11.7473684 Z M57.3473684,5.17894737 C54.3157895,5.17894737 51.5368421,3.66315789 49.3894737,3.66315789 C48,3.66315789 46.3578947,4.29473684 45.7263158,5.93684211 L45.8526316,5.93684211 C46.4842105,4.8 48,4.42105263 49.3894737,4.42105263 C51.6631579,4.42105263 54.3157895,5.93684211 57.3473684,5.93684211 C59.7473684,5.93684211 61.2631579,5.05263158 61.3894737,3.15789474 L61.2631579,3.15789474 C60.8842105,4.67368421 59.7473684,5.17894737 57.3473684,5.17894737 Z M48.6315789,7.07368421 C47.4947368,8.21052632 46.4842105,9.72631579 46.4842105,11.7473684 C46.4842105,16.5473684 49.6421053,18.9473684 53.8105263,18.9473684 C56.3368421,18.9473684 58.1052632,17.5578947 59.1157895,16.5473684 L58.9894737,16.4210526 C57.8526316,17.4315789 56.2105263,18.1894737 53.6842105,18.1894737 C50.4,18.1894737 47.2421053,16.1684211 47.2421053,11.7473684 C47.2421053,9.97894737 47.8736842,8.21052632 48.6315789,7.07368421 Z M52.6736842,12.5052632 L52.6736842,8.96842105 L51.9157895,9.47368421 L51.9157895,12.7578947 C51.9157895,13.1368421 51.7894737,13.3894737 51.7894737,13.6421053 L51.9157895,13.6421053 C52.2947368,13.3894737 52.6736842,13.0105263 52.6736842,12.5052632 Z" opacity=".5"/>
</svg>
