<svg xmlns="http://www.w3.org/2000/svg" width="105" height="19" viewBox="0 0 105 19">
  <g opacity=".5">
    <g opacity=".6">
      <path d="M86.4601807 5.32965517L85.8258434 7.29655172 84.1765663 7.29655172 84.1765663 4.82206897C85.0646386 4.56827586 86.3333133 4.12413793 87.9825904 4.12413793 90.5199398 4.12413793 91.8520482 5.13931034 91.8520482 7.23310345L91.8520482 12.3724138 92.9938554 12.8165517 92.9938554 13.6413793C92.6766867 13.8317241 91.7886145 14.022069 91.0274096 14.022069 90.0124699 14.022069 89.2512651 13.7048276 89.1243976 12.6896552L89.0609639 12.6896552C88.6169277 13.5144828 87.5385542 14.022069 86.3333133 14.022069 84.6840361 14.022069 83.6056627 12.9434483 83.6056627 11.3572414 83.6056627 9.39034483 84.8743373 9.00965517 86.9676506 8.56551724L88.8072289 8.24827586 88.8072289 7.1062069C88.8072289 5.90068966 88.4266265 5.2662069 87.2213855 5.2662069 86.9676506 5.2662069 86.6504819 5.2662069 86.4601807 5.32965517M88.6803614 11.9282759L88.6803614 9.26344828 87.9191566 9.32689655C87.2213855 9.39034483 86.5870482 9.89793103 86.5870482 10.7862069 86.5870482 11.8013793 87.1579518 12.3089655 87.7922892 12.3089655 88.1728916 12.3089655 88.4900602 12.1186207 88.6803614 11.9282759M52.3328313 5.32965517L51.6350602 7.29655172 49.9857831 7.29655172 49.9857831 4.82206897C50.8738554 4.56827586 52.1425301 4.12413793 53.7918072 4.12413793 56.3291566 4.12413793 57.6612651 5.13931034 57.6612651 7.23310345L57.6612651 12.3724138 58.8030723 12.8165517 58.8030723 13.6413793C58.4859036 13.8317241 57.5978313 14.022069 56.8366265 14.022069 55.8216867 14.022069 55.0604819 13.7048276 54.9336145 12.6896552L54.8701807 12.6896552C54.4261446 13.5144828 53.3477711 14.022069 52.1425301 14.022069 50.493253 14.022069 49.4148795 12.9434483 49.4148795 11.3572414 49.4148795 9.39034483 50.6835542 9.00965517 52.7768675 8.56551724L54.553012 8.24827586 54.553012 7.1062069C54.553012 5.90068966 54.1724096 5.2662069 52.9671687 5.2662069 52.8403012 5.2662069 52.5231325 5.2662069 52.3328313 5.32965517M54.553012 11.9282759L54.553012 9.26344828 53.7918072 9.32689655C53.0940361 9.39034483 52.4596988 9.89793103 52.4596988 10.7862069 52.4596988 11.8013793 53.0306024 12.3089655 53.6649398 12.3089655 54.0455422 12.3089655 54.4261446 12.1186207 54.553012 11.9282759M1.52240964 11.1034483L1.52240964 5.83724138.0634337349 5.83724138.0634337349 4.44137931 1.52240964 4.25103448 1.52240964 2.47448276 4.63066265 2.03034483 4.63066265 4.25103448 6.7239759 4.25103448 6.7239759 5.90068966 4.63066265 5.90068966 4.63066265 10.8496552C4.63066265 11.8013793 4.88439759 12.2455172 5.83590361 12.2455172 6.15307229 12.2455172 6.59710843 12.182069 6.85084337 12.182069L6.85084337 13.3875862C6.34337349 13.7048276 5.265 13.9586207 4.31349398 13.9586207 2.41048193 13.9586207 1.52240964 13.1337931 1.52240964 11.1034483M21.8212048 9.26344828L27.4668072 9.26344828C27.4668072 5.2662069 26.0712651 3.99724138 23.2801807 3.99724138 20.4890964 3.99724138 18.5860843 5.83724138 18.5860843 8.9462069 18.5860843 12.182069 20.2353614 13.9586207 23.5339157 13.9586207 25.3100602 13.9586207 26.7056024 13.1972414 27.1496386 12.5627586L27.1496386 11.6110345C26.5153012 11.8013793 25.8175301 11.9282759 24.6122892 11.9282759 22.8361446 11.9917241 21.9480723 11.1034483 21.8212048 9.26344828M23.216747 5.20275862C23.9779518 5.20275862 24.421988 5.52 24.421988 7.99448276L21.8212048 8.12137931C21.7577711 5.90068966 22.2018072 5.20275862 23.216747 5.20275862M34.5713855 11.737931L31.3996988 11.737931C30.8922289 11.737931 30.638494 11.4206897 30.638494 11.1034483 30.638494 10.8496552 30.7019277 10.4689655 30.9556627 10.2786207 31.4631325 10.4055172 32.0340361 10.5324138 32.6683735 10.5324138 35.0788554 10.5324138 36.7915663 9.4537931 36.7915663 7.42344828 36.7915663 6.47172414 36.4743976 5.96413793 35.8400602 5.45655172L35.903494 5.39310345 37.5527711 5.90068966 37.5527711 4.12413793 37.3624699 4.12413793 35.0154217 4.56827586 34.8885542 4.56827586C34.3176506 4.37793103 33.493012 4.18758621 32.7318072 4.18758621 30.3213253 4.18758621 28.6086145 5.32965517 28.6086145 7.42344828 28.6086145 8.69241379 29.1160843 9.58068966 30.1944578 10.1517241L30.1944578 10.2786207C29.3063855 10.9131034 28.6086145 11.8013793 28.6086145 12.5627586 28.6086145 13.3241379 29.1160843 14.1489655 30.1310241 14.4027586L30.1310241 14.5296552C29.2429518 14.8468966 28.0377108 15.1641379 28.0377108 16.1793103 28.0377108 17.4482759 29.6235542 18.3365517 32.6049398 18.3365517 36.2840964 18.3365517 37.9333735 16.8137931 37.9333735 14.5931034 37.8699398 12.4993103 36.6646988 11.737931 34.5713855 11.737931M32.6683735 5.20275862C33.3661446 5.20275862 33.8101807 5.71034483 33.8101807 7.29655172 33.8101807 8.88275862 33.3661446 9.26344828 32.6683735 9.26344828 31.9706024 9.26344828 31.5265663 8.88275862 31.5265663 7.29655172 31.5265663 5.71034483 31.9706024 5.20275862 32.6683735 5.20275862M32.6049398 16.8772414C30.8922289 16.8772414 30.1310241 16.4331034 30.1310241 15.7986207 30.1310241 15.3544828 30.2578916 14.9103448 30.5750602 14.6565517L34.2542169 14.6565517C35.0154217 14.6565517 35.649759 14.7834483 35.649759 15.4813793 35.649759 16.4331034 34.698253 16.8772414 32.6049398 16.8772414"/>
      <polyline points="77.77 4.632 77.77 5.583 78.912 6.091 78.912 12.309 77.77 12.753 77.77 13.768 83.162 13.768 83.162 12.753 82.02 12.309 82.02 3.997 81.83 3.997 77.77 4.632"/>
      <path d="M59.2471084 4.63172414L59.2471084 5.58344828 60.3889157 6.09103448 60.3889157 12.3089655 59.2471084 12.7531034 59.2471084 13.7682759 65.0195783 13.7682759 65.0195783 12.7531034 63.4971687 12.3089655 63.4971687 7.16965517C64.0046386 6.91586207 64.7658434 6.85241379 65.5904819 6.85241379 65.8442169 6.85241379 66.2248193 6.91586207 66.4151205 6.91586207L66.4151205 4.12413793C66.288253 4.06068966 66.0979518 4.06068966 65.9710843 4.06068966 64.9561446 4.06068966 64.0680723 4.75862069 63.5606024 6.02758621L63.4337349 6.02758621 63.4337349 3.99724138 63.18 3.99724138 59.2471084 4.63172414M80.4974096.126896552C81.4489157.126896552 82.1466867.888275862 82.1466867 1.77655172 82.1466867 2.72827586 81.3854819 3.4262069 80.4974096 3.4262069 79.5459036 3.4262069 78.8481325 2.66482759 78.8481325 1.77655172 78.8481325.888275862 79.6093373.126896552 80.4974096.126896552M73.0122289 12.1186207L73.0122289 5.64689655C72.758494 5.45655172 72.504759 5.32965517 71.9338554 5.32965517 70.9189157 5.32965517 70.2211446 6.21793103 70.2211446 8.88275862 70.2211446 11.2303448 70.7920482 12.2455172 72.0607229 12.2455172 72.504759 12.2455172 72.8219277 12.182069 73.0122289 12.1186207M73.0122289 2.22068966L71.7435542 1.71310345 71.7435542.76137931 75.9301807.126896552 76.1839157.126896552 76.1839157 11.9917241 77.3257229 12.5627586 77.3257229 13.5144828 73.4562651 13.9586207 73.2025301 13.9586207 73.2025301 12.9434483 73.0756627 12.9434483C72.6950602 13.4510345 71.8704217 13.9586207 70.6651807 13.9586207 68.9524699 13.9586207 66.8591566 12.88 66.8591566 9.2 66.8591566 5.39310345 68.9524699 3.99724138 71.4898193 3.99724138 71.9972892 3.99724138 72.6316265 4.12413793 73.0122289 4.37793103L73.0122289 2.22068966M39.1386145 6.09103448L37.9968072 5.58344828 37.9968072 4.63172414 42.0565663 3.99724138 42.3103012 3.99724138 42.3103012 10.6593103C42.3103012 11.737931 42.8177711 11.9282759 43.6424096 11.9282759 44.2133133 11.9282759 44.4670482 11.8013793 44.7842169 11.6744828L44.7842169 6.02758621 43.6424096 5.52 43.6424096 4.56827586 47.7021687 3.9337931 47.9559036 3.9337931 47.9559036 12.0551724 49.0977108 12.6262069 49.0977108 13.4510345 45.1648193 13.8951724 44.9110843 13.8951724 44.9110843 12.6262069 44.7842169 12.6262069C44.1498795 13.3875862 43.1983735 13.9586207 41.9296988 13.9586207 40.0266867 13.9586207 39.2020482 12.6262069 39.2020482 10.9765517L39.2020482 6.09103448M7.42174699 12.7531034L8.56355422 12.3089655 8.56355422 2.22068966 7.42174699 1.71310345 7.42174699.76137931 11.4180723.126896552 11.6718072.126896552 11.6718072 5.2662069 11.7986747 5.2662069C12.6233133 4.50482759 13.7651205 3.99724138 15.0972289 3.99724138 16.6830723 3.99724138 17.5077108 4.82206897 17.5077108 6.53517241L17.5077108 12.3089655 18.6495181 12.7531034 18.6495181 13.7682759 13.3845181 13.7682759 13.3845181 12.7531034 14.3994578 12.3089655 14.3994578 7.36C14.3994578 6.40827586 13.9554217 6.02758621 13.1307831 6.02758621 12.686747 6.02758621 12.2427108 6.09103448 11.8621084 6.28137931L11.8621084 12.3089655 12.8770482 12.7531034 12.8770482 13.7682759 7.61204819 13.7682759 7.61204819 12.7531034M93.5013253 12.7531034L94.6431325 12.3089655 94.6431325 6.09103448 93.5013253 5.58344828 93.5013253 4.63172414 97.4976506 3.99724138 97.7513855 3.99724138 97.7513855 5.2662069 97.878253 5.2662069C98.7028916 4.50482759 99.8446988 3.99724138 101.176807 3.99724138 102.762651 3.99724138 103.587289 4.82206897 103.587289 6.53517241L103.587289 12.3089655 104.729096 12.7531034 104.729096 13.7682759 99.4640964 13.7682759 99.4640964 12.7531034 100.479036 12.3089655 100.479036 7.36C100.479036 6.40827586 100.035 6.02758621 99.2103614 6.02758621 98.7663253 6.02758621 98.3222892 6.09103448 97.9416867 6.28137931L97.9416867 12.3089655 98.9566265 12.7531034 98.9566265 13.7682759 93.6916265 13.7682759 93.6916265 12.7531034"/>
    </g>
  </g>
</svg>
