<svg xmlns="http://www.w3.org/2000/svg" width="120" height="24" viewBox="0 0 120 24">
  <g opacity=".5">
    <path d="M41.28,18.24 L41.28,21.12 L29.76,21.12 L29.76,18.24 L33.8976,18.24 L33.8976,6.72 L29.76,6.72 L29.76,3.84 L41.28,3.84 L41.28,6.72 L37.1424,6.72 L37.1424,18.24 L41.28,18.24 Z M22.2912,3.7152 L19.1328,3.7152 L16.86336,16.83264 L16.83072,16.83264 L14.20032,4.66944 C14.03712,3.84672 13.77312,3.64896 12.984,3.64896 L11.2416,3.64896 C10.48608,3.64896 10.18944,3.84768 10.02528,4.66944 L7.39488,16.83264 L7.3296,16.83264 L5.09472,3.7152 L1.71072,3.7152 L4.96512,19.46304 C5.0976,20.15424 5.36064,20.31744 6.11712,20.31744 L8.352,20.31744 C9.10656,20.31744 9.3696,20.15424 9.50112,19.4304 L11.96832,8.02176 L12.03264,8.02176 L14.49984,19.4304 C14.66304,20.15328 14.89344,20.31744 15.64896,20.31744 L17.85312,20.31744 C18.64224,20.31744 18.87264,20.15424 19.00512,19.46304 L22.28928,3.7152 L22.2912,3.7152 Z M24,24 L0,24 L0,0 L24,0 L24,24 Z M63.58368,16.04352 C63.5952,17.4624 63.69408,18.8784 63.87936,20.2848 L67.16832,20.2848 C67.06944,19.3968 66.97056,17.91744 66.90528,15.81408 C66.83808,13.70976 66.05088,12.98592 64.34208,12.6576 L64.34208,12.5904 C66.24768,12.29568 67.06848,11.37504 67.06848,8.44896 C67.06848,6.01728 66.67488,5.12928 66.01728,4.47264 C65.35968,3.81504 64.66944,3.7488 63.38688,3.7488 L53.29344,3.7488 L53.29344,20.2848 L56.71104,20.2848 L56.71104,13.84128 L61.44672,13.84128 C62.43264,13.84128 62.8272,13.90656 63.09024,14.1696 C63.35232,14.43264 63.55104,14.72832 63.58272,16.04352 L63.58368,16.04352 Z M56.712,11.1456 L56.712,6.5424 L62.136,6.5424 C62.8944,6.5424 63.12288,6.6096 63.2544,6.74016 C63.38592,6.87264 63.7152,7.33248 63.7152,8.7792 C63.7152,10.22592 63.4848,10.68576 63.22176,10.91616 C62.95872,11.14656 62.85984,11.14656 62.10432,11.14656 L56.712,11.14656 L56.712,11.1456 Z M72,24 L48,24 L48,0 L72,0 L72,24 Z M101.29344,3.7152 L101.29344,20.2848 L109.44672,20.2848 C111.77952,20.2848 113.06304,19.95648 114.08352,19.06848 C115.10112,18.18048 115.82496,16.10976 115.82496,12.03168 C115.82496,7.95648 115.26624,6.01632 114.08352,4.9968 C112.89984,3.9792 111.81504,3.78048 109.44672,3.78048 L101.2944,3.78048 L101.2944,3.7152 L101.29344,3.7152 Z M112.43904,12 C112.43904,15.552 112.14144,16.47168 111.51744,16.9632 C110.89344,17.4576 110.43264,17.4576 109.21632,17.4576 L104.712,17.4576 L104.712,6.5424 L109.21632,6.5424 C110.46432,6.5424 110.99232,6.6096 111.51744,7.03584 C112.04352,7.46208 112.43904,8.44704 112.43904,12.03168 L112.43904,12 Z M120,24 L96,24 L96,0 L120,0 L120,24 Z M76.8,6.72 L76.8,3.84 L91.03392,3.84 L91.03392,9.39456 L88.04832,9.39456 L88.04832,6.72 L82.27488,6.72 L82.27488,10.83456 L86.85408,10.83456 L86.85408,13.61184 L82.27488,13.61184 L82.27488,18.24 L88.1808,18.24 L88.1808,15.22272 L91.2,15.22272 L91.2,21.12 L76.8,21.12 L76.8,18.24 L79.056,18.24 L79.056,6.72 L76.8,6.72 Z" opacity=".4"/>
  </g>
</svg>
