<svg xmlns="http://www.w3.org/2000/svg" width="1441" height="315" viewBox="0 0 1441 315">
  <defs>
	<style>
		.filler-right {
                                        stroke-dasharray:2400;
                                        stroke-dashoffset: 0;
                                        transition: all 0.5s ease;
                                        -webkit-animation: dash-fill linear forwards;
                                        animation: dash-fill linear forwards;
                                        animation-iteration-count: 1;
                                        animation-duration: 3s;
                                      }

                                @-webkit-keyframes dash-fill {
                                        from {
                                          stroke-dashoffset: 2400;
                                        }
                                        to {
                                          stroke-dashoffset: 0;
                                        }
                                      }
	</style>
    <linearGradient id="data_-a" x1="100%" x2="0%" y1="50%" y2="50%">
      <stop offset="0%" stop-color="#E81E75" stop-opacity="0"/>
      <stop offset="12.657%" stop-color="#AA2FA7"/>
      <stop offset="87.953%" stop-color="#AA2FA7"/>
      <stop offset="100%" stop-color="#AA2FA7" stop-opacity="0"/>
    </linearGradient>
  </defs>
  <g fill="none" fill-rule="evenodd" transform="translate(.5 -4.5)">
    <path class="filler-right" stroke="url(#data_-a)" stroke-width="2" d="M0,314.925153 C120.050796,312.761962 115.859278,141.161645 164.419833,140.85845 C212.980388,140.555255 203.828254,300.886719 261.234559,299.740105 C318.640863,298.593491 311.94354,154.962892 360.289561,155.81022 C402.436685,156.548903 393.615727,236.693495 457.650875,237.169193 C554.272682,237.886967 550.096292,62.7869517 602.90912,62.4090043 C659.321388,62.0052979 654.437218,204.726814 703.03439,204.547668 C751.631562,204.368523 753.394307,104.099022 798.997087,102.151839 C844.599866,100.204656 850.538219,244.605894 899.890469,244.630951 C949.242718,244.656009 946.235032,149.379699 996.371095,150.201695 C1046.50716,151.02369 1041.80628,289.249518 1093.41737,288.77067 C1145.02847,288.291821 1142.14078,150.398547 1191.97578,150.38713 C1241.81078,150.375713 1240.36171,263.512166 1289.40377,263.380868 C1338.44583,263.24957 1378.78792,152.293812 1441,155.967314" opacity=".9"/>
    <g stroke="#FFF" stroke-linecap="round" stroke-linejoin="round" stroke-width="4" transform="translate(121 8)">
      <path class="filler-right" d="M2 303.981809L2 147.403573M542.333333 305.041115L542.333333 285.715393M212.792049 304.787871L212.792049 182.484936M163.792049 304.787871L163.792049 182.484936M926 303.505498L926 183.505498M763 303.505498L763 2.39350524M1140 304.119521L1140 254.75884M51 304.501565L51 72.8322775M601 305.00123L601 242.369935M269 304.37784L269 217.247347M817.792049 304.651325L817.792049 75.4522227M433 303.981809L433 147.403573M324 303.981809L324 147.403573M381.792049 304.351804L381.792049 70.2289363M982.792049 305.099675L982.792049 83.1879114M109 304.195322L109 255.649365M646.333333 304.721627L646.333333 217.330988M868 304.973154L868 227.651405M1084 304.37784L1084 217.024772M489 305.00123L489 242.369935M1037 303.877147L1037 27.0561874M1197 303.877147L1197 27.0561874M705.792049 304.256048L705.792049 13.5795512"/>
    </g>
  </g>
</svg>
